<?xml version="1.0" standalone="no"?>
<!DOCTYPE svg PUBLIC "-//W3C//DTD SVG 1.1//EN" "http://www.w3.org/Graphics/SVG/1.1/DTD/svg11.dtd">
<svg xmlns="http://www.w3.org/2000/svg"><metadata>This SVG WebFont was generated by YouWorkForThem.
Â© 2016 Connary Fagen</metadata><defs><font horiz-adv-x="1386" id="ywftsvg"><font-face ascent="1638" bbox="-358 -610 2263 1956" cap-height="1434" descent="-410" font-family="" font-stretch="normal" font-weight="800" panose-1="0 0 9 0 0 0 0 0 0 0" underline-position="0" underline-thickness="0" unicode-range="U+0020-FB02" units-per-em="2048" x-height="1004"/><missing-glyph d="M831 1638v-2027h-643v2027h643zM676 1503h-336v-67h133v-76h-135v-66h338v66h-135v76h135v67zM541 1241h-203v-211h338v70h-135v141zM473 1171v-71h-67v71h67zM676 975h-338v-66h135v-75h-135v-68h203v143h135v66zM676 854h-68v-133h-270v-70h338v203zM676 606h-203v-112 h68v45h67v-95h-202v162h-68v-229h338v229zM676 256h-338v-229h338v229zM608 188v-94h-202v94h202zM676 -20h-338v-66h143l-143 -96v-68h338v68h-207l141 96h66v66z" horiz-adv-x="1013"/><glyph d="M1047 1180q-70 0 -118 48t-48 115q0 70 48 118t118 48q68 0 115.5 -48t47.5 -118q0 -68 -47.5 -115.5t-115.5 -47.5zM748 1473q20 -12 20 -37v-217q0 -18 -11.5 -24.5t-25.5 3.5q-55 33 -120.5 33t-85 -28.5t-19.5 -90.5v-108h213q31 0 31 -31v-187q0 -31 -31 -30h-213 v-725q0 -31 -31 -31h-246q-31 0 -30 31v725h-119q-31 0 -31 30v187q0 31 31 31h119v149q0 176 99 265t269 89q120 1 181 -34zM1169 1004q31 0 31 -31v-942q0 -31 -31 -31h-245q-31 0 -31 31v942q0 31 31 31h245z" glyph-name="uniFB01" horiz-adv-x="1292" unicode="fi"/><glyph d="M748 1473q20 -12 20 -37v-217q0 -18 -11.5 -24.5t-25.5 3.5q-55 33 -120.5 33t-85 -28.5t-19.5 -90.5v-108h213q31 0 31 -31v-187q0 -31 -31 -30h-213v-725q0 -31 -31 -31h-246q-31 0 -30 31v725h-119q-31 0 -31 30v187q0 31 31 31h119v149q0 176 99 265t269 89 q120 1 181 -34zM1186 1495q31 0 31 -31v-1433q0 -31 -31 -31h-246q-31 0 -31 31v1433q0 31 31 31h246z" glyph-name="uniFB02" horiz-adv-x="1304" unicode="fl"/><glyph d="M831 1638v-2027h-643v2027h643zM676 1503h-336v-67h133v-76h-135v-66h338v66h-135v76h135v67zM541 1241h-203v-211h338v70h-135v141zM473 1171v-71h-67v71h67zM676 975h-338v-66h135v-75h-135v-68h203v143h135v66zM676 854h-68v-133h-270v-70h338v203zM676 606h-203v-112 h68v45h67v-95h-202v162h-68v-229h338v229zM676 256h-338v-229h338v229zM608 188v-94h-202v94h202zM676 -20h-338v-66h143l-143 -96v-68h338v68h-207l141 96h66v66z" glyph-name=".notdef" horiz-adv-x="1013"/><glyph glyph-name="glyph1" horiz-adv-x="0"/><glyph glyph-name="glyph2" horiz-adv-x="681"/><glyph glyph-name="space" horiz-adv-x="532" unicode=" "/><glyph d="M475 1257l-78 -788q-2 -29 -30 -29h-109q-29 0 -31 29l-80 788q-8 86 40.5 139.5t124 53.5t123.5 -53.5t40 -139.5zM311 -27q-70 0 -118 48.5t-48 117.5q0 68 48.5 116t117.5 48q68 0 116 -48t48 -116q0 -70 -48 -118t-116 -48z" glyph-name="exclam" horiz-adv-x="622" unicode="!"/><glyph d="M303 1434q14 0 23.5 -8.5t7.5 -22.5l-27 -402q-4 -31 -31 -30h-159q-25 0 -31 30l-25 402q-2 14 7.5 22.5t23.5 8.5h211zM653 1434q14 0 23.5 -8.5t7.5 -22.5l-27 -402q-4 -31 -30 -30h-160q-25 0 -31 30l-24 402q-2 14 7 22.5t23 8.5h211z" glyph-name="quotedbl" horiz-adv-x="743" unicode="&quot;"/><glyph d="M1155 942h-131v-287h131q29 0 29 -30v-162q0 -31 -29 -31h-131v-237q0 -31 -31 -31h-221q-31 0 -31 31v237h-184v-237q0 -31 -31 -31h-221q-31 0 -31 31v237h-131q-31 0 -30 31v162q0 31 30 30h131v287h-131q-31 0 -30 31v162q0 31 30 30h131v238q0 31 31 31h221 q31 0 31 -31v-238h184v238q0 31 31 31h221q31 0 31 -31v-238h131q29 0 29 -30v-162q0 -31 -29 -31zM741 655v287h-184v-287h184z" glyph-name="numbersign" horiz-adv-x="1296" unicode="#"/><glyph d="M1067 408q0 -172 -110.5 -282t-274.5 -140v-140q0 -31 -31 -30h-174q-31 0 -31 30v138q-233 47 -378 215q-14 23 0 43l141 157q20 25 47 4q160 -131 313 -131q78 0 132.5 38t54.5 104q0 59 -69 103t-165 79t-193.5 81t-166 137t-68.5 222q0 160 100.5 267.5t251.5 136.5 v147q0 31 31 31h174q31 0 31 -31v-151q172 -37 315 -176q23 -18 4 -43l-133 -162q-18 -27 -43 -8q-150 104 -264 104q-74 0 -114.5 -35t-40.5 -86q0 -61 68.5 -102t165.5 -73t193.5 -76t165 -138t68.5 -233z" glyph-name="dollar" horiz-adv-x="1126" unicode="$"/><glyph d="M360.5 1444q116.5 0 198.5 -80t82 -196.5t-82 -197.5t-198.5 -81t-197.5 81t-81 197.5t81 196.5t197.5 80zM1079 1423l170 -106l-878 -1307l-170 107zM360 1249q-33 0 -56 -23.5t-23 -58t23.5 -59.5t55.5 -25q35 0 59.5 25t24.5 59.5t-24.5 58t-59.5 23.5zM1090 545 q119 0 198.5 -81t79.5 -197.5t-80 -196.5t-198 -80q-117 0 -199 80t-82 196.5t82 197.5t199 81zM1090 350q-35 0 -58.5 -24.5t-23.5 -59.5t23.5 -58.5t58.5 -23.5q33 0 57 23.5t24 58.5t-24 59.5t-57 24.5z" glyph-name="percent" horiz-adv-x="1449" unicode="%"/><glyph d="M1327 166q23 -23 0 -47l-127 -127q-25 -25 -45 -2l-166 160q-203 -168 -432 -168q-195 0 -341 113.5t-146 307.5q0 219 256 385q-154 158 -154 304q0 147 113.5 252.5t281.5 105.5q162 0 281 -106.5t119 -251.5q0 -205 -230 -363l234 -223l71 80q18 18 43 2l148 -142 q25 -20 4 -43l-72 -84zM446 1083q0 -68 97 -168q74 47 110.5 85t36.5 83t-34.5 78t-88 33t-87.5 -33t-34 -78zM573 262q111 0 220 76l-267 256q-145 -92 -145 -182q0 -57 52 -103.5t140 -46.5z" glyph-name="ampersand" horiz-adv-x="1380" unicode="&amp;"/><glyph d="M303 1434q14 0 23.5 -8.5t7.5 -22.5l-27 -402q-4 -31 -31 -30h-159q-25 0 -31 30l-25 402q-2 14 7.5 22.5t23.5 8.5h211z" glyph-name="quotesingle" horiz-adv-x="391" unicode="'"/><glyph d="M600 1526q41 0 18 -37q-199 -369 -198 -834q0 -492 203 -884q16 -37 -23 -37h-242q-25 0 -36 20q-219 393 -220 901q0 489 220 850q12 20 36 21h242z" glyph-name="parenleft" horiz-adv-x="729" unicode="("/><glyph d="M129 1526h242q25 0 37 -21q219 -360 219 -850q0 -508 -219 -901q-12 -20 -37 -20h-242q-39 0 -23 37q203 393 203 884q0 465 -198 834q-23 37 18 37z" glyph-name="parenright" horiz-adv-x="729" unicode=")"/><glyph d="M895 1126l-201 -55l137 -182l-182 -113l-125 176l-125 -176l-182 113l137 182l-200 55l51 213l221 -65l-8 231h209l-2 -231l219 65z" glyph-name="asterisk" horiz-adv-x="1048" unicode="*"/><glyph d="M827 696q31 0 31 -30v-162q0 -31 -31 -31h-229v-231q0 -31 -31 -31h-161q-31 0 -31 31v231h-232q-31 0 -30 31v162q0 31 30 30h232v232q0 31 31 30h161q31 0 31 -30v-232h229z" glyph-name="plus" horiz-adv-x="970" unicode="+"/><glyph d="M237.5 303q69.5 0 117.5 -51t48 -133q0 -178 -137 -338q-12 -10 -26 -10h-29q-27 0 -16 26q43 90 43 176q-70 0 -118 48.5t-48 117.5q0 68 48 116t117.5 48z" glyph-name="comma" horiz-adv-x="475" unicode=","/><glyph d="M676 688q31 0 31 -31v-186q0 -31 -31 -31h-553q-31 0 -31 31v186q0 31 31 31h553z" glyph-name="hyphen" horiz-adv-x="798" unicode="-"/><glyph d="M238 -27q-70 0 -118 48.5t-48 117.5q0 68 48 116t118 48q68 0 115.5 -48t47.5 -116q0 -70 -47.5 -118t-115.5 -48z" glyph-name="period" horiz-adv-x="473" unicode="."/><glyph d="M993 1526q37 0 25 -35l-672 -1733q-10 -25 -37 -24h-260q-37 0 -24 35l671 1732q8 25 37 25h260z" glyph-name="slash" horiz-adv-x="1042" unicode="/"/><glyph d="M647.5 1450q241.5 0 414.5 -193.5t173 -546t-172 -545t-416 -192.5q-242 0 -415 192.5t-173 545t173.5 546t415 193.5zM647.5 1165q-143.5 0 -218.5 -132t-75 -322.5t75 -321.5t218.5 -131t217 131t73.5 321.5t-73.5 322.5t-217 132z" glyph-name="zero" horiz-adv-x="1294" unicode="0"/><glyph d="M565 1434q31 0 31 -31v-1372q0 -31 -31 -31h-246q-31 0 -30 31v1155h-199q-31 0 -31 31v186q0 31 31 31h475z" glyph-name="one" horiz-adv-x="686" unicode="1"/><glyph d="M954 248q31 0 31 -31v-186q0 -31 -31 -31h-854q-31 0 -30 31v217l209 213l107.5 107.5l94 94t73.5 75.5t60.5 70t39 58.5t27.5 60t7 58.5q0 80 -57.5 130t-136.5 50q-119 0 -218 -90q-25 -23 -45 -2l-149 144q-20 20 -2 43q166 190 422 190q199 0 341 -131t142 -322 q0 -45 -9 -87t-35 -89t-45 -78.5t-69.5 -88t-78 -86t-99 -102.5t-104.5 -108l-103 -110h512z" glyph-name="two" horiz-adv-x="1052" unicode="2"/><glyph d="M797 754q217 -117 217 -342q0 -188 -135.5 -313.5t-362.5 -125.5q-135 0 -249.5 48.5t-186.5 130.5q-18 23 2 43l149 141q20 20 45 0q98 -82 220 -82q102 0 158.5 53t56.5 129q0 70 -57.5 123t-194.5 57q-31 0 -31 31v170q0 31 33 31q233 6 233 176q0 66 -54 105.5 t-118 39.5q-119 0 -198 -79q-23 -23 -45 0l-148 141q-20 20 -2 43q68 82 175.5 129t230.5 47q178 0 304 -111.5t126 -287.5t-168 -297z" glyph-name="three" horiz-adv-x="1085" unicode="3"/><glyph d="M1061 539q31 0 31 -31v-186q0 -31 -31 -31h-123v-260q0 -31 -31 -31h-245q-31 0 -31 31v260h-527q-31 0 -30 31v196q0 20 10 39l534 856q12 20 37 21h252q31 0 31 -31v-864h123zM631 539v417l-248 -417h248z" glyph-name="four" horiz-adv-x="1163" unicode="4"/><glyph d="M545 973q203 0 339 -142.5t136 -341.5q0 -236 -145.5 -375t-376.5 -139q-145 0 -257 65.5t-163 158.5q-16 23 8 37l178 122q25 18 45 -2q72 -100 189 -100q98 0 160.5 69.5t62.5 163.5q0 88 -63.5 156t-157.5 68q-100 0 -166 -70q-18 -20 -41 -12l-193 59q-27 8 -20 37 l180 680q6 27 33 27h618q31 0 31 -31v-186q0 -31 -31 -31h-436l-61 -236q2 0 18.5 5.5t48 11.5t64.5 6z" glyph-name="five" horiz-adv-x="1087" unicode="5"/><glyph d="M594 897q176 -25 291.5 -153t115.5 -302q0 -195 -139 -332t-338 -137q-197 0 -336 137.5t-139 331.5q0 162 135 346l496 668q16 27 43 6l168 -121q25 -18 6 -43zM524.5 258q75.5 0 128 53.5t52.5 130.5q0 80 -51.5 132.5t-129.5 52.5q-76 0 -128 -52.5t-52 -132.5 q0 -78 52.5 -131t128 -53z" glyph-name="six" horiz-adv-x="1062" unicode="6"/><glyph d="M940 1434q14 0 21.5 -8.5t3.5 -22.5l-492 -1372q-10 -31 -35 -31h-241q-14 0 -22.5 8t-4.5 23l420 1155h-500q-31 0 -31 31v186q0 31 31 31h850z" glyph-name="seven" horiz-adv-x="1007" unicode="7"/><glyph d="M844 815q104 -51 167.5 -148.5t63.5 -226.5q0 -207 -153.5 -337t-348 -130t-349 130t-154.5 337q0 129 63.5 226.5t167.5 148.5q-137 109 -137 264.5t113.5 263t296 107.5t296 -107.5t113.5 -263.5q0 -158 -139 -264zM434 1067q0 -59 39 -100t100.5 -41t99.5 41t40 100 q0 55 -40 96t-99.5 41t-100.5 -41t-39 -96zM573 258q76 0 131.5 54.5t55.5 138.5t-56.5 135t-130 51t-131 -51t-57.5 -135q0 -86 55 -139.5t133 -53.5z" glyph-name="eight" horiz-adv-x="1144" unicode="8"/><glyph d="M551 1450q197 0 336 -137t139 -332q0 -162 -135 -346l-496 -668q-14 -27 -43 -6l-168 121q-25 18 -6 43l303 401q-176 25 -291.5 153t-115.5 302q0 195 139 332t338 137zM551 797q76 0 128 52t52 132q0 78 -52 131t-128 53t-128 -53t-52 -131q0 -80 51 -132t129 -52z" glyph-name="nine" horiz-adv-x="1075" unicode="9"/><glyph d="M238 756q-70 0 -118 48t-48 118q0 68 48 115.5t118 47.5q68 0 115.5 -48t47.5 -115q0 -70 -47.5 -118t-115.5 -48zM238 -27q-70 0 -118 48.5t-48 117.5q0 68 48 116t118 48q68 0 115.5 -48t47.5 -116q0 -70 -47.5 -118t-115.5 -48z" glyph-name="colon" horiz-adv-x="473" unicode=":"/><glyph d="M240 698q-70 0 -118 48.5t-48 117.5q0 68 48 116t118 48q68 0 115.5 -48t47.5 -116q0 -70 -47.5 -118t-115.5 -48zM237.5 303q69.5 0 117.5 -51t48 -133q0 -178 -137 -338q-12 -10 -26 -10h-29q-27 0 -16 26q43 90 43 176q-70 0 -118 48.5t-48 117.5q0 68 48 116 t117.5 48z" glyph-name="semicolon" horiz-adv-x="475" unicode=";"/><glyph d="M879 985q14 8 25 1t11 -23v-197q0 -25 -22 -35l-510 -221l510 -221q23 -10 22 -35v-197q0 -16 -11 -23t-25 1l-754 368q-23 12 -23 33v148q0 20 23 32z" glyph-name="less" horiz-adv-x="997" unicode="&lt;"/><glyph d="M868 868q31 0 31 -30v-162q0 -31 -31 -31h-725q-31 0 -30 31v162q0 31 30 30h725zM868 524q31 0 31 -30v-162q0 -31 -31 -31h-725q-31 0 -30 31v162q0 31 30 30h725z" glyph-name="equal" horiz-adv-x="1011" unicode="="/><glyph d="M160 985l753 -369q23 -12 23 -32v-148q0 -20 -23 -33l-753 -368q-16 -8 -26.5 -1t-10.5 23v197q0 25 22 35l510 221l-510 221q-23 10 -22 35v197q0 16 10.5 23t26.5 -1z" glyph-name="greater" horiz-adv-x="1038" unicode=">"/><glyph d="M537 1450q186 0 327.5 -110.5t141.5 -282.5q0 -139 -77 -231.5t-272 -192.5l-16 -162q-4 -31 -31 -31h-190q-27 0 -31 31l-20 287q-2 25 26 35q166 51 225.5 102t59.5 115q0 61 -52.5 96t-115.5 35q-131 0 -262 -117q-37 -33 -64 0l-120 147q-25 33 -3 62 q179 217 474 217zM518 303q68 0 116 -48t48 -116q0 -70 -48 -118t-116 -48q-70 0 -118 48.5t-48 117.5q0 68 48 116t118 48z" glyph-name="question" horiz-adv-x="1077" unicode="?"/><glyph d="M1161 1026l-35 -364q-12 -109 68 -109q102 0 102 202.5t-138 335t-333 132.5q-213 0 -362.5 -143.5t-149.5 -372.5q0 -217 147.5 -356.5t352.5 -139.5q135 0 250 70l192 -127q-76 -76 -191.5 -123t-238.5 -47q-305 0 -530 200.5t-225 522.5q0 225 109.5 398t279.5 259 t366 86q297 0 506 -194.5t209 -501.5q0 -193 -103.5 -305.5t-262.5 -112.5q-119 0 -189 63q-74 -51 -176 -51q-156 0 -257 104.5t-101 258.5q0 152 101 256t257 104q123 0 205 -72l24 27h123zM808.5 555q65.5 0 107.5 44t42 112q0 66 -42 109.5t-107.5 43.5t-108.5 -44 t-43 -109.5t43 -110.5t108.5 -45z" glyph-name="at" horiz-adv-x="1609" unicode="@"/><glyph d="M1343 35q14 -35 -24 -35h-266q-27 0 -35 25l-74 227h-502l-73 -227q-8 -25 -35 -25h-266q-39 0 -25 35l496 1374q10 25 34 25h236q31 0 39 -25zM532 520h324l-162 496z" glyph-name="A" unicode="A"/><glyph d="M899 766q115 -31 198 -125t83 -227q0 -414 -535 -414h-504q-31 0 -30 31v1372q0 31 30 31h502q203 0 316.5 -105.5t113.5 -265.5q0 -106 -50 -186t-124 -111zM776 1022q0 131 -162 131h-186v-274h186q162 0 162 143zM657 281q94 0 149.5 43t55.5 129q0 164 -205 163h-229 v-335h229z" glyph-name="B" horiz-adv-x="1228" unicode="B"/><glyph d="M1159 397l158 -170q20 -23 0 -43q-201 -211 -506 -211q-309 0 -525 214t-216 523.5t216 524.5t525 215q303 0 506 -209q18 -20 0 -43l-158 -172q-18 -23 -43 -2q-135 115 -307 115q-174 0 -293 -123t-119 -305q0 -180 119 -303t293 -123q172 0 307 114q25 21 43 -2z" glyph-name="C" unicode="C"/><glyph d="M569 1434q356 0 555 -203t199 -514t-198.5 -514t-555.5 -203h-428q-31 0 -30 31v1372q0 31 30 31h428zM569 281q213 0 321.5 112.5t108.5 323.5t-108.5 323.5t-321.5 112.5h-141v-872h141z" glyph-name="D" horiz-adv-x="1380" unicode="D"/><glyph d="M911 281q31 0 31 -31v-219q0 -31 -31 -31h-770q-31 0 -30 31v1372q0 31 30 31h768q31 0 31 -31v-219q0 -31 -31 -31h-481v-281h453q31 0 30 -30v-219q0 -31 -30 -31h-453v-311h483z" glyph-name="E" horiz-adv-x="1044" unicode="E"/><glyph d="M891 1434q31 0 31 -31v-219q0 -31 -31 -31h-463v-281h436q31 0 31 -30v-219q0 -31 -31 -31h-436v-561q0 -31 -31 -31h-256q-31 0 -30 31v1372q0 31 30 31h750z" glyph-name="F" horiz-adv-x="1024" unicode="F"/><glyph d="M1432 819q31 0 30 -31v-139q0 -287 -174 -481.5t-471 -194.5q-309 0 -528 217.5t-219 526.5q0 305 216 519t525 214q303 0 506 -209q18 -20 0 -43l-158 -172q-18 -23 -43 -2q-135 115 -307 115q-174 0 -293 -122t-119 -300q0 -184 118 -308t300 -124q154 0 242 77.5 t92 190.5h-324q-31 0 -30 31v204q0 31 30 31h607z" glyph-name="G" horiz-adv-x="1521" unicode="G"/><glyph d="M1214 1434q31 0 31 -31v-1372q0 -31 -31 -31h-256q-31 0 -30 31v532h-500v-532q0 -31 -31 -31h-256q-31 0 -30 31v1372q0 31 30 31h256q31 0 31 -31v-559h500v559q0 31 30 31h256z" glyph-name="H" horiz-adv-x="1355" unicode="H"/><glyph d="M111 1403q0 31 30 31h256q31 0 31 -31v-1372q0 -31 -31 -31h-256q-31 0 -30 31v1372z" glyph-name="I" horiz-adv-x="538" unicode="I"/><glyph d="M203 358q16 23 45 2q2 -2 15 -10t18.5 -11t19.5 -11.5t23.5 -11.5t25 -9t29.5 -9t31.5 -5t35.5 -2q207 0 207 264v848q0 31 31 31h256q31 0 31 -31v-858q0 -287 -137.5 -425t-376.5 -138q-256 0 -385 151q-14 16 0 43z" glyph-name="J" horiz-adv-x="1081" unicode="J"/><glyph d="M1292 37q10 -16 5 -26.5t-23 -10.5h-303q-25 0 -37 18l-397 555l-109 -124v-418q0 -31 -31 -31h-256q-31 0 -30 31v1372q0 31 30 31h256q31 0 31 -31v-533l449 547q14 16 36 17h320q18 0 23.5 -11.5t-7.5 -25.5l-501 -580z" glyph-name="K" horiz-adv-x="1339" unicode="K"/><glyph d="M870 281q31 0 31 -31v-219q0 -31 -31 -31h-729q-31 0 -30 31v1372q0 31 30 31h256q31 0 31 -31v-1122h442z" glyph-name="L" horiz-adv-x="970" unicode="L"/><glyph d="M1593 1434q31 0 31 -31v-1372q0 -31 -31 -31h-256q-31 0 -30 31v717l-287 -723q-8 -25 -37 -25h-231q-27 0 -37 25l-287 723v-717q0 -31 -31 -31h-256q-31 0 -30 31v1372q0 31 30 31h289q29 0 37 -21l401 -1044l400 1044q8 20 37 21h288z" glyph-name="M" horiz-adv-x="1734" unicode="M"/><glyph d="M1260 1434q31 0 30 -31v-1372q0 -31 -30 -31h-291q-25 0 -37 20l-504 904v-893q0 -31 -31 -31h-256q-31 0 -30 31v1372q0 31 30 31h289q25 0 37 -21l506 -905v895q0 31 31 31h256z" glyph-name="N" horiz-adv-x="1400" unicode="N"/><glyph d="M807 -27q-305 0 -521 215t-216 522.5t216 523.5t521 216q307 0 523 -216t216 -523.5t-216 -522.5t-523 -215zM807 283q176 0 298 123.5t122 304.5q0 182 -122 307t-298 125t-297 -125t-121 -307q0 -180 121 -304t297 -124z" glyph-name="O" horiz-adv-x="1615" unicode="O"/><glyph d="M578 1434q252 0 392 -130t140 -345.5t-140.5 -345.5t-391.5 -130h-150v-452q0 -31 -31 -31h-256q-31 0 -30 31v1372q0 31 30 31h437zM571 764q98 0 167 45t69 149.5t-68.5 149.5t-167.5 45h-143v-389h143z" glyph-name="P" horiz-adv-x="1159" unicode="P"/><glyph d="M1421 301l113 -113q23 -20 0 -43l-174 -174q-20 -20 -43 0l-115 117q-178 -115 -395 -115q-305 0 -521 215t-216 522.5t216 523.5t521 216q307 0 523 -216t216 -523q0 -228 -125 -410zM807 283q88 0 168 34l-154 154q-20 20 -2 43l176 172q23 20 43 0l152 -154 q37 82 37 179q0 182 -122 307t-298 125t-297 -125t-121 -307q0 -180 121 -304t297 -124z" glyph-name="Q" horiz-adv-x="1615" unicode="Q"/><glyph d="M1139 37q23 -37 -21 -37h-272q-25 0 -37 20l-297 463h-84v-452q0 -31 -31 -31h-256q-31 0 -30 31v1372q0 31 30 31h437q252 0 392 -130t140 -346q0 -156 -74.5 -269.5t-216.5 -164.5zM428 1153v-389h143q98 0 167 45t69 149.5t-68.5 149.5t-167.5 45h-143z" glyph-name="R" horiz-adv-x="1214" unicode="R"/><glyph d="M406 1030q0 -61 68.5 -102t165.5 -73t193.5 -76t165 -138t68.5 -233q0 -203 -152.5 -319t-353.5 -116q-150 0 -283 66.5t-210 159.5q-14 23 0 43l141 157q20 25 47 4q160 -131 313 -131q78 0 132.5 38t54.5 104q0 59 -69 103t-165 79t-193.5 81t-166 137t-68.5 222 q0 188 135.5 301t321.5 113q252 0 446 -190q23 -18 4 -43l-133 -162q-18 -27 -43 -8q-150 104 -264 104q-74 0 -114.5 -35t-40.5 -86z" glyph-name="S" horiz-adv-x="1126" unicode="S"/><glyph d="M1028 1434q31 0 31 -31v-219q0 -31 -31 -31h-305v-1122q0 -31 -31 -31h-256q-31 0 -30 31v1122h-306q-31 0 -30 31v219q0 31 30 31h928z" glyph-name="T" horiz-adv-x="1128" unicode="T"/><glyph d="M1174 1434q31 0 30 -31v-846q0 -276 -152.5 -430t-398.5 -154q-248 0 -400.5 154t-152.5 430v846q0 31 31 31h256q31 0 31 -31v-846q0 -270 235 -270q115 0 174.5 69.5t59.5 200.5v846q0 31 31 31h256z" glyph-name="U" horiz-adv-x="1304" unicode="U"/><glyph d="M1036 1409q8 25 35 25h266q39 0 25 -35l-496 -1374q-10 -25 -39 -25h-235q-27 0 -35 25l-496 1374q-14 35 25 35h266q27 0 35 -25l326 -991z" glyph-name="V" horiz-adv-x="1423" unicode="V"/><glyph d="M2167 1434q35 0 24 -35l-434 -1374q-8 -25 -39 -25h-250q-29 0 -34 25l-310 931l-311 -931q-8 -25 -33 -25h-250q-33 0 -38 25l-431 1374q-14 35 25 35h266q27 0 35 -25l272 -987l310 987q2 14 16 21q8 4 16 4h246q10 0 19 -4q8 -6 14 -21l309 -987l275 987q6 25 34 25 h269z" glyph-name="W" horiz-adv-x="2252" unicode="W"/><glyph d="M1237 37q20 -37 -20 -37h-271q-25 0 -37 20l-258 433l-258 -433q-12 -20 -37 -20h-270q-41 0 -20 37l417 696l-397 664q-20 37 20 37h271q25 0 37 -21l237 -397l238 397q12 20 37 21h270q41 0 21 -37l-398 -664z" glyph-name="X" horiz-adv-x="1302" unicode="X"/><glyph d="M1200 1434q41 0 21 -37l-418 -738v-628q0 -31 -31 -31h-258q-31 0 -31 31v635l-417 731q-20 37 20 37h270q25 0 37 -21l250 -450l250 450q12 20 37 21h270z" glyph-name="Y" horiz-adv-x="1286" unicode="Y"/><glyph d="M1075 281q31 0 31 -31v-219q0 -31 -31 -31h-964q-31 0 -31 31v229q0 18 12 37l649 856h-610q-31 0 -31 31v219q0 31 31 31h924q31 0 30 -31v-229q0 -18 -12 -37l-651 -856h653z" glyph-name="Z" horiz-adv-x="1183" unicode="Z"/><glyph d="M549 1526q31 0 31 -31v-186q0 -31 -31 -31h-127v-1296h127q31 0 31 -31v-187q0 -31 -31 -30h-416q-31 0 -31 30v1731q0 31 31 31h416z" glyph-name="bracketleft" horiz-adv-x="681" unicode="["/><glyph d="M49 1526h260q27 0 37 -25l672 -1732q12 -35 -25 -35h-260q-29 0 -37 24l-671 1733q-13 35 24 35z" glyph-name="backslash" horiz-adv-x="1042" unicode="\"/><glyph d="M133 1526h416q31 0 31 -31v-1731q0 -31 -31 -30h-416q-31 0 -31 30v187q0 31 31 31h127v1296h-127q-31 0 -31 31v186q0 31 31 31z" glyph-name="bracketright" horiz-adv-x="681" unicode="]"/><glyph d="M1057 657q8 -14 1 -25t-24 -11h-196q-25 0 -35 22l-221 510l-222 -510q-10 -23 -34 -22h-197q-16 0 -23.5 11t0.5 25l369 754q12 23 33 23h147q20 0 33 -23z" glyph-name="asciicircum" horiz-adv-x="1163" unicode="^"/><glyph d="M1096 0q31 0 30 -31v-186q0 -31 -30 -31h-963q-31 0 -31 31v186q0 31 31 31h963z" glyph-name="underscore" horiz-adv-x="1228" unicode="_"/><glyph d="M86 1491h221q25 0 35 -25l123 -258q16 -35 -25 -34h-221q-25 0 -35 24l-123 258q-16 35 25 35z" glyph-name="grave" horiz-adv-x="479" unicode="`"/><glyph d="M1090 1004q31 0 30 -31v-942q0 -31 -30 -31h-224q-27 0 -30 31l-7 73q-117 -131 -286 -131q-207 0 -345.5 153t-138.5 374t138.5 373.5t345.5 152.5q166 0 286 -137l7 84q4 31 30 31h224zM582 254q96 0 160.5 72.5t64.5 175.5q0 100 -64.5 173t-160.5 73q-98 0 -163 -71 t-65 -175q0 -106 65 -177t163 -71z" glyph-name="a" horiz-adv-x="1210" unicode="a"/><glyph d="M668 1026q207 0 345 -152.5t138 -373.5t-138.5 -374t-344.5 -153q-170 0 -287 131l-6 -73q-4 -31 -31 -31h-223q-31 0 -31 31v1433q0 31 31 31h246q31 0 30 -31v-557q115 119 271 119zM629 254q98 0 162.5 70.5t64.5 177.5q0 104 -64.5 175t-162.5 71q-96 0 -161 -73 t-65 -173q0 -102 65 -175t161 -73z" glyph-name="b" horiz-adv-x="1210" unicode="b"/><glyph d="M582 258q100 0 190 78q25 20 45 0l148 -141q20 -20 2 -43q-156 -178 -394 -179q-217 0 -365.5 153t-148.5 374t148.5 373.5t365.5 152.5q231 0 388 -178q18 -23 -3 -43l-147 -143q-20 -20 -45 2q-88 78 -184 77q-98 0 -163 -68.5t-65 -173t65 -173t163 -68.5z" glyph-name="c" horiz-adv-x="1024" unicode="c"/><glyph d="M1090 1495q31 0 30 -31v-1433q0 -31 -30 -31h-224q-27 0 -30 31l-7 73q-117 -131 -286 -131q-207 0 -345.5 153t-138.5 374t138.5 373.5t345.5 152.5q156 0 270 -119v557q0 31 31 31h246zM582 254q96 0 160.5 72.5t64.5 175.5q0 100 -64.5 173t-160.5 73q-98 0 -163 -71 t-65 -175q0 -106 65 -177t163 -71z" glyph-name="d" horiz-adv-x="1210" unicode="d"/><glyph d="M1047 518q0 -68 -14.5 -97.5t-59.5 -29.5h-608q43 -172 258 -172q100 0 194 60q25 16 45 -5l107 -102q18 -23 -4 -45q-154 -154 -373 -154q-233 0 -383 151.5t-150 375t145.5 375t364.5 151.5q213 0 345.5 -147.5t132.5 -360.5zM571 768q-80 0 -137 -47t-74 -135h414 q-14 88 -69.5 135t-133.5 47z" glyph-name="e" horiz-adv-x="1105" unicode="e"/><glyph d="M926 1331q14 -14 -2 -31l-123 -118q-14 -14 -29 -4q-88 53 -158 53q-66 0 -87 -30t-21 -89v-108h203q31 0 30 -31v-187q0 -31 -30 -30h-203v-725q0 -31 -31 -31h-246q-31 0 -30 31v725h-119q-31 0 -31 30v187q0 31 31 31h119v149q0 176 100 265t272 89q210 0 355 -176z " glyph-name="f" horiz-adv-x="890" unicode="f"/><glyph d="M1090 1004q31 0 30 -31v-965q0 -115 -50 -199.5t-132 -129t-170 -65t-182 -20.5q-266 0 -447 132q-20 14 -8 41l80 143q18 25 41 12q133 -78 309 -78q104 0 190.5 44t86.5 147v94q-119 -135 -295 -135q-207 0 -345.5 150.5t-138.5 365.5t138.5 365.5t345.5 150.5 q168 0 286 -133l7 80q4 31 30 31h224zM582 274q94 0 159.5 72t65.5 166t-65.5 165t-159.5 71q-96 0 -162 -69t-66 -167q0 -100 65 -169t163 -69z" glyph-name="g" horiz-adv-x="1210" unicode="g"/><glyph d="M707 1026q156 0 260 -117.5t104 -314.5v-563q0 -31 -31 -31h-245q-31 0 -31 31v501q0 111 -50 160t-122 49q-90 0 -142.5 -65.5t-52.5 -118.5v-526q0 -31 -30 -31h-246q-31 0 -31 31v1433q0 31 31 31h246q31 0 30 -31v-618q109 180 310 180z" glyph-name="h" horiz-adv-x="1161" unicode="h"/><glyph d="M248 1180q-70 0 -118 48t-48 115q0 70 48 118t118 48q68 0 116 -48t48 -118q0 -68 -48 -115.5t-116 -47.5zM94 973q0 31 31 31h246q31 0 30 -31v-942q0 -31 -30 -31h-246q-31 0 -31 31v942z" glyph-name="i" horiz-adv-x="495" unicode="i"/><glyph d="M389 1180q-68 0 -116 48t-48 115q0 70 48.5 118t115.5 48q70 0 118 -48t48 -118q0 -68 -48 -115.5t-118 -47.5zM270 1004h246q31 0 31 -31v-950q0 -205 -117 -313.5t-315 -115.5q-20 0 -25 17l-78 250q-8 23 15 22q86 6 149.5 54.5t63.5 146.5v889q-1 31 30 31z" glyph-name="j" horiz-adv-x="636" unicode="j"/><glyph d="M1116 37q10 -16 5 -26.5t-23 -10.5h-264q-25 0 -37 18l-279 371l-121 -131v-227q0 -31 -30 -31h-246q-31 0 -31 31v1433q0 31 31 31h246q31 0 30 -31v-833l328 356q14 16 35 17h278q20 0 25.5 -11.5t-8.5 -25.5l-350 -377z" glyph-name="k" horiz-adv-x="1155" unicode="k"/><glyph d="M90 1464q0 31 31 31h246q31 0 30 -31v-1433q0 -31 -30 -31h-246q-31 0 -31 31v1433z" glyph-name="l" horiz-adv-x="487" unicode="l"/><glyph d="M1360 1026q170 0 277.5 -116.5t107.5 -315.5v-563q0 -31 -31 -31h-246q-31 0 -30 31v501q0 111 -50.5 160t-121.5 49q-88 0 -141.5 -56t-53.5 -114v-540q0 -31 -31 -31h-245q-31 0 -31 31v501q0 111 -50 160t-122 49q-90 0 -142.5 -65.5t-52.5 -118.5v-526q0 -31 -30 -31 h-246q-31 0 -31 31v942q0 31 31 31h237q27 0 31 -31l8 -127q109 180 310 180q98 0 178 -47t127 -135q123 182 348 182z" glyph-name="m" horiz-adv-x="1835" unicode="m"/><glyph d="M707 1026q156 0 260 -117.5t104 -314.5v-563q0 -31 -31 -31h-245q-31 0 -31 31v501q0 111 -50 160t-122 49q-90 0 -142.5 -65.5t-52.5 -118.5v-526q0 -31 -30 -31h-246q-31 0 -31 31v942q0 31 31 31h237q27 0 31 -31l8 -127q109 180 310 180z" glyph-name="n" horiz-adv-x="1161" unicode="n"/><glyph d="M582 -27q-217 0 -370 153t-153 374t153 373.5t370 152.5q219 0 371.5 -152.5t152.5 -373.5t-152.5 -374t-371.5 -153zM582 258q96 0 161.5 68.5t65.5 173t-65.5 173t-161.5 68.5q-94 0 -161 -68.5t-67 -173t67 -173t161 -68.5z" glyph-name="o" horiz-adv-x="1165" unicode="o"/><glyph d="M668 1026q207 0 345 -152.5t138 -373.5t-138.5 -374t-344.5 -153q-158 0 -271 113v-444q0 -31 -30 -31h-246q-31 0 -31 31v1331q0 31 31 31h223q27 0 31 -31l6 -84q121 137 287 137zM629 254q98 0 162.5 70.5t64.5 177.5q0 104 -64.5 175t-162.5 71q-96 0 -161 -73 t-65 -173q0 -102 65 -175t161 -73z" glyph-name="p" horiz-adv-x="1210" unicode="p"/><glyph d="M1090 1004q31 0 30 -31v-1331q0 -31 -30 -31h-246q-31 0 -31 31v444q-113 -113 -270 -113q-207 0 -345.5 153t-138.5 374t138.5 373.5t345.5 152.5q166 0 286 -137l7 84q4 31 30 31h224zM582 254q96 0 160.5 72.5t64.5 175.5q0 100 -64.5 173t-160.5 73q-98 0 -163 -71 t-65 -175q0 -106 65 -177t163 -71z" glyph-name="q" horiz-adv-x="1210" unicode="q"/><glyph d="M793 975q20 -18 10 -45l-68 -176q-10 -33 -51 -23q-55 16 -84 17q-92 0 -147.5 -61.5t-55.5 -156.5v-499q0 -31 -30 -31h-246q-31 0 -31 31v942q0 31 31 31h235q27 0 31 -31l8 -117q88 170 258 170q85 0 140 -51z" glyph-name="r" horiz-adv-x="802" unicode="r"/><glyph d="M371 713q0 -33 34.5 -55.5t86 -35t113 -36t112.5 -53t86 -92t35 -150.5q0 -145 -122 -231.5t-274 -86.5q-121 0 -223 49.5t-162 118.5q-16 18 0 41l93 131q12 18 45 0q135 -84 239.5 -84t104.5 66q0 37 -48.5 61.5t-116 47t-135 53t-115.5 95t-48 159.5q0 145 105.5 230 t248.5 85q223 0 352 -152q16 -20 -2 -43l-92 -120q-12 -16 -45 2q-117 70 -182 69q-43 0 -66.5 -20t-23.5 -49z" glyph-name="s" horiz-adv-x="886" unicode="s"/><glyph d="M674 1004q31 0 31 -31v-187q0 -31 -31 -30h-144v-725q0 -31 -30 -31h-246q-31 0 -31 31v725h-143q-31 0 -31 30v187q0 31 31 31h143v276q0 31 31 31h246q31 0 30 -31v-276h144z" glyph-name="t" horiz-adv-x="753" unicode="t"/><glyph d="M1030 1004q31 0 31 -31v-942q0 -31 -31 -31h-237q-27 0 -31 31l-8 108q-117 -166 -291 -166q-170 0 -276.5 117t-106.5 316v567q0 31 31 31h245q31 0 31 -31v-506q0 -111 52.5 -159t123.5 -48q90 0 140.5 56.5t50.5 121.5v535q0 31 30 31h246z" glyph-name="u" horiz-adv-x="1150" unicode="u"/><glyph d="M803 979q8 25 37 25h247q37 0 25 -35l-377 -944q-10 -25 -37 -25h-241q-27 0 -37 25l-377 944q-12 35 25 35h247q29 0 37 -25l226 -619z" glyph-name="v" horiz-adv-x="1155" unicode="v"/><glyph d="M1778 1004q37 0 24 -35l-348 -944q-8 -25 -37 -25h-237q-29 0 -37 25l-221 581l-222 -581q-8 -25 -36 -25h-236q-27 0 -37 25l-348 944q-12 35 25 35h241q27 0 37 -25l209 -619l217 619q6 18 21 20q8 4 16 5h227q8 0 17 -5q14 -2 20 -20l219 -619l207 619q8 25 37 25h242 z" glyph-name="w" horiz-adv-x="1845" unicode="w"/><glyph d="M1083 37q10 -16 4 -26.5t-24 -10.5h-279q-23 0 -36 20l-170 265l-172 -265q-14 -20 -37 -20h-279q-18 0 -24.5 10t4.5 27l329 477l-313 453q-10 16 -4 26.5t24 10.5h279q23 0 37 -21l156 -238l153 238q14 20 37 21h279q18 0 24 -10.5t-4 -26.5l-313 -453z" glyph-name="x" horiz-adv-x="1153" unicode="x"/><glyph d="M1092 1004q37 0 24 -35l-530 -1334q-8 -25 -37 -24h-240q-43 0 -24 35l145 352l-387 971q-12 35 25 35h247q29 0 37 -25l226 -619l225 619q8 25 37 25h252z" glyph-name="y" horiz-adv-x="1159" unicode="y"/><glyph d="M909 973v-195q0 -25 -14 -39l-477 -489h461q31 0 30 -31v-188q0 -31 -30 -31h-799q-31 0 -31 31v196q0 25 14 39l476 490h-459q-31 0 -31 30v187q0 31 31 31h799q30 0 30 -31z" glyph-name="z" horiz-adv-x="958" unicode="z"/><glyph d="M621 1526q31 0 30 -31v-186q0 -31 -30 -31h-41q-72 0 -72 -64v-428q0 -20 -14 -36l-76 -101q-20 -20 0 -43l76 -98q14 -20 14 -37v-424q0 -66 72 -65h41q31 0 30 -31v-187q0 -31 -30 -30h-220q-84 0 -148.5 49t-64.5 166v512q0 23 -10 39l-67 106q-12 23 -2 41l69 111 q10 18 10 39v514q0 117 64.5 166t148.5 49h220z" glyph-name="braceleft" horiz-adv-x="753" unicode="{"/><glyph d="M111 1608q0 31 30 30h256q31 0 31 -30v-1966q0 -31 -31 -31h-256q-31 0 -30 31v1966z" glyph-name="bar" horiz-adv-x="538" unicode="|"/><glyph d="M76 1526h219q84 0 148.5 -49.5t64.5 -165.5v-514q0 -20 10 -39l70 -111q10 -18 -2 -41l-68 -106q-10 -16 -10 -39v-512q0 -117 -64.5 -166t-148.5 -49h-219q-31 0 -31 30v187q0 31 31 31h41q72 0 71 65v424q0 16 15 37l76 98q20 23 0 43l-76 101q-14 16 -15 36v428 q0 63 -71 64h-41q-31 0 -31 31v186q0 31 31 31z" glyph-name="braceright" horiz-adv-x="696" unicode="}"/><glyph d="M352 758q78 0 147.5 -40t127 -80t108.5 -40q37 0 64.5 18.5t38.5 42.5q12 18 24 19h76q23 0 23 -23q4 -121 -68 -183t-182 -62q-78 0 -146.5 39.5t-126 79.5t-106.5 40q-37 0 -66.5 -18.5t-40.5 -42.5q-6 -18 -24 -19h-76q-27 0 -23 29q14 119 81 179.5t169 60.5z" glyph-name="asciitilde" horiz-adv-x="1062" unicode="~"/><glyph d="M311 1092q68 0 116 -48.5t48 -117.5q0 -68 -48 -116t-116 -48q-70 0 -118 48t-48 116q0 70 48 118t118 48zM475 -193q8 -86 -40 -139t-123.5 -53t-124 53t-40.5 139l80 789q2 29 31 29h109q29 0 30 -29z" glyph-name="exclamdown" horiz-adv-x="520" unicode="¡"/><glyph d="M965 344q23 -20 2 -41q-113 -129 -287 -166v-188q0 -31 -31 -31h-139q-31 0 -31 31v186q-182 33 -301 175.5t-119 333t119 332.5t301 175v252q0 31 31 31h139q31 0 31 -31v-254q170 -37 281 -164q18 -23 -3 -43l-147 -139q-20 -20 -45 2q-43 37 -86 55v-436q47 20 92 59 q25 20 45 0zM354 643q0 -72 34 -129t91 -86v430q-57 -29 -91 -86t-34 -129z" glyph-name="cent" horiz-adv-x="1024" unicode="¢"/><glyph d="M651 1139q-70 0 -113.5 -39t-43.5 -113q0 -37 12 -71.5t22.5 -52t36.5 -54.5h424q31 0 31 -31v-219q0 -31 -31 -31h-338q-10 -131 -125 -247h502q31 0 31 -31v-219q0 -31 -31 -31h-887q-31 0 -30 31v250q94 45 151 99t70 148h-199q-31 0 -31 31v219q0 31 31 31h84 q-49 98 -49 221q0 182 134 301t319 119q137 0 242.5 -55.5t209.5 -157.5q25 -23 -2 -59l-110 -148q-18 -29 -64 4q-78 61 -129 83t-117 22z" glyph-name="sterling" horiz-adv-x="1187" unicode="£"/><glyph d="M1067 975q0 -106 -49 -209l94 -94l-160 -158l-84 84q-119 -82 -260 -82q-139 0 -256 78l-80 -80l-159 158l90 90q-53 96 -53 213t55 221l-92 92l159 158l86 -86q113 74 250 74q141 0 254 -78l90 90l160 -158l-98 -98q53 -96 53 -215zM608 725q123 0 188.5 81t65.5 169 q0 86 -65.5 168t-188.5 82q-121 0 -185.5 -82t-64.5 -168q0 -88 63.5 -169t186.5 -81z" glyph-name="currency" horiz-adv-x="1224" unicode="¤"/><glyph d="M1200 1434q41 0 21 -37l-414 -731h158q31 0 30 -31v-162q0 -31 -30 -31h-162v-82h162q31 0 30 -30v-162q0 -31 -30 -31h-162v-106q0 -31 -31 -31h-258q-31 0 -31 31v106h-161q-31 0 -31 31v162q0 31 31 30h161v82h-161q-31 0 -31 31v162q0 31 31 31h161l-417 731 q-20 37 20 37h270q25 0 37 -21l250 -450l250 450q12 20 37 21h270z" glyph-name="yen" horiz-adv-x="1286" unicode="¥"/><glyph d="M397 1638q31 0 31 -30v-574q0 -31 -31 -30h-256q-31 0 -30 30v574q0 31 30 30h256zM397 246q31 0 31 -31v-573q0 -31 -31 -31h-256q-31 0 -30 31v573q0 31 30 31h256z" glyph-name="brokenbar" horiz-adv-x="538" unicode="¦"/><glyph d="M1358 608q0 -248 -230 -366q-14 -188 -168.5 -295t-357.5 -107q-174 0 -313 67.5t-217 168.5q-25 29 0 57l110 152q20 33 64 2q199 -139 360 -140q92 0 145.5 34t53.5 98q0 53 -52.5 92t-130 59.5t-169 54t-169 73.5t-130 123t-52.5 198q0 260 230 372 q14 182 151.5 284.5t327.5 102.5q262 0 489 -213q23 -23 -2 -59l-110 -147q-18 -27 -64 4q-96 59 -162.5 84.5t-142.5 25.5q-82 0 -123 -34.5t-41 -84t39 -83t100.5 -55t137.5 -42t150.5 -51.5t136 -74t100.5 -121t39 -180zM428 883q0 -61 65.5 -102.5t152.5 -61 t196.5 -62.5t175.5 -102q14 25 14 55q0 59 -65.5 100.5t-152.5 63t-195.5 65.5t-174.5 101q-16 -28 -16 -57z" glyph-name="section" horiz-adv-x="1417" unicode="§"/><glyph d="M161.5 1139q-61.5 0 -106.5 44t-45 109q0 63 45 107.5t106.5 44.5t106.5 -44t45 -108q0 -66 -45 -109.5t-106.5 -43.5zM626.5 1139q-61.5 0 -106.5 44t-45 109q0 63 45 107.5t106.5 44.5t106.5 -44t45 -108q0 -66 -45 -109.5t-106.5 -43.5z" glyph-name="dieresis" horiz-adv-x="788" unicode="¨"/><glyph d="M659.5 279q-243.5 0 -416.5 172t-173 413.5t173 413.5t416.5 172t417.5 -172t174 -413.5t-174 -413.5t-417.5 -172zM659 451q170 0 289 120.5t119 292.5t-119 293t-289 121t-287.5 -121t-117.5 -293t117.5 -292.5t287.5 -120.5zM840 688q18 -25 -4 -43q-66 -59 -162 -59 q-113 0 -196 82t-83 196q0 117 83 198t196 81q92 0 166 -60q18 -16 0 -43l-58 -61q-14 -16 -41 -2q-29 14 -63 14q-51 0 -88 -36.5t-37 -90t37 -90.5t88 -37q20 0 63 15q29 12 41 -2z" glyph-name="copyright" horiz-adv-x="1320" unicode="©"/><glyph d="M604 1434h193v-736h-193l-16 50q-70 -49 -156 -50q-156 0 -264.5 108.5t-108.5 264.5t108.5 264.5t264.5 108.5q86 0 156 -49zM432.5 913q67.5 0 113.5 45.5t46 113t-46 114.5t-113.5 47t-113 -47t-45.5 -114.5t45.5 -113t113 -45.5z" glyph-name="ordfeminine" horiz-adv-x="856" unicode="ª"/><glyph d="M72 647q0 23 16 37l225 203q14 12 25.5 6t11.5 -27v-153q0 -23 -16 -37l-137 -117l137 -117q16 -14 16 -36v-154q0 -20 -11 -25.5t-26 6.5l-225 201q-16 14 -16 37v176zM426 647q0 23 16 37l226 203q14 12 25.5 6t11.5 -27v-153q0 -23 -17 -37l-137 -117l137 -117 q16 -14 17 -36v-154q0 -20 -11.5 -25.5t-25.5 6.5l-226 201q-16 14 -16 37v176z" glyph-name="guillemotleft" horiz-adv-x="776" unicode="«"/><glyph d="M963 645q31 0 30 -31v-331q0 -31 -30 -31h-240q-31 0 -31 31v112h-559q-31 0 -31 31v188q0 31 31 31h830z" glyph-name="logicalnot" horiz-adv-x="1095" unicode="¬"/><glyph d="M676 688q31 0 31 -31v-186q0 -31 -31 -31h-553q-31 0 -31 31v186q0 31 31 31h553z" glyph-name="uni00AD" horiz-adv-x="798" unicode="­"/><glyph d="M659.5 1450q243.5 0 417.5 -172t174 -413.5t-174 -413.5t-417.5 -172t-416.5 172t-173 413.5t173 413.5t416.5 172zM659 451q170 0 289 120.5t119 292.5t-119 293t-289 121t-287.5 -121t-117.5 -293t117.5 -292.5t287.5 -120.5zM805 766l137 -137q14 -18 -6 -19h-137 q-14 0 -21 6l-135 140h-68v-131q0 -14 -14 -15h-121q-16 0 -16 15v479q0 14 16 14h277q225 0 225 -180q0 -141 -137 -172zM719 997h-144v-118h144q66 0 66 59t-66 59z" glyph-name="registered" horiz-adv-x="1320" unicode="®"/><glyph d="M676 1434q31 0 31 -31v-176q0 -31 -31 -31h-635q-31 0 -31 31v176q0 31 31 31h635z" glyph-name="macron" horiz-adv-x="716" unicode="¯"/><glyph d="M407.5 1473q124.5 0 214 -88.5t89.5 -210.5q0 -125 -89.5 -214.5t-214 -89.5t-215 89.5t-90.5 214.5q0 123 90.5 211t215 88zM408 1290q-59 0 -88 -38t-29 -78q0 -45 28.5 -83t88.5 -38q57 0 86.5 38.5t29.5 82.5q0 39 -29.5 77.5t-86.5 38.5z" glyph-name="degree" horiz-adv-x="813" unicode="°"/><glyph d="M164 553q-31 0 -31 31v161q0 31 31 31h231v232q0 31 31 30h162q31 0 30 -30v-232h230q31 0 31 -31v-161q0 -31 -31 -31h-230v-231q0 -31 -30 -31h-162q-31 0 -31 31v231h-231zM868 223q31 0 31 -30v-162q0 -31 -31 -31h-725q-31 0 -30 31v162q0 31 30 30h725z" glyph-name="plusminus" horiz-adv-x="1011" unicode="±"/><glyph d="M242 1442q70 0 121 -46t51 -108q0 -53 -30 -96t-110 -125l-96 -100h242v-66h-344v66l139 141q57 59 74.5 78.5t32 46.5t14.5 55q0 37 -28.5 63.5t-65.5 26.5q-39 0 -68 -26.5t-29 -75.5v-29h-75v29q0 72 50 119t122 47z" glyph-name="uni00B2" horiz-adv-x="489" unicode="²"/><glyph d="M258 1440q66 0 115 -42t49 -98q0 -66 -62 -108q86 -37 86 -135q0 -70 -56 -117t-132 -47q-84 0 -138 55.5t-48 130.5h78q-10 -47 23.5 -84t84.5 -37q45 0 78 28t33 71q0 57 -41 79.5t-111 10.5v65q129 6 129 88q0 31 -25.5 53.5t-62.5 22.5q-45 0 -71.5 -31.5 t-22.5 -84.5h-78q-8 76 43 128t129 52z" glyph-name="uni00B3" horiz-adv-x="518" unicode="³"/><glyph d="M393 1491q41 0 25 -35l-123 -258q-10 -25 -35 -24h-221q-41 0 -25 34l123 258q10 25 35 25h221z" glyph-name="acute" horiz-adv-x="432" unicode="´"/><glyph d="M1030 1004q31 0 31 -31v-942q0 -31 -31 -31h-237q-27 0 -31 31l-8 108q-117 -166 -291 -166q-39 0 -76 7v-338q0 -31 -31 -31h-245q-31 0 -31 31v1331q0 31 31 31h245q31 0 31 -31v-506q0 -111 52.5 -159t123.5 -48q90 0 140.5 56.5t50.5 121.5v535q0 31 30 31h246z" glyph-name="uni00B5" horiz-adv-x="1150" unicode="µ"/><glyph d="M602 1434h436q31 0 31 -31v-1372q0 -31 -31 -31h-256q-31 0 -30 31v452h-150q-252 0 -392 130t-140 345.5t140 345.5t392 130zM1255 1403q0 31 31 31h256q31 0 31 -31v-1372q0 -31 -31 -31h-256q-31 0 -31 31v1372zM608 764h144v389h-144q-98 0 -166.5 -45t-68.5 -149.5 t68.5 -149.5t166.5 -45z" glyph-name="paragraph" horiz-adv-x="1683" unicode="¶"/><glyph d="M238 408q-70 0 -118 48t-48 117q0 68 48 116t118 48q68 0 115.5 -48t47.5 -116q0 -70 -47.5 -117.5t-115.5 -47.5z" glyph-name="periodcentered" horiz-adv-x="520" unicode="·"/><glyph d="M215 -66q76 -6 131 -51t55 -121q0 -131 -109.5 -182t-262.5 -29q-18 2 -19 23v107q0 20 23 20q168 -18 168 49q0 16 -21.5 27.5t-58.5 13.5t-86 -12q-25 -10 -25 14v111q0 18 10 24l78 72h193z" glyph-name="cedilla" horiz-adv-x="411" unicode="¸"/><glyph d="M190 1436v-535h-75v461h-56v74h131z" glyph-name="uni00B9" horiz-adv-x="280" unicode="¹"/><glyph d="M432 698q-156 0 -264.5 108.5t-108.5 264.5t108.5 264.5t264.5 108.5t264.5 -108.5t108.5 -264.5t-108.5 -264.5t-264.5 -108.5zM432.5 913q67.5 0 113.5 45.5t46 113t-46 114.5t-113.5 47t-113 -47t-45.5 -114.5t45.5 -113t113 -45.5z" glyph-name="ordmasculine" horiz-adv-x="864" unicode="º"/><glyph d="M350 647v-176q0 -23 -16 -37l-225 -201q-14 -12 -25.5 -7t-11.5 26v154q0 23 16 36l137 117l-137 117q-16 14 -16 37v153q0 20 11 26.5t26 -5.5l225 -203q16 -14 16 -37zM705 647v-176q0 -23 -17 -37l-225 -201q-14 -12 -25.5 -7t-11.5 26v154q0 23 16 36l138 117 l-138 117q-16 14 -16 37v153q0 20 11.5 26.5t25.5 -5.5l225 -203q17 -14 17 -37z" glyph-name="guillemotright" horiz-adv-x="776" unicode="»"/><glyph d="M199 1436v-535h-76v461h-55v74h131zM1061 1434l-881 -1434h-98l893 1434h86zM1069 535v-316h55v-63h-55v-156h-76v156h-270l270 379h76zM993 424l-143 -205h143v205z" glyph-name="onequarter" horiz-adv-x="1185" unicode="¼"/><glyph d="M199 1436v-535h-76v461h-55v74h131zM1061 1434l-881 -1434h-98l893 1434h86zM895 541q70 0 121 -46t51 -108q0 -53 -29.5 -96t-109.5 -125l-97 -100h242v-66h-344v66l139 141q57 59 75 78.5t32 46t14 55.5q0 37 -28.5 63.5t-65.5 26.5q-39 0 -67.5 -26.5t-28.5 -75.5v-29 h-76v29q0 72 50 119t122 47z" glyph-name="onehalf" horiz-adv-x="1134" unicode="½"/><glyph d="M248 1440q66 0 115 -42t49 -98q0 -66 -62 -108q86 -37 86 -135q0 -70 -56 -117t-132 -47q-84 0 -138.5 55.5t-48.5 130.5h78q-10 -47 24 -84t85 -37q45 0 77.5 28t32.5 71q0 57 -41 79.5t-110 10.5v65q129 6 129 88q0 31 -25.5 53.5t-62.5 22.5q-45 0 -71.5 -31.5 t-22.5 -84.5h-78q-8 76 43 128t129 52zM1118 1434l-880 -1434h-99l893 1434h86zM1106 535v-316h55v-63h-55v-156h-76v156h-270l270 379h76zM1030 424l-143 -205h143v205z" glyph-name="threequarters" horiz-adv-x="1222" unicode="¾"/><glyph d="M559 762q-68 0 -116 48t-48 116q0 70 48.5 118t115.5 48q70 0 118 -48.5t48 -117.5q0 -68 -48 -116t-118 -48zM1012 -106q25 -33 2 -62q-178 -217 -473 -217q-186 0 -327.5 110.5t-141.5 282.5q0 139 76.5 231.5t271.5 192.5l16 162q4 31 31 31h190q27 0 31 -31l21 -287 q2 -25 -27 -35q-166 -51 -225.5 -102t-59.5 -115q0 -61 52.5 -96t115.5 -35q131 0 262 117q37 33 64 0z" glyph-name="questiondown" horiz-adv-x="1077" unicode="¿"/><glyph d="M532 1567l-122 258q-16 35 24 35h221q25 0 35 -25l123 -258q16 -35 -25 -35h-221q-25 0 -35 25zM1343 35q14 -35 -24 -35h-266q-27 0 -35 25l-74 227h-502l-73 -227q-8 -25 -35 -25h-266q-39 0 -25 35l496 1374q10 25 34 25h236q31 0 39 -25zM532 520h324l-162 496z" glyph-name="Agrave" unicode="À"/><glyph d="M602 1542q-41 0 -24 35l122 258q10 25 35 25h221q41 0 25 -35l-123 -258q-10 -25 -35 -25h-221zM1343 35q14 -35 -24 -35h-266q-27 0 -35 25l-74 227h-502l-73 -227q-8 -25 -35 -25h-266q-39 0 -25 35l496 1374q10 25 34 25h236q31 0 39 -25zM532 520h324l-162 496z" glyph-name="Aacute" unicode="Á"/><glyph d="M397 1581q-20 0 -25 11.5t7 25.5l201 225q14 16 36 17h177q23 0 36 -17l203 -225q12 -14 6 -25.5t-26 -11.5h-154q-23 0 -37 16l-116 138l-117 -138q-14 -16 -37 -16h-154zM1343 35q14 -35 -24 -35h-266q-27 0 -35 25l-74 227h-502l-73 -227q-8 -25 -35 -25h-266 q-39 0 -25 35l496 1374q10 25 34 25h236q31 0 39 -25zM532 520h324l-162 496z" glyph-name="Acircumflex" unicode="Â"/><glyph d="M334 1661q-20 0 -21 29q8 106 69.5 161.5t158.5 55.5q90 0 193.5 -73t152.5 -73q72 0 96 56q6 16 23 16h69q20 0 21 -21q-6 -111 -68.5 -168t-163.5 -57q-55 0 -106 22.5t-84 50.5t-75 50.5t-79 22.5q-70 0 -94 -56q-6 -16 -23 -16h-69zM1343 35q14 -35 -24 -35h-266 q-27 0 -35 25l-74 227h-502l-73 -227q-8 -25 -35 -25h-266q-39 0 -25 35l496 1374q10 25 34 25h236q31 0 39 -25zM532 520h324l-162 496z" glyph-name="Atilde" unicode="Ã"/><glyph d="M471 1569q-61 0 -106.5 44t-45.5 109q0 63 45.5 107.5t106.5 44.5t106.5 -44t45.5 -108q0 -66 -45.5 -109.5t-106.5 -43.5zM935.5 1569q-61.5 0 -106.5 44t-45 109q0 63 45 107.5t106.5 44.5t106.5 -44t45 -108q0 -66 -45 -109.5t-106.5 -43.5zM1343 35q14 -35 -24 -35 h-266q-27 0 -35 25l-74 227h-502l-73 -227q-8 -25 -35 -25h-266q-39 0 -25 35l496 1374q10 25 34 25h236q31 0 39 -25zM532 520h324l-162 496z" glyph-name="Adieresis" unicode="Ä"/><glyph d="M707 1524q-92 0 -158 63.5t-66 151.5q0 90 64.5 153.5t159.5 63.5q86 0 150.5 -64.5t64.5 -152.5t-64.5 -151.5t-150.5 -63.5zM702 1788q-18 0 -32.5 -13.5t-14.5 -33.5q0 -18 14.5 -32.5t32.5 -14.5q20 0 35 14t15 33q0 20 -15 33.5t-35 13.5zM1343 35q14 -35 -24 -35 h-266q-27 0 -35 25l-74 227h-502l-73 -227q-8 -25 -35 -25h-266q-39 0 -25 35l496 1374q10 25 34 25h236q31 0 39 -25zM532 520h324l-162 496z" glyph-name="Aring" unicode="Å"/><glyph d="M1604 281q31 0 30 -31v-219q0 -31 -30 -31h-770q-31 0 -31 31v248h-334l-98 -254q-10 -25 -35 -25h-268q-39 0 -25 35l578 1374q10 25 34 25h947q31 0 30 -31v-219q0 -31 -30 -31h-482v-281h453q31 0 31 -30v-219q0 -31 -31 -31h-453v-311h484zM573 547h230v596z" glyph-name="AE" horiz-adv-x="1736" unicode="Æ"/><glyph d="M1159 397l158 -170q20 -23 0 -43q-178 -186 -447 -209l-47 -41q76 -6 131.5 -51t55.5 -121q0 -131 -109.5 -182t-263.5 -29q-18 2 -19 23v107q0 20 23 20q168 -18 168 49q0 16 -21.5 27.5t-58.5 13.5t-86 -12q-25 -10 -25 14v111q0 18 11 24l59 56q-266 43 -442 246.5 t-176 480.5q0 309 216 524t525 215q303 0 506 -209q18 -20 0 -43l-158 -172q-18 -23 -43 -2q-135 115 -307 115q-174 0 -293 -123t-119 -305q0 -180 119 -303t293 -123q172 0 307 114q25 21 43 -2z" glyph-name="Ccedilla" unicode="Ç"/><glyph d="M264 1860h221q25 0 35 -25l123 -258q16 -35 -25 -35h-221q-25 0 -35 25l-122 258q-17 35 24 35zM911 281q31 0 31 -31v-219q0 -31 -31 -31h-770q-31 0 -30 31v1372q0 31 30 31h768q31 0 31 -31v-219q0 -31 -31 -31h-481v-281h453q31 0 30 -30v-219q0 -31 -30 -31h-453 v-311h483z" glyph-name="Egrave" horiz-adv-x="1044" unicode="È"/><glyph d="M786 1860q41 0 25 -35l-123 -258q-10 -25 -35 -25h-221q-41 0 -24 35l122 258q10 25 35 25h221zM911 281q31 0 31 -31v-219q0 -31 -31 -31h-770q-31 0 -30 31v1372q0 31 30 31h768q31 0 31 -31v-219q0 -31 -31 -31h-481v-281h453q31 0 30 -30v-219q0 -31 -30 -31h-453 v-311h483z" glyph-name="Eacute" horiz-adv-x="1044" unicode="É"/><glyph d="M623 1860q23 0 36 -17l203 -225q12 -14 6 -25.5t-26 -11.5h-154q-23 0 -37 16l-116 138l-117 -138q-14 -16 -37 -16h-154q-20 0 -25 11.5t7 25.5l201 225q14 16 36 17h177zM911 281q31 0 31 -31v-219q0 -31 -31 -31h-770q-31 0 -30 31v1372q0 31 30 31h768q31 0 31 -31 v-219q0 -31 -31 -31h-481v-281h453q31 0 30 -30v-219q0 -31 -30 -31h-453v-311h483z" glyph-name="Ecircumflex" horiz-adv-x="1044" unicode="Ê"/><glyph d="M301 1569q-61 0 -106 44t-45 109q0 63 45 107.5t106 44.5t106.5 -44t45.5 -108q0 -66 -45.5 -109.5t-106.5 -43.5zM766 1569q-61 0 -106.5 44t-45.5 109q0 63 45.5 107.5t106.5 44.5t106.5 -44t45.5 -108q0 -66 -45.5 -109.5t-106.5 -43.5zM911 281q31 0 31 -31v-219 q0 -31 -31 -31h-770q-31 0 -30 31v1372q0 31 30 31h768q31 0 31 -31v-219q0 -31 -31 -31h-481v-281h453q31 0 30 -30v-219q0 -31 -30 -31h-453v-311h483z" glyph-name="Edieresis" horiz-adv-x="1044" unicode="Ë"/><glyph d="M0 1860h221q25 0 35 -25l123 -258q16 -35 -25 -35h-221q-25 0 -35 25l-123 258q-16 35 25 35zM111 1403q0 31 30 31h256q31 0 31 -31v-1372q0 -31 -31 -31h-256q-31 0 -30 31v1372z" glyph-name="Igrave" horiz-adv-x="538" unicode="Ì"/><glyph d="M522 1860q41 0 25 -35l-123 -258q-10 -25 -35 -25h-221q-41 0 -25 35l123 258q10 25 35 25h221zM111 1403q0 31 30 31h256q31 0 31 -31v-1372q0 -31 -31 -31h-256q-31 0 -30 31v1372z" glyph-name="Iacute" horiz-adv-x="538" unicode="Í"/><glyph d="M358 1860q23 0 37 -17l203 -225q12 -14 6 -25.5t-26 -11.5h-154q-23 0 -37 16l-117 138l-116 -138q-14 -16 -37 -16h-154q-20 0 -25.5 11.5t7.5 25.5l200 225q14 16 37 17h176zM111 1403q0 31 30 31h256q31 0 31 -31v-1372q0 -31 -31 -31h-256q-31 0 -30 31v1372z" glyph-name="Icircumflex" horiz-adv-x="538" unicode="Î"/><glyph d="M36.5 1569q-61.5 0 -106.5 44t-45 109q0 63 45 107.5t106.5 44.5t106.5 -44t45 -108q0 -66 -45 -109.5t-106.5 -43.5zM501.5 1569q-61.5 0 -106.5 44t-45 109q0 63 45 107.5t106.5 44.5t106.5 -44t45 -108q0 -66 -45 -109.5t-106.5 -43.5zM111 1403q0 31 30 31h256 q31 0 31 -31v-1372q0 -31 -31 -31h-256q-31 0 -30 31v1372z" glyph-name="Idieresis" horiz-adv-x="538" unicode="Ï"/><glyph d="M586 1434q356 0 554.5 -203t198.5 -514t-198.5 -514t-554.5 -203h-428q-31 0 -31 31v553h-66q-31 0 -30 30v177q0 31 30 30h66v582q0 31 31 31h428zM586 281q213 0 321.5 112.5t108.5 323.5t-108.5 323.5t-321.5 112.5h-142v-332h252q31 0 31 -30v-177q0 -31 -31 -30 h-252v-303h142z" glyph-name="Eth" horiz-adv-x="1396" unicode="Ð"/><glyph d="M330 1661q-20 0 -21 29q8 106 69.5 161.5t158.5 55.5q90 0 193.5 -73t152.5 -73q72 0 96 56q6 16 22 16h70q20 0 21 -21q-6 -111 -68.5 -168t-163.5 -57q-55 0 -106.5 22.5t-84 50.5t-74.5 50.5t-79 22.5q-70 0 -94 -56q-6 -16 -23 -16h-69zM1260 1434q31 0 30 -31v-1372 q0 -31 -30 -31h-291q-25 0 -37 20l-504 904v-893q0 -31 -31 -31h-256q-31 0 -30 31v1372q0 31 30 31h289q25 0 37 -21l506 -905v895q0 31 31 31h256z" glyph-name="Ntilde" horiz-adv-x="1400" unicode="Ñ"/><glyph d="M537 1860h221q25 0 35 -25l122 -258q16 -35 -24 -35h-221q-25 0 -35 25l-123 258q-16 35 25 35zM807 -27q-305 0 -521 215t-216 522.5t216 523.5t521 216q307 0 523 -216t216 -523.5t-216 -522.5t-523 -215zM807 283q176 0 298 123.5t122 304.5q0 182 -122 307t-298 125 t-297 -125t-121 -307q0 -180 121 -304t297 -124z" glyph-name="Ograve" horiz-adv-x="1615" unicode="Ò"/><glyph d="M1059 1860q41 0 24 -35l-122 -258q-10 -25 -35 -25h-221q-41 0 -25 35l123 258q10 25 35 25h221zM807 -27q-305 0 -521 215t-216 522.5t216 523.5t521 216q307 0 523 -216t216 -523.5t-216 -522.5t-523 -215zM807 283q176 0 298 123.5t122 304.5q0 182 -122 307t-298 125 t-297 -125t-121 -307q0 -180 121 -304t297 -124z" glyph-name="Oacute" horiz-adv-x="1615" unicode="Ó"/><glyph d="M895 1860q23 0 37 -17l203 -225q12 -14 6 -25.5t-27 -11.5h-153q-23 0 -37 16l-117 138l-117 -138q-14 -16 -37 -16h-153q-20 0 -25.5 11.5t6.5 25.5l201 225q14 16 37 17h176zM807 -27q-305 0 -521 215t-216 522.5t216 523.5t521 216q307 0 523 -216t216 -523.5 t-216 -522.5t-523 -215zM807 283q176 0 298 123.5t122 304.5q0 182 -122 307t-298 125t-297 -125t-121 -307q0 -180 121 -304t297 -124z" glyph-name="Ocircumflex" horiz-adv-x="1615" unicode="Ô"/><glyph d="M643 1907q57 0 109.5 -22.5t85 -50.5t73.5 -50.5t78 -22.5q72 0 96 56q6 16 23 16h70q20 0 20 -21q-6 -111 -68.5 -168t-162.5 -57q-55 0 -106.5 22.5t-84.5 50.5t-75 50.5t-78 22.5q-70 0 -95 -56q-6 -16 -22 -16h-70q-20 0 -20 29q8 106 69.5 161.5t157.5 55.5z M807 -27q-305 0 -521 215t-216 522.5t216 523.5t521 216q307 0 523 -216t216 -523.5t-216 -522.5t-523 -215zM807 283q176 0 298 123.5t122 304.5q0 182 -122 307t-298 125t-297 -125t-121 -307q0 -180 121 -304t297 -124z" glyph-name="Otilde" horiz-adv-x="1615" unicode="Õ"/><glyph d="M573.5 1569q-61.5 0 -106.5 44t-45 109q0 63 45 107.5t106.5 44.5t106.5 -44t45 -108q0 -66 -45 -109.5t-106.5 -43.5zM1038.5 1569q-61.5 0 -106.5 44t-45 109q0 63 45 107.5t106.5 44.5t106.5 -44t45 -108q0 -66 -45 -109.5t-106.5 -43.5zM807 -27q-305 0 -521 215 t-216 522.5t216 523.5t521 216q307 0 523 -216t216 -523.5t-216 -522.5t-523 -215zM807 283q176 0 298 123.5t122 304.5q0 182 -122 307t-298 125t-297 -125t-121 -307q0 -180 121 -304t297 -124z" glyph-name="Odieresis" horiz-adv-x="1615" unicode="Ö"/><glyph d="M602 586l162 -162q20 -23 0 -43l-115 -115q-23 -25 -43 0l-162 162l-163 -164q-23 -23 -43 0l-115 115q-25 20 0 43l164 164l-164 164q-25 20 0 43l115 114q20 23 43 0l163 -164l164 164q20 20 43 0l115 -114q20 -23 0 -43z" glyph-name="multiply" horiz-adv-x="886" unicode="×"/><glyph d="M1239 1311q141 -102 224 -260t83 -340q0 -307 -216 -522.5t-523 -215.5q-90 0 -184 23l-35 -76q-10 -23 -35 -22h-238q-39 0 -22 36l84 179q-143 102 -225 258.5t-82 339.5q0 307 216 523t521 216q90 0 184 -23l35 76q10 23 35 23h239q39 0 23 -37zM389 710.5 q0 -182.5 123 -304.5l344 735q-16 2 -49 2q-176 0 -297 -125t-121 -307.5zM807 283q176 0 298 123.5t122 304.5q0 182 -123 309l-344 -735q14 -2 47 -2z" glyph-name="Oslash" horiz-adv-x="1615" unicode="Ø"/><glyph d="M383 1860h221q25 0 35 -25l123 -258q16 -35 -25 -35h-221q-25 0 -35 25l-123 258q-16 35 25 35zM1174 1434q31 0 30 -31v-846q0 -276 -152.5 -430t-398.5 -154q-248 0 -400.5 154t-152.5 430v846q0 31 31 31h256q31 0 31 -31v-846q0 -270 235 -270q115 0 174.5 69.5 t59.5 200.5v846q0 31 31 31h256z" glyph-name="Ugrave" horiz-adv-x="1304" unicode="Ù"/><glyph d="M905 1860q41 0 25 -35l-123 -258q-10 -25 -35 -25h-221q-41 0 -25 35l123 258q10 25 35 25h221zM1174 1434q31 0 30 -31v-846q0 -276 -152.5 -430t-398.5 -154q-248 0 -400.5 154t-152.5 430v846q0 31 31 31h256q31 0 31 -31v-846q0 -270 235 -270q115 0 174.5 69.5 t59.5 200.5v846q0 31 31 31h256z" glyph-name="Uacute" horiz-adv-x="1304" unicode="Ú"/><glyph d="M741 1860q23 0 37 -17l203 -225q12 -14 6 -25.5t-26 -11.5h-154q-23 0 -37 16l-117 138l-116 -138q-14 -16 -37 -16h-154q-20 0 -25.5 11.5t7.5 25.5l200 225q14 16 37 17h176zM1174 1434q31 0 30 -31v-846q0 -276 -152.5 -430t-398.5 -154q-248 0 -400.5 154t-152.5 430 v846q0 31 31 31h256q31 0 31 -31v-846q0 -270 235 -270q115 0 174.5 69.5t59.5 200.5v846q0 31 31 31h256z" glyph-name="Ucircumflex" horiz-adv-x="1304" unicode="Û"/><glyph d="M419.5 1569q-61.5 0 -106.5 44t-45 109q0 63 45 107.5t106.5 44.5t106.5 -44t45 -108q0 -66 -45 -109.5t-106.5 -43.5zM884.5 1569q-61.5 0 -106.5 44t-45 109q0 63 45 107.5t106.5 44.5t106.5 -44t45 -108q0 -66 -45 -109.5t-106.5 -43.5zM1174 1434q31 0 30 -31v-846 q0 -276 -152.5 -430t-398.5 -154q-248 0 -400.5 154t-152.5 430v846q0 31 31 31h256q31 0 31 -31v-846q0 -270 235 -270q115 0 174.5 69.5t59.5 200.5v846q0 31 31 31h256z" glyph-name="Udieresis" horiz-adv-x="1304" unicode="Ü"/><glyph d="M541 1542q-41 0 -25 35l123 258q10 25 35 25h221q41 0 25 -35l-123 -258q-10 -25 -35 -25h-221zM1200 1434q41 0 21 -37l-418 -738v-628q0 -31 -31 -31h-258q-31 0 -31 31v635l-417 731q-20 37 20 37h270q25 0 37 -21l250 -450l250 450q12 20 37 21h270z" glyph-name="Yacute" horiz-adv-x="1286" unicode="Ý"/><glyph d="M596 1192q258 0 396 -123t138 -352.5t-138 -352t-396 -122.5h-168v-211q0 -31 -31 -31h-256q-31 0 -30 31v1372q0 31 30 31h256q31 0 31 -31v-211h168zM573 522q127 0 190.5 42t63.5 152.5t-63.5 152.5t-190.5 42h-145v-389h145z" glyph-name="Thorn" horiz-adv-x="1179" unicode="Þ"/><glyph d="M889 737q133 -14 229 -99t96 -230q0 -219 -141 -313.5t-440 -94.5h-84q-31 0 -31 31v174q0 31 31 31h84q145 0 215 41.5t70 142.5q0 96 -76 130t-242 34h-51q-31 0 -31 30v174q0 31 31 31h51q236 0 236 187q0 72 -57.5 110.5t-151.5 38.5q-102 0 -155.5 -36t-53.5 -128 v-960q0 -31 -31 -31h-246q-31 0 -30 31v960q0 217 146 330t370 113q215 0 360.5 -101.5t145.5 -285.5q0 -137 -77 -221.5t-167 -88.5z" glyph-name="germandbls" horiz-adv-x="1261" unicode="ß"/><glyph d="M414 1137l-123 258q-16 35 24 35h222q25 0 34 -25l123 -258q16 -35 -24 -35h-221q-25 0 -35 25zM1090 1004q31 0 30 -31v-942q0 -31 -30 -31h-224q-27 0 -30 31l-7 73q-117 -131 -286 -131q-207 0 -345.5 153t-138.5 374t138.5 373.5t345.5 152.5q166 0 286 -137l7 84 q4 31 30 31h224zM582 254q96 0 160.5 72.5t64.5 175.5q0 100 -64.5 173t-160.5 73q-98 0 -163 -71t-65 -175q0 -106 65 -177t163 -71z" glyph-name="agrave" horiz-adv-x="1210" unicode="à"/><glyph d="M483 1112q-41 0 -24 35l123 258q10 25 34 25h222q41 0 24 -35l-123 -258q-10 -25 -34 -25h-222zM1090 1004q31 0 30 -31v-942q0 -31 -30 -31h-224q-27 0 -30 31l-7 73q-117 -131 -286 -131q-207 0 -345.5 153t-138.5 374t138.5 373.5t345.5 152.5q166 0 286 -137l7 84 q4 31 30 31h224zM582 254q96 0 160.5 72.5t64.5 175.5q0 100 -64.5 173t-160.5 73q-98 0 -163 -71t-65 -175q0 -106 65 -177t163 -71z" glyph-name="aacute" horiz-adv-x="1210" unicode="á"/><glyph d="M279 1151q-20 0 -25.5 11.5t6.5 25.5l201 225q14 16 37 17h176q23 0 37 -17l202 -225q12 -14 6 -25.5t-26 -11.5h-154q-23 0 -37 16l-116 138l-117 -138q-14 -16 -37 -16h-153zM1090 1004q31 0 30 -31v-942q0 -31 -30 -31h-224q-27 0 -30 31l-7 73q-117 -131 -286 -131 q-207 0 -345.5 153t-138.5 374t138.5 373.5t345.5 152.5q166 0 286 -137l7 84q4 31 30 31h224zM582 254q96 0 160.5 72.5t64.5 175.5q0 100 -64.5 173t-160.5 73q-98 0 -163 -71t-65 -175q0 -106 65 -177t163 -71z" glyph-name="acircumflex" horiz-adv-x="1210" unicode="â"/><glyph d="M215 1231q-20 0 -20 29q8 106 69.5 161.5t157.5 55.5q57 0 109.5 -22.5t85 -50.5t73.5 -50.5t78 -22.5q72 0 96 55q6 16 23 17h69q20 0 21 -21q-6 -111 -68.5 -168t-163.5 -57q-55 0 -106 22.5t-84 50t-75 50.5t-79 23q-70 0 -94 -56q-6 -16 -22 -16h-70zM1090 1004 q31 0 30 -31v-942q0 -31 -30 -31h-224q-27 0 -30 31l-7 73q-117 -131 -286 -131q-207 0 -345.5 153t-138.5 374t138.5 373.5t345.5 152.5q166 0 286 -137l7 84q4 31 30 31h224zM582 254q96 0 160.5 72.5t64.5 175.5q0 100 -64.5 173t-160.5 73q-98 0 -163 -71t-65 -175 q0 -106 65 -177t163 -71z" glyph-name="atilde" horiz-adv-x="1210" unicode="ã"/><glyph d="M352.5 1139q-61.5 0 -106.5 44t-45 109q0 63 45 107.5t106.5 44.5t106.5 -44t45 -108q0 -66 -45 -109.5t-106.5 -43.5zM817.5 1139q-61.5 0 -106.5 44t-45 109q0 63 45 107.5t106.5 44.5t106.5 -44t45 -108q0 -66 -45 -109.5t-106.5 -43.5zM1090 1004q31 0 30 -31v-942 q0 -31 -30 -31h-224q-27 0 -30 31l-7 73q-117 -131 -286 -131q-207 0 -345.5 153t-138.5 374t138.5 373.5t345.5 152.5q166 0 286 -137l7 84q4 31 30 31h224zM582 254q96 0 160.5 72.5t64.5 175.5q0 100 -64.5 173t-160.5 73q-98 0 -163 -71t-65 -175q0 -106 65 -177 t163 -71z" glyph-name="adieresis" horiz-adv-x="1210" unicode="ä"/><glyph d="M588 1094q-92 0 -157.5 63.5t-65.5 151.5q0 90 64.5 153.5t158.5 63.5q86 0 150.5 -64.5t64.5 -152.5t-64.5 -151.5t-150.5 -63.5zM584 1358q-18 0 -32.5 -13.5t-14.5 -33.5q0 -18 14 -32.5t33 -14.5q20 0 34.5 14t14.5 33q0 20 -14.5 33.5t-34.5 13.5zM1090 1004 q31 0 30 -31v-942q0 -31 -30 -31h-224q-27 0 -30 31l-7 73q-117 -131 -286 -131q-207 0 -345.5 153t-138.5 374t138.5 373.5t345.5 152.5q166 0 286 -137l7 84q4 31 30 31h224zM582 254q96 0 160.5 72.5t64.5 175.5q0 100 -64.5 173t-160.5 73q-98 0 -163 -71t-65 -175 q0 -106 65 -177t163 -71z" glyph-name="aring" horiz-adv-x="1210" unicode="å"/><glyph d="M1804 518q0 -68 -14 -97.5t-59 -29.5h-609q43 -172 258 -172q100 0 195 60q25 16 45 -5l106 -102q18 -23 -4 -45q-154 -154 -372 -154q-125 0 -232 47q-6 -20 -28 -20h-224q-27 0 -30 31l-7 73q-117 -131 -286 -131q-207 0 -345.5 153t-138.5 374t138.5 373.5 t345.5 152.5q166 0 286 -137l7 84q4 31 30 31h224q23 0 28 -21q94 43 209 43q213 0 345 -147.5t132 -360.5zM1329 768q-76 0 -133 -43t-76 -125v-14h412q-14 88 -69.5 135t-133.5 47zM582 254q96 0 160.5 72.5t64.5 175.5q0 100 -64.5 173t-160.5 73q-98 0 -163 -71 t-65 -175q0 -106 65 -177t163 -71z" glyph-name="ae" horiz-adv-x="1863" unicode="æ"/><glyph d="M965 195q20 -20 2 -43q-141 -162 -353 -177l-47 -41q76 -6 131.5 -51t55.5 -121q0 -131 -109.5 -182t-263.5 -29q-18 2 -19 23v107q0 20 23 20q168 -18 168 49q0 16 -21.5 27.5t-58.5 13.5t-86 -12q-25 -10 -25 14v111q0 18 11 24l67 62q-168 45 -274.5 185t-106.5 325 q0 221 148.5 373.5t365.5 152.5q231 0 388 -178q18 -23 -3 -43l-147 -143q-20 -20 -45 2q-88 78 -184 77q-98 0 -163 -68.5t-65 -173t64.5 -173t163.5 -68.5q100 0 190 78q25 20 45 0z" glyph-name="ccedilla" horiz-adv-x="1140" unicode="ç"/><glyph d="M383 1137l-123 258q-16 35 25 35h221q25 0 35 -25l123 -258q16 -35 -25 -35h-221q-25 0 -35 25zM1047 518q0 -68 -14.5 -97.5t-59.5 -29.5h-608q43 -172 258 -172q100 0 194 60q25 16 45 -5l107 -102q18 -23 -4 -45q-154 -154 -373 -154q-233 0 -383 151.5t-150 375 t145.5 375t364.5 151.5q213 0 345.5 -147.5t132.5 -360.5zM571 768q-80 0 -137 -47t-74 -135h414q-14 88 -69.5 135t-133.5 47z" glyph-name="egrave" horiz-adv-x="1105" unicode="è"/><glyph d="M453 1112q-41 0 -25 35l123 258q10 25 35 25h221q41 0 24 -35l-122 -258q-10 -25 -35 -25h-221zM1047 518q0 -68 -14.5 -97.5t-59.5 -29.5h-608q43 -172 258 -172q100 0 194 60q25 16 45 -5l107 -102q18 -23 -4 -45q-154 -154 -373 -154q-233 0 -383 151.5t-150 375 t145.5 375t364.5 151.5q213 0 345.5 -147.5t132.5 -360.5zM571 768q-80 0 -137 -47t-74 -135h414q-14 88 -69.5 135t-133.5 47z" glyph-name="eacute" horiz-adv-x="1105" unicode="é"/><glyph d="M248 1151q-20 0 -25.5 11.5t6.5 25.5l201 225q14 16 37 17h176q23 0 37 -17l203 -225q12 -14 6 -25.5t-27 -11.5h-153q-23 0 -37 16l-117 138l-117 -138q-14 -16 -37 -16h-153zM1047 518q0 -68 -14.5 -97.5t-59.5 -29.5h-608q43 -172 258 -172q100 0 194 60q25 16 45 -5 l107 -102q18 -23 -4 -45q-154 -154 -373 -154q-233 0 -383 151.5t-150 375t145.5 375t364.5 151.5q213 0 345.5 -147.5t132.5 -360.5zM571 768q-80 0 -137 -47t-74 -135h414q-14 88 -69.5 135t-133.5 47z" glyph-name="ecircumflex" horiz-adv-x="1105" unicode="ê"/><glyph d="M321.5 1139q-61.5 0 -106.5 44t-45 109q0 63 45 107.5t106.5 44.5t106.5 -44t45 -108q0 -66 -45 -109.5t-106.5 -43.5zM786.5 1139q-61.5 0 -106.5 44t-45 109q0 63 45 107.5t106.5 44.5t106.5 -44t45 -108q0 -66 -45 -109.5t-106.5 -43.5zM1047 518q0 -68 -14.5 -97.5 t-59.5 -29.5h-608q43 -172 258 -172q100 0 194 60q25 16 45 -5l107 -102q18 -23 -4 -45q-154 -154 -373 -154q-233 0 -383 151.5t-150 375t145.5 375t364.5 151.5q213 0 345.5 -147.5t132.5 -360.5zM571 768q-80 0 -137 -47t-74 -135h414q-14 88 -69.5 135t-133.5 47z" glyph-name="edieresis" horiz-adv-x="1105" unicode="ë"/><glyph d="M-27 1430h222q25 0 34 -25l123 -258q16 -35 -24 -35h-222q-25 0 -34 25l-123 258q-17 35 24 35zM90 973q0 31 31 31h246q31 0 30 -31v-942q0 -31 -30 -31h-246q-31 0 -31 31v942z" glyph-name="igrave" horiz-adv-x="487" unicode="ì"/><glyph d="M496 1430q41 0 24 -35l-123 -258q-10 -25 -35 -25h-221q-41 0 -24 35l123 258q10 25 34 25h222zM90 973q0 31 31 31h246q31 0 30 -31v-942q0 -31 -30 -31h-246q-31 0 -31 31v942z" glyph-name="iacute" horiz-adv-x="487" unicode="í"/><glyph d="M332 1430q23 0 37 -17l202 -225q12 -14 6 -25.5t-26 -11.5h-154q-23 0 -37 16l-116 138l-117 -138q-14 -16 -37 -16h-153q-20 0 -25.5 11.5t6.5 25.5l201 225q14 16 37 17h176zM90 973q0 31 31 31h246q31 0 30 -31v-942q0 -31 -30 -31h-246q-31 0 -31 31v942z" glyph-name="icircumflex" horiz-adv-x="487" unicode="î"/><glyph d="M10.5 1139q-61.5 0 -106.5 44t-45 109q0 63 45 107.5t106.5 44.5t106.5 -44t45 -108q0 -66 -45 -109.5t-106.5 -43.5zM475.5 1139q-61.5 0 -106.5 44t-45 109q0 63 45 107.5t106.5 44.5t106.5 -44t45 -108q0 -66 -45 -109.5t-106.5 -43.5zM90 973q0 31 31 31h246 q31 0 30 -31v-942q0 -31 -30 -31h-246q-31 0 -31 31v942z" glyph-name="idieresis" horiz-adv-x="487" unicode="ï"/><glyph d="M1135 1346q33 4 32 -29v-156q0 -29 -28 -33l-19 -2v-1095q0 -31 -30 -31h-224q-27 0 -30 31l-7 73q-117 -131 -286 -131q-207 0 -345.5 153t-138.5 374t138.5 373.5t345.5 152.5q156 0 270 -119v183l-143 -17q-33 -4 -33 29v155q0 29 29 33l147 17v157q0 31 31 31h246 q31 0 30 -31v-121zM582 254q96 0 160.5 72.5t64.5 175.5q0 100 -64.5 173t-160.5 73q-98 0 -163 -71t-65 -175q0 -106 65 -177t163 -71z" glyph-name="eth" horiz-adv-x="1177" unicode="ð"/><glyph d="M209 1231q-20 0 -21 29q8 106 69.5 161.5t158.5 55.5q92 0 194.5 -73t151.5 -73q72 0 96 55q6 16 23 17h69q20 0 21 -21q-6 -111 -68.5 -168t-163.5 -57q-55 0 -106 22.5t-84 50t-75 50.5t-79 23q-70 0 -94 -56q-6 -16 -22 -16h-70zM707 1026q156 0 260 -117.5 t104 -314.5v-563q0 -31 -31 -31h-245q-31 0 -31 31v501q0 111 -50 160t-122 49q-90 0 -142.5 -65.5t-52.5 -118.5v-526q0 -31 -30 -31h-246q-31 0 -31 31v942q0 31 31 31h237q27 0 31 -31l8 -127q109 180 310 180z" glyph-name="ntilde" horiz-adv-x="1161" unicode="ñ"/><glyph d="M311 1430h221q25 0 35 -25l123 -258q16 -35 -24 -35h-222q-25 0 -34 25l-123 258q-17 35 24 35zM582 -27q-217 0 -370 153t-153 374t153 373.5t370 152.5q219 0 371.5 -152.5t152.5 -373.5t-152.5 -374t-371.5 -153zM582 258q96 0 161.5 68.5t65.5 173t-65.5 173 t-161.5 68.5q-94 0 -161 -68.5t-67 -173t67 -173t161 -68.5z" glyph-name="ograve" horiz-adv-x="1165" unicode="ò"/><glyph d="M834 1430q41 0 24 -35l-123 -258q-10 -25 -35 -25h-221q-41 0 -24 35l123 258q10 25 34 25h222zM582 -27q-217 0 -370 153t-153 374t153 373.5t370 152.5q219 0 371.5 -152.5t152.5 -373.5t-152.5 -374t-371.5 -153zM582 258q96 0 161.5 68.5t65.5 173t-65.5 173 t-161.5 68.5q-94 0 -161 -68.5t-67 -173t67 -173t161 -68.5z" glyph-name="oacute" horiz-adv-x="1165" unicode="ó"/><glyph d="M670 1430q23 0 37 -17l202 -225q12 -14 6 -25.5t-26 -11.5h-154q-23 0 -37 16l-116 138l-117 -138q-14 -16 -37 -16h-154q-20 0 -25 11.5t7 25.5l201 225q14 16 37 17h176zM582 -27q-217 0 -370 153t-153 374t153 373.5t370 152.5q219 0 371.5 -152.5t152.5 -373.5 t-152.5 -374t-371.5 -153zM582 258q96 0 161.5 68.5t65.5 173t-65.5 173t-161.5 68.5q-94 0 -161 -68.5t-67 -173t67 -173t161 -68.5z" glyph-name="ocircumflex" horiz-adv-x="1165" unicode="ô"/><glyph d="M418 1477q57 0 109.5 -22.5t85 -50.5t73.5 -50.5t78 -22.5q72 0 96 55q6 16 23 17h69q20 0 21 -21q-6 -111 -68.5 -168t-163.5 -57q-55 0 -106 22.5t-84 50t-75 50.5t-79 23q-70 0 -94 -56q-6 -16 -22 -16h-70q-20 0 -21 29q8 106 70 161.5t158 55.5zM582 -27 q-217 0 -370 153t-153 374t153 373.5t370 152.5q219 0 371.5 -152.5t152.5 -373.5t-152.5 -374t-371.5 -153zM582 258q96 0 161.5 68.5t65.5 173t-65.5 173t-161.5 68.5q-94 0 -161 -68.5t-67 -173t67 -173t161 -68.5z" glyph-name="otilde" horiz-adv-x="1165" unicode="õ"/><glyph d="M348.5 1139q-61.5 0 -106.5 44t-45 109q0 63 45 107.5t106.5 44.5t106.5 -44t45 -108q0 -66 -45 -109.5t-106.5 -43.5zM813 1139q-61 0 -106 44t-45 109q0 63 45 107.5t106 44.5t106.5 -44t45.5 -108q0 -66 -45.5 -109.5t-106.5 -43.5zM582 -27q-217 0 -370 153t-153 374 t153 373.5t370 152.5q219 0 371.5 -152.5t152.5 -373.5t-152.5 -374t-371.5 -153zM582 258q96 0 161.5 68.5t65.5 173t-65.5 173t-161.5 68.5q-94 0 -161 -68.5t-67 -173t67 -173t161 -68.5z" glyph-name="odieresis" horiz-adv-x="1165" unicode="ö"/><glyph d="M508 752q-70 0 -118 48t-48 118q0 68 48 115.5t118 47.5q68 0 116 -48t48 -115q0 -70 -48 -118t-116 -48zM868 696q31 0 31 -30v-162q0 -31 -31 -31h-725q-31 0 -30 31v162q0 31 30 30h725zM508 55q-70 0 -118 48.5t-48 117.5q0 68 48 116t118 48q68 0 116 -48t48 -116 q0 -70 -48 -118t-116 -48z" glyph-name="divide" horiz-adv-x="1011" unicode="÷"/><glyph d="M897 922q96 -72 152.5 -182.5t56.5 -239.5q0 -221 -152.5 -374t-371.5 -153q-45 0 -101 11l-47 -105q-8 -23 -35 -22h-190q-39 0 -23 37l82 184q-96 72 -152.5 182.5t-56.5 239.5q0 221 153 373.5t370 152.5q49 0 104 -10l47 104q8 23 35 23h188q39 0 23 -37zM354 500 q0 -78 39 -140l170 381q-90 -8 -149.5 -74.5t-59.5 -166.5zM602 258q88 10 147.5 76.5t59.5 165.5q0 78 -39 137z" glyph-name="oslash" horiz-adv-x="1165" unicode="ø"/><glyph d="M397 1137l-123 258q-16 35 25 35h221q25 0 35 -25l123 -258q16 -35 -25 -35h-221q-25 0 -35 25zM1030 1004q31 0 31 -31v-942q0 -31 -31 -31h-237q-27 0 -31 31l-8 108q-117 -166 -291 -166q-170 0 -276.5 117t-106.5 316v567q0 31 31 31h245q31 0 31 -31v-506 q0 -111 52.5 -159t123.5 -48q90 0 140.5 56.5t50.5 121.5v535q0 31 30 31h246z" glyph-name="ugrave" horiz-adv-x="1150" unicode="ù"/><glyph d="M467 1112q-41 0 -25 35l123 258q10 25 35 25h221q41 0 25 -35l-123 -258q-10 -25 -35 -25h-221zM1030 1004q31 0 31 -31v-942q0 -31 -31 -31h-237q-27 0 -31 31l-8 108q-117 -166 -291 -166q-170 0 -276.5 117t-106.5 316v567q0 31 31 31h245q31 0 31 -31v-506 q0 -111 52.5 -159t123.5 -48q90 0 140.5 56.5t50.5 121.5v535q0 31 30 31h246z" glyph-name="uacute" horiz-adv-x="1150" unicode="ú"/><glyph d="M262 1151q-20 0 -25.5 11.5t7.5 25.5l200 225q14 16 37 17h176q23 0 37 -17l203 -225q12 -14 6 -25.5t-26 -11.5h-154q-23 0 -37 16l-117 138l-116 -138q-14 -16 -37 -16h-154zM1030 1004q31 0 31 -31v-942q0 -31 -31 -31h-237q-27 0 -31 31l-8 108q-117 -166 -291 -166 q-170 0 -276.5 117t-106.5 316v567q0 31 31 31h245q31 0 31 -31v-506q0 -111 52.5 -159t123.5 -48q90 0 140.5 56.5t50.5 121.5v535q0 31 30 31h246z" glyph-name="ucircumflex" horiz-adv-x="1150" unicode="û"/><glyph d="M335.5 1139q-61.5 0 -106.5 44t-45 109q0 63 45 107.5t106.5 44.5t106.5 -44t45 -108q0 -66 -45 -109.5t-106.5 -43.5zM800.5 1139q-61.5 0 -106.5 44t-45 109q0 63 45 107.5t106.5 44.5t106.5 -44t45 -108q0 -66 -45 -109.5t-106.5 -43.5zM1030 1004q31 0 31 -31v-942 q0 -31 -31 -31h-237q-27 0 -31 31l-8 108q-117 -166 -291 -166q-170 0 -276.5 117t-106.5 316v567q0 31 31 31h245q31 0 31 -31v-506q0 -111 52.5 -159t123.5 -48q90 0 140.5 56.5t50.5 121.5v535q0 31 30 31h246z" glyph-name="udieresis" horiz-adv-x="1150" unicode="ü"/><glyph d="M829 1430q41 0 25 -35l-123 -258q-10 -25 -35 -25h-221q-41 0 -24 35l122 258q10 25 35 25h221zM1092 1004q37 0 24 -35l-530 -1334q-8 -25 -37 -24h-240q-43 0 -24 35l145 352l-387 971q-12 35 25 35h247q29 0 37 -25l226 -619l225 619q8 25 37 25h252z" glyph-name="yacute" horiz-adv-x="1159" unicode="ý"/><glyph d="M674 1026q207 0 345 -152.5t138 -373.5t-138 -374t-345 -153h-2h-4q-152 0 -265 107v-438q0 -31 -30 -31h-246q-31 0 -31 31v368q-6 8 -6 21v1433q0 31 31 31h246q31 0 30 -31v-557q115 119 271 119h4h2zM410 501.5q0 -100.5 64.5 -173t158.5 -74.5q96 2 159.5 72.5 t63.5 175.5q0 102 -63.5 172.5t-159.5 73.5q-96 -2 -159.5 -74t-63.5 -172.5z" glyph-name="thorn" horiz-adv-x="1216" unicode="þ"/><glyph d="M344.5 1139q-61.5 0 -106.5 44t-45 109q0 63 45 107.5t106.5 44.5t106.5 -44t45 -108q0 -66 -45 -109.5t-106.5 -43.5zM809 1139q-61 0 -106.5 44t-45.5 109q0 63 45.5 107.5t106.5 44.5t106.5 -44t45.5 -108q0 -66 -45.5 -109.5t-106.5 -43.5zM1092 1004q37 0 24 -35 l-530 -1334q-8 -25 -37 -24h-240q-43 0 -24 35l145 352l-387 971q-12 35 25 35h247q29 0 37 -25l226 -619l225 619q8 25 37 25h252z" glyph-name="ydieresis" horiz-adv-x="1159" unicode="ÿ"/><glyph d="M387 1622q-31 0 -31 31v176q0 31 31 31h635q31 0 31 -31v-176q0 -31 -31 -31h-635zM1343 35q14 -35 -24 -35h-266q-27 0 -35 25l-74 227h-502l-73 -227q-8 -25 -35 -25h-266q-39 0 -25 35l496 1374q10 25 34 25h236q31 0 39 -25zM532 520h324l-162 496z" glyph-name="Amacron" unicode="Ā"/><glyph d="M268 1192q-31 0 -30 31v176q0 31 30 31h635q31 0 31 -31v-176q0 -31 -31 -31h-635zM1090 1004q31 0 30 -31v-942q0 -31 -30 -31h-224q-27 0 -30 31l-7 73q-117 -131 -286 -131q-207 0 -345.5 153t-138.5 374t138.5 373.5t345.5 152.5q166 0 286 -137l7 84q4 31 30 31h224 zM582 254q96 0 160.5 72.5t64.5 175.5q0 100 -64.5 173t-160.5 73q-98 0 -163 -71t-65 -175q0 -106 65 -177t163 -71z" glyph-name="amacron" horiz-adv-x="1210" unicode="ā"/><glyph d="M705 1565q-143 0 -230.5 75.5t-99.5 190.5q-2 31 28 31h123q27 0 33 -29q10 -39 48 -68.5t98 -29.5q115 0 145 98q6 29 33 29h123q31 0 28 -31q-10 -115 -99 -190.5t-230 -75.5zM1343 35q14 -35 -24 -35h-266q-27 0 -35 25l-74 227h-502l-73 -227q-8 -25 -35 -25h-266 q-39 0 -25 35l496 1374q10 25 34 25h236q31 0 39 -25zM532 520h324l-162 496z" glyph-name="Abreve" unicode="Ă"/><glyph d="M586 1135q-143 0 -230.5 75.5t-99.5 190.5q-2 31 29 31h123q27 0 32 -29q10 -39 48 -68.5t98 -29.5q115 0 145 98q6 29 33 29h123q31 0 28 -31q-10 -115 -99 -190.5t-230 -75.5zM1090 1004q31 0 30 -31v-942q0 -31 -30 -31h-224q-27 0 -30 31l-7 73q-117 -131 -286 -131 q-207 0 -345.5 153t-138.5 374t138.5 373.5t345.5 152.5q166 0 286 -137l7 84q4 31 30 31h224zM582 254q96 0 160.5 72.5t64.5 175.5q0 100 -64.5 173t-160.5 73q-98 0 -163 -71t-65 -175q0 -106 65 -177t163 -71z" glyph-name="abreve" horiz-adv-x="1210" unicode="ă"/><glyph d="M1343 35q14 -35 -24 -35h-4q-82 0 -128 -46t-46 -101q0 -37 29.5 -60.5t95.5 -11.5v-187q-47 -20 -109.5 -21t-122 17.5t-100.5 70.5t-41 130q0 131 129 223l-4 11l-74 227h-502l-73 -227q-8 -25 -35 -25h-266q-39 0 -25 35l496 1374q10 25 34 25h236q31 0 39 -25 l467 -1292v-2zM532 520h324l-162 496z" glyph-name="Aogonek" unicode="Ą"/><glyph d="M1090 1004q31 0 30 -31v-942q0 -31 -30 -31h-35q-80 0 -127 -46t-47 -101q0 -37 29.5 -60.5t95.5 -11.5v-187q-47 -20 -109.5 -21t-122 17.5t-100.5 70.5t-41 130q0 168 201 268l-5 45q-117 -131 -286 -131q-207 0 -345.5 153t-138.5 374t138.5 373.5t345.5 152.5 q166 0 286 -137l7 84q4 31 30 31h224zM582 254q96 0 160.5 72.5t64.5 175.5q0 100 -64.5 173t-160.5 73q-98 0 -163 -71t-65 -175q0 -106 65 -177t163 -71z" glyph-name="aogonek" horiz-adv-x="1208" unicode="ą"/><glyph d="M1049 1860q41 0 24 -35l-123 -258q-10 -25 -35 -25h-221q-41 0 -24 35l123 258q10 25 34 25h222zM1159 397l158 -170q20 -23 0 -43q-201 -211 -506 -211q-309 0 -525 214t-216 523.5t216 524.5t525 215q303 0 506 -209q18 -20 0 -43l-158 -172q-18 -23 -43 -2 q-135 115 -307 115q-174 0 -293 -123t-119 -305q0 -180 119 -303t293 -123q172 0 307 114q25 21 43 -2z" glyph-name="Cacute" unicode="Ć"/><glyph d="M872 1491q41 0 25 -35l-123 -258q-10 -25 -35 -24h-221q-41 0 -24 34l122 258q10 25 35 25h221zM582 258q100 0 190 78q25 20 45 0l148 -141q20 -20 2 -43q-156 -178 -394 -179q-217 0 -365.5 153t-148.5 374t148.5 373.5t365.5 152.5q231 0 388 -178q18 -23 -3 -43 l-147 -143q-20 -20 -45 2q-88 78 -184 77q-98 0 -163 -68.5t-65 -173t65 -173t163 -68.5z" glyph-name="cacute" horiz-adv-x="1140" unicode="ć"/><glyph d="M796.5 1569q-61.5 0 -106.5 44t-45 109q0 63 45 107.5t106.5 44.5t106.5 -44t45 -108q0 -66 -45 -109.5t-106.5 -43.5zM1159 397l158 -170q20 -23 0 -43q-201 -211 -506 -211q-309 0 -525 214t-216 523.5t216 524.5t525 215q303 0 506 -209q18 -20 0 -43l-158 -172 q-18 -23 -43 -2q-135 115 -307 115q-174 0 -293 -123t-119 -305q0 -180 119 -303t293 -123q172 0 307 114q25 21 43 -2z" glyph-name="Cdotaccent" unicode="Ċ"/><glyph d="M600.5 1139q-61.5 0 -106.5 44t-45 109q0 63 45 107.5t106.5 44.5t106.5 -44t45 -108q0 -66 -45 -109.5t-106.5 -43.5zM582 258q100 0 190 78q25 20 45 0l148 -141q20 -20 2 -43q-156 -178 -394 -179q-217 0 -365.5 153t-148.5 374t148.5 373.5t365.5 152.5 q231 0 388 -178q18 -23 -3 -43l-147 -143q-20 -20 -45 2q-88 78 -184 77q-98 0 -163 -68.5t-65 -173t65 -173t163 -68.5z" glyph-name="cdotaccent" horiz-adv-x="1140" unicode="ċ"/><glyph d="M885 1581h-176q-23 0 -37 16l-201 226q-12 14 -7 25.5t25 11.5h154q23 0 37 -17l117 -137l116 137q14 16 37 17h154q20 0 26.5 -11.5t-6.5 -25.5l-202 -226q-14 -16 -37 -16zM1159 397l158 -170q20 -23 0 -43q-201 -211 -506 -211q-309 0 -525 214t-216 523.5t216 524.5 t525 215q303 0 506 -209q18 -20 0 -43l-158 -172q-18 -23 -43 -2q-135 115 -307 115q-174 0 -293 -123t-119 -305q0 -180 119 -303t293 -123q172 0 307 114q25 21 43 -2z" glyph-name="Ccaron" unicode="Č"/><glyph d="M625 1155h-176q-23 0 -37 16l-201 226q-12 14 -7 25.5t25 11.5h154q23 0 37 -17l117 -137l116 137q14 16 37 17h154q20 0 26.5 -11.5t-6.5 -25.5l-202 -226q-14 -16 -37 -16zM582 258q100 0 190 78q25 20 45 0l148 -141q20 -20 2 -43q-156 -178 -394 -179 q-217 0 -365.5 153t-148.5 374t148.5 373.5t365.5 152.5q231 0 388 -178q18 -23 -3 -43l-147 -143q-20 -20 -45 2q-88 78 -184 77q-98 0 -163 -68.5t-65 -173t65 -173t163 -68.5z" glyph-name="ccaron" horiz-adv-x="1140" unicode="č"/><glyph d="M545 1597l-201 226q-12 14 -7 25.5t25 11.5h154q23 0 37 -17l117 -137l116 137q14 16 37 17h154q20 0 26.5 -11.5t-6.5 -25.5l-202 -226q-14 -16 -37 -16h-176q-23 0 -37 16zM569 1434q356 0 555 -203t199 -514t-198.5 -514t-555.5 -203h-428q-31 0 -30 31v1372 q0 31 30 31h428zM569 281q213 0 321.5 112.5t108.5 323.5t-108.5 323.5t-321.5 112.5h-141v-872h141z" glyph-name="Dcaron" horiz-adv-x="1380" unicode="Ď"/><glyph d="M1090 1495q31 0 30 -31v-1433q0 -31 -30 -31h-224q-27 0 -30 31l-7 73q-117 -131 -286 -131q-207 0 -345.5 153t-138.5 374t138.5 373.5t345.5 152.5q156 0 270 -119v557q0 31 31 31h246zM1575 1495q41 0 24 -35l-122 -258q-10 -25 -35 -24h-221q-41 0 -25 34l123 258 q10 25 35 25h221zM582 254q96 0 160.5 72.5t64.5 175.5q0 100 -64.5 173t-160.5 73q-98 0 -163 -71t-65 -175q0 -106 65 -177t163 -71z" glyph-name="dcaron" horiz-adv-x="1581" unicode="ď"/><glyph d="M586 1434q356 0 554.5 -203t198.5 -514t-198.5 -514t-554.5 -203h-428q-31 0 -31 31v553h-66q-31 0 -30 30v177q0 31 30 30h66v582q0 31 31 31h428zM586 281q213 0 321.5 112.5t108.5 323.5t-108.5 323.5t-321.5 112.5h-142v-332h252q31 0 31 -30v-177q0 -31 -31 -30 h-252v-303h142z" glyph-name="Dcroat" horiz-adv-x="1396" unicode="Đ"/><glyph d="M1194 1327q31 0 31 -31v-176q0 -31 -31 -30h-74v-1059q0 -31 -30 -31h-224q-27 0 -30 31l-7 73q-117 -131 -286 -131q-207 0 -345.5 153t-138.5 374t138.5 373.5t345.5 152.5q156 0 270 -119v183h-254q-31 0 -31 30v176q0 31 31 31h254v137q0 31 31 31h246q31 0 30 -31 v-137h74zM582 254q96 0 160.5 72.5t64.5 175.5q0 100 -64.5 173t-160.5 73q-98 0 -163 -71t-65 -175q0 -106 65 -177t163 -71z" glyph-name="dcroat" horiz-adv-x="1234" unicode="đ"/><glyph d="M852 1860q31 0 31 -31v-176q0 -31 -31 -31h-635q-31 0 -31 31v176q0 31 31 31h635zM911 281q31 0 31 -31v-219q0 -31 -31 -31h-770q-31 0 -30 31v1372q0 31 30 31h768q31 0 31 -31v-219q0 -31 -31 -31h-481v-281h453q31 0 30 -30v-219q0 -31 -30 -31h-453v-311h483z" glyph-name="Emacron" horiz-adv-x="1044" unicode="Ē"/><glyph d="M238 1192q-31 0 -31 31v176q0 31 31 31h634q31 0 31 -31v-176q0 -31 -31 -31h-634zM1047 518q0 -68 -14.5 -97.5t-59.5 -29.5h-608q43 -172 258 -172q100 0 194 60q25 16 45 -5l107 -102q18 -23 -4 -45q-154 -154 -373 -154q-233 0 -383 151.5t-150 375t145.5 375 t364.5 151.5q213 0 345.5 -147.5t132.5 -360.5zM571 768q-80 0 -137 -47t-74 -135h414q-14 88 -69.5 135t-133.5 47z" glyph-name="emacron" horiz-adv-x="1105" unicode="ē"/><glyph d="M534.5 1569q-61.5 0 -106.5 44t-45 109q0 63 45 107.5t106.5 44.5t106.5 -44t45 -108q0 -66 -45 -109.5t-106.5 -43.5zM911 281q31 0 31 -31v-219q0 -31 -31 -31h-770q-31 0 -30 31v1372q0 31 30 31h768q31 0 31 -31v-219q0 -31 -31 -31h-481v-281h453q31 0 30 -30v-219 q0 -31 -30 -31h-453v-311h483z" glyph-name="Edotaccent" horiz-adv-x="1044" unicode="Ė"/><glyph d="M555 1139q-61 0 -106.5 44t-45.5 109q0 63 45.5 107.5t106.5 44.5t106.5 -44t45.5 -108q0 -66 -45.5 -109.5t-106.5 -43.5zM1047 518q0 -68 -14.5 -97.5t-59.5 -29.5h-608q43 -172 258 -172q100 0 194 60q25 16 45 -5l107 -102q18 -23 -4 -45q-154 -154 -373 -154 q-233 0 -383 151.5t-150 375t145.5 375t364.5 151.5q213 0 345.5 -147.5t132.5 -360.5zM571 768q-80 0 -137 -47t-74 -135h414q-14 88 -69.5 135t-133.5 47z" glyph-name="edotaccent" horiz-adv-x="1105" unicode="ė"/><glyph d="M911 281q31 0 31 -31v-219q0 -31 -31 -31h-71q-84 -41 -84 -127q0 -37 29.5 -60.5t95.5 -11.5v-186q-47 -20 -109.5 -21.5t-122 17t-100.5 71t-41 130.5q0 106 86 188h-453q-31 0 -30 31v1372q0 31 30 31h768q31 0 31 -31v-219q0 -31 -31 -31h-481v-281h453q31 0 30 -30 v-219q0 -31 -30 -31h-453v-311h483z" glyph-name="Eogonek" horiz-adv-x="1044" unicode="Ę"/><glyph d="M1047 518q0 -68 -14.5 -97.5t-59.5 -29.5h-608q43 -172 258 -172q100 0 194 60q25 16 45 -5l107 -102q18 -23 -4 -45q-106 -106 -252 -139q-143 -49 -144 -146q0 -37 31 -60.5t94 -10.5v-187q-47 -20 -109.5 -21t-120.5 17.5t-99 70.5t-41 130q0 123 118 211 q-174 47 -278.5 185t-104.5 323q0 223 145.5 374.5t364.5 151.5q213 0 345.5 -147.5t132.5 -360.5zM571 768q-80 0 -137 -47t-74 -135h414q-14 88 -69.5 135t-133.5 47z" glyph-name="eogonek" horiz-adv-x="1105" unicode="ę"/><glyph d="M623 1581h-177q-23 0 -36 16l-201 226q-12 14 -7 25.5t25 11.5h154q23 0 37 -17l117 -137l116 137q14 16 37 17h154q20 0 26 -11.5t-6 -25.5l-203 -226q-13 -16 -36 -16zM911 281q31 0 31 -31v-219q0 -31 -31 -31h-770q-31 0 -30 31v1372q0 31 30 31h768q31 0 31 -31 v-219q0 -31 -31 -31h-481v-281h453q31 0 30 -30v-219q0 -31 -30 -31h-453v-311h483z" glyph-name="Ecaron" horiz-adv-x="1044" unicode="Ě"/><glyph d="M430 1167l-201 226q-12 14 -7 25.5t26 11.5h153q23 0 37 -17l117 -137l117 137q14 16 37 17h153q20 0 26.5 -11.5t-5.5 -25.5l-203 -226q-14 -16 -37 -16h-176q-23 0 -37 16zM1047 518q0 -68 -14.5 -97.5t-59.5 -29.5h-608q43 -172 258 -172q100 0 194 60q25 16 45 -5 l107 -102q18 -23 -4 -45q-154 -154 -373 -154q-233 0 -383 151.5t-150 375t145.5 375t364.5 151.5q213 0 345.5 -147.5t132.5 -360.5zM571 768q-80 0 -137 -47t-74 -135h414q-14 88 -69.5 135t-133.5 47z" glyph-name="ecaron" horiz-adv-x="1105" unicode="ě"/><glyph d="M807 1565q-143 0 -230.5 75.5t-99.5 190.5q-2 31 29 31h123q27 0 33 -29q10 -39 48 -68.5t97 -29.5q115 0 145 98q6 29 33 29h123q31 0 29 -31q-10 -115 -99.5 -190.5t-230.5 -75.5zM1432 819q31 0 30 -31v-139q0 -287 -174 -481.5t-471 -194.5q-309 0 -528 217.5 t-219 526.5q0 305 216 519t525 214q303 0 506 -209q18 -20 0 -43l-158 -172q-18 -23 -43 -2q-135 115 -307 115q-174 0 -293 -122t-119 -300q0 -184 118 -308t300 -124q154 0 242 77.5t92 190.5h-324q-31 0 -30 31v204q0 31 30 31h607z" glyph-name="Gbreve" horiz-adv-x="1521" unicode="Ğ"/><glyph d="M606 1135q-143 0 -230 75.5t-100 190.5q-2 31 29 31h123q27 0 33 -29q10 -39 48 -68.5t97 -29.5q115 0 146 98q6 29 32 29h123q31 0 29 -31q-10 -115 -99.5 -190.5t-230.5 -75.5zM1090 1004q31 0 30 -31v-965q0 -115 -50 -199.5t-132 -129t-170 -65t-182 -20.5 q-266 0 -447 132q-20 14 -8 41l80 143q18 25 41 12q133 -78 309 -78q104 0 190.5 44t86.5 147v94q-119 -135 -295 -135q-207 0 -345.5 150.5t-138.5 365.5t138.5 365.5t345.5 150.5q168 0 286 -133l7 80q4 31 30 31h224zM582 274q94 0 159.5 72t65.5 166t-65.5 165 t-159.5 71q-96 0 -162 -69t-66 -167q0 -100 65 -169t163 -69z" glyph-name="gbreve" horiz-adv-x="1210" unicode="ğ"/><glyph d="M806.5 1569q-61.5 0 -106.5 44t-45 109q0 63 45 107.5t106.5 44.5t106.5 -44t45 -108q0 -66 -45 -109.5t-106.5 -43.5zM1432 819q31 0 30 -31v-139q0 -287 -174 -481.5t-471 -194.5q-309 0 -528 217.5t-219 526.5q0 305 216 519t525 214q303 0 506 -209q18 -20 0 -43 l-158 -172q-18 -23 -43 -2q-135 115 -307 115q-174 0 -293 -122t-119 -300q0 -184 118 -308t300 -124q154 0 242 77.5t92 190.5h-324q-31 0 -30 31v204q0 31 30 31h607z" glyph-name="Gdotaccent" horiz-adv-x="1521" unicode="Ġ"/><glyph d="M606.5 1139q-61.5 0 -106.5 44t-45 109q0 63 45 107.5t106.5 44.5t106.5 -44t45 -108q0 -66 -45 -109.5t-106.5 -43.5zM1090 1004q31 0 30 -31v-965q0 -115 -50 -199.5t-132 -129t-170 -65t-182 -20.5q-266 0 -447 132q-20 14 -8 41l80 143q18 25 41 12q133 -78 309 -78 q104 0 190.5 44t86.5 147v94q-119 -135 -295 -135q-207 0 -345.5 150.5t-138.5 365.5t138.5 365.5t345.5 150.5q168 0 286 -133l7 80q4 31 30 31h224zM582 274q94 0 159.5 72t65.5 166t-65.5 165t-159.5 71q-96 0 -162 -69t-66 -167q0 -100 65 -169t163 -69z" glyph-name="gdotaccent" horiz-adv-x="1210" unicode="ġ"/><glyph d="M1432 819q31 0 30 -31v-139q0 -287 -174 -481.5t-471 -194.5q-309 0 -528 217.5t-219 526.5q0 305 216 519t525 214q303 0 506 -209q18 -20 0 -43l-158 -172q-18 -23 -43 -2q-135 115 -307 115q-174 0 -293 -122t-119 -300q0 -184 118 -308t300 -124q154 0 242 77.5 t92 190.5h-324q-31 0 -30 31v204q0 31 30 31h607zM774.5 -78q69.5 0 117.5 -51t48 -133q0 -178 -137 -338q-12 -10 -27 -10h-28q-27 0 -17 26q43 90 43 176q-70 0 -118 48.5t-48 117.5q0 68 48.5 116t118 48z" glyph-name="Gcommaaccent" horiz-adv-x="1521" unicode="Ģ"/><glyph d="M598 1122q-70 0 -118 51.5t-48 133.5q0 178 137 338q12 10 27 10h29q27 0 16 -27q-43 -90 -43 -176q70 0 118 -48t48 -118q0 -68 -48 -116t-118 -48zM1090 1004q31 0 30 -31v-965q0 -115 -50 -199.5t-132 -129t-170 -65t-182 -20.5q-266 0 -447 132q-20 14 -8 41l80 143 q18 25 41 12q133 -78 309 -78q104 0 190.5 44t86.5 147v94q-119 -135 -295 -135q-207 0 -345.5 150.5t-138.5 365.5t138.5 365.5t345.5 150.5q168 0 286 -133l7 80q4 31 30 31h224zM582 274q94 0 159.5 72t65.5 166t-65.5 165t-159.5 71q-96 0 -162 -69t-66 -167 q0 -100 65 -169t163 -69z" glyph-name="gcommaaccent" horiz-adv-x="1210" unicode="ģ"/><glyph d="M1214 1434q31 0 31 -31v-1372q0 -31 -31 -31h-256q-31 0 -30 31v532h-500v-532q0 -31 -31 -31h-256q-31 0 -30 31v1372q0 31 30 31h256q31 0 31 -31v-191h500v191q0 31 30 31h256zM428 844h500v114h-500v-114z" glyph-name="Hbar" horiz-adv-x="1355" unicode="Ħ"/><glyph d="M729 1026q156 0 260.5 -117.5t104.5 -314.5v-563q0 -31 -31 -31h-246q-31 0 -31 31v501q0 111 -50 160t-122 49q-90 0 -142 -65.5t-52 -118.5v-526q0 -31 -31 -31h-246q-31 0 -30 31v1032h-72q-31 0 -31 31v176q0 31 31 30h72v164q0 31 30 31h246q31 0 31 -31v-164h256 q31 0 31 -30v-176q0 -31 -31 -31h-256v-217q108 180 309 180z" glyph-name="hbar" horiz-adv-x="1183" unicode="ħ"/><glyph d="M588 1860q31 0 30 -31v-176q0 -31 -30 -31h-635q-31 0 -31 31v176q0 31 31 31h635zM111 1403q0 31 30 31h256q31 0 31 -31v-1372q0 -31 -31 -31h-256q-31 0 -30 31v1372z" glyph-name="Imacron" horiz-adv-x="538" unicode="Ī"/><glyph d="M561 1430q31 0 31 -31v-176q0 -31 -31 -31h-635q-31 0 -30 31v176q0 31 30 31h635zM90 973q0 31 31 31h246q31 0 30 -31v-942q0 -31 -30 -31h-246q-31 0 -31 31v942z" glyph-name="imacron" horiz-adv-x="487" unicode="ī"/><glyph d="M243.5 1139q-61.5 0 -106.5 44t-45 109q0 63 45 107.5t106.5 44.5t106.5 -44t45 -108q0 -66 -45 -109.5t-106.5 -43.5zM367 1004q31 0 30 -31v-942q0 -31 -30 -31q-82 0 -128 -46t-46 -101q0 -37 29.5 -60.5t94.5 -11.5v-187q-47 -20 -109.5 -21t-121.5 17.5t-100 70.5 t-41 130q0 141 145 236v4v942q0 31 31 31h246z" glyph-name="iogonek" horiz-adv-x="487" unicode="į"/><glyph d="M270.5 1569q-61.5 0 -106.5 44t-45 109q0 63 45 107.5t106.5 44.5t106.5 -44t45 -108q0 -66 -45 -109.5t-106.5 -43.5zM111 1403q0 31 30 31h256q31 0 31 -31v-1372q0 -31 -31 -31h-256q-31 0 -30 31v1372z" glyph-name="Idotaccent" horiz-adv-x="538" unicode="İ"/><glyph d="M90 973q0 31 31 31h246q31 0 30 -31v-942q0 -31 -30 -31h-246q-31 0 -31 31v942z" glyph-name="dotlessi" horiz-adv-x="487" unicode="ı"/><glyph d="M111 1403q0 31 30 31h256q31 0 31 -31v-1372q0 -31 -31 -31h-256q-31 0 -30 31v1372zM741 358q16 23 45 2q2 -2 15.5 -10t18.5 -11t19.5 -11.5t23.5 -11.5t24.5 -9t30 -9t32 -5t35.5 -2q207 0 207 264v848q0 31 31 31h256q31 0 30 -31v-858q0 -287 -137 -425t-377 -138 q-256 0 -385 151q-14 16 0 43z" glyph-name="IJ" horiz-adv-x="1619" unicode="Ĳ"/><glyph d="M248 1180q-70 0 -118 48t-48 115q0 70 48 118t118 48q68 0 116 -48t48 -118q0 -68 -48 -115.5t-116 -47.5zM844 1180q-68 0 -116 48t-48 115q0 70 48 118t116 48q70 0 118 -48t48 -118q0 -68 -48 -115.5t-118 -47.5zM94 973q0 31 31 31h246q31 0 30 -31v-942 q0 -31 -30 -31h-246q-31 0 -31 31v942zM725 1004h246q31 0 30 -31v-950q0 -205 -116.5 -313.5t-315.5 -115.5q-20 0 -24 17l-78 250q-8 23 14 22q86 6 149.5 54.5t63.5 146.5v889q0 31 31 31z" glyph-name="ij" horiz-adv-x="1091" unicode="ĳ"/><glyph d="M1292 37q10 -16 5 -26.5t-23 -10.5h-303q-25 0 -37 18l-397 555l-109 -124v-418q0 -31 -31 -31h-256q-31 0 -30 31v1372q0 31 30 31h256q31 0 31 -31v-533l449 547q14 16 36 17h320q18 0 23.5 -11.5t-7.5 -25.5l-501 -580zM757.5 -78q69.5 0 118 -51t48.5 -133 q0 -178 -138 -338q-12 -10 -26 -10h-29q-27 0 -16 26q43 90 43 176q-70 0 -118 48.5t-48 117.5q0 68 48 116t117.5 48z" glyph-name="Kcommaaccent" horiz-adv-x="1501" unicode="Ķ"/><glyph d="M1116 37q10 -16 5 -26.5t-23 -10.5h-264q-25 0 -37 18l-279 371l-121 -131v-227q0 -31 -30 -31h-246q-31 0 -31 31v1433q0 31 31 31h246q31 0 30 -31v-833l328 356q14 16 35 17h278q20 0 25.5 -11.5t-8.5 -25.5l-350 -377zM587.5 -78q69.5 0 118 -51t48.5 -133 q0 -178 -138 -338q-12 -10 -26 -10h-29q-27 0 -16 26q43 90 43 176q-70 0 -118 48.5t-48 117.5q0 68 48 116t117.5 48z" glyph-name="kcommaaccent" horiz-adv-x="1155" unicode="ķ"/><glyph d="M207 1538q-41 0 -25 35l123 258q10 25 35 24h221q41 0 25 -34l-123 -258q-10 -25 -35 -25h-221zM870 281q31 0 31 -31v-219q0 -31 -31 -31h-729q-31 0 -30 31v1372q0 31 30 31h256q31 0 31 -31v-1122h442z" glyph-name="Lacute" horiz-adv-x="970" unicode="Ĺ"/><glyph d="M496 1921q41 0 24 -35l-123 -258q-10 -25 -35 -24h-221q-41 0 -24 34l123 258q10 25 34 25h222zM90 1464q0 31 31 31h246q31 0 30 -31v-1433q0 -31 -30 -31h-246q-31 0 -31 31v1433z" glyph-name="lacute" horiz-adv-x="487" unicode="ĺ"/><glyph d="M870 281q31 0 31 -31v-219q0 -31 -31 -31h-729q-31 0 -30 31v1372q0 31 30 31h256q31 0 31 -31v-1122h442zM481.5 -78q69.5 0 117.5 -51t48 -133q0 -178 -137 -338q-12 -10 -27 -10h-28q-27 0 -17 26q43 90 43 176q-70 0 -118 48.5t-48 117.5q0 68 48.5 116t118 48z" glyph-name="Lcommaaccent" horiz-adv-x="970" unicode="Ļ"/><glyph d="M90 1464q0 31 31 31h246q31 0 30 -31v-1433q0 -31 -30 -31h-246q-31 0 -31 31v1433zM243.5 -78q69.5 0 118 -51t48.5 -133q0 -178 -138 -338q-12 -10 -26 -10h-29q-27 0 -16 26q43 90 43 176q-70 0 -118 48.5t-48 117.5q0 68 48 116t117.5 48z" glyph-name="lcommaaccent" horiz-adv-x="487" unicode="ļ"/><glyph d="M748 1202q-70 0 -118 48t-48 118q0 68 48 116t117.5 48t117.5 -51t48 -133q0 -178 -137 -338q-12 -10 -26 -11h-29q-27 0 -16 27q43 90 43 176zM870 281q31 0 31 -31v-219q0 -31 -31 -31h-729q-31 0 -30 31v1372q0 31 30 31h256q31 0 31 -31v-1122h442z" glyph-name="Lcaron" horiz-adv-x="970" unicode="Ľ"/><glyph d="M90 1464q0 31 31 31h246q31 0 30 -31v-1433q0 -31 -30 -31h-246q-31 0 -31 31v1433zM678 1493q70 0 118 -51t48 -133q0 -178 -137 -338q-12 -10 -27 -10h-29q-27 0 -16 26q43 90 43 176q-70 0 -118 48.5t-48 117.5q0 68 48 116t118 48z" glyph-name="lcaron" horiz-adv-x="874" unicode="ľ"/><glyph d="M870 281q31 0 31 -31v-219q0 -31 -31 -31h-729q-31 0 -30 31v1372q0 31 30 31h256q31 0 31 -31v-1122h442zM815 915q68 0 116 -48t48 -115q0 -70 -48 -118t-116 -48q-70 0 -118 48t-48 118q0 68 48 115.5t118 47.5z" glyph-name="Ldot" horiz-adv-x="1019" unicode="Ŀ"/><glyph d="M90 1464q0 31 31 31h246q31 0 30 -31v-1433q0 -31 -30 -31h-246q-31 0 -31 31v1433zM653 582q-70 0 -118 48t-48 118q0 68 48.5 115.5t117.5 47.5q68 0 116 -48t48 -115q0 -70 -48 -118t-116 -48z" glyph-name="ldot" horiz-adv-x="866" unicode="ŀ"/><glyph d="M915 281q31 0 31 -31v-219q0 -31 -31 -31h-729q-31 0 -30 31v375l-78 -76q-16 -14 -26.5 -9t-10.5 25v203q0 23 16 39l99 96v719q0 31 30 31h256q31 0 31 -31v-408l191 187q16 14 26 9t10 -26v-200q0 -23 -16 -39l-211 -207v-438h442z" glyph-name="Lslash" horiz-adv-x="1015" unicode="Ł"/><glyph d="M606 1143v-262l-137 -146v-704q0 -31 -31 -31h-245q-31 0 -31 31v381l-90 -95v265l90 94v788q0 31 31 31h245q31 0 31 -31v-465l135 144h2z" glyph-name="lslash" horiz-adv-x="677" unicode="ł"/><glyph d="M598 1542q-41 0 -25 35l123 258q10 25 35 25h221q41 0 25 -35l-123 -258q-10 -25 -35 -25h-221zM1260 1434q31 0 30 -31v-1372q0 -31 -30 -31h-291q-25 0 -37 20l-504 904v-893q0 -31 -31 -31h-256q-31 0 -30 31v1372q0 31 30 31h289q25 0 37 -21l506 -905v895 q0 31 31 31h256z" glyph-name="Nacute" horiz-adv-x="1400" unicode="Ń"/><glyph d="M477 1112q-41 0 -24 35l122 258q10 25 35 25h221q41 0 25 -35l-123 -258q-10 -25 -35 -25h-221zM707 1026q156 0 260 -117.5t104 -314.5v-563q0 -31 -31 -31h-245q-31 0 -31 31v501q0 111 -50 160t-122 49q-90 0 -142.5 -65.5t-52.5 -118.5v-526q0 -31 -30 -31h-246 q-31 0 -31 31v942q0 31 31 31h237q27 0 31 -31l8 -127q109 180 310 180z" glyph-name="nacute" horiz-adv-x="1161" unicode="ń"/><glyph d="M1260 1434q31 0 30 -31v-1372q0 -31 -30 -31h-291q-25 0 -37 20l-504 904v-893q0 -31 -31 -31h-256q-31 0 -30 31v1372q0 31 30 31h289q25 0 37 -21l506 -905v895q0 31 31 31h256zM700.5 -78q69.5 0 117.5 -51t48 -133q0 -178 -137 -338q-12 -10 -27 -10h-28 q-27 0 -17 26q43 90 43 176q-70 0 -117.5 48.5t-47.5 117.5q0 68 48 116t117.5 48z" glyph-name="Ncommaaccent" horiz-adv-x="1400" unicode="Ņ"/><glyph d="M707 1026q156 0 260 -117.5t104 -314.5v-563q0 -31 -31 -31h-245q-31 0 -31 31v501q0 111 -50 160t-122 49q-90 0 -142.5 -65.5t-52.5 -118.5v-526q0 -31 -30 -31h-246q-31 0 -31 31v942q0 31 31 31h237q27 0 31 -31l8 -127q109 180 310 180zM579.5 -78q69.5 0 117.5 -51 t48 -133q0 -178 -137 -338q-12 -10 -26 -10h-29q-27 0 -16 26q43 90 43 176q-70 0 -118 48.5t-48 117.5q0 68 48 116t117.5 48z" glyph-name="ncommaaccent" horiz-adv-x="1161" unicode="ņ"/><glyph d="M575 1597l-200 226q-12 14 -7 25.5t25 11.5h154q23 0 37 -17l116 -137l117 137q14 16 37 17h154q20 0 26 -11.5t-6 -25.5l-203 -226q-14 -16 -37 -16h-176q-23 0 -37 16zM1260 1434q31 0 30 -31v-1372q0 -31 -30 -31h-291q-25 0 -37 20l-504 904v-893q0 -31 -31 -31h-256 q-31 0 -30 31v1372q0 31 30 31h289q25 0 37 -21l506 -905v895q0 31 31 31h256z" glyph-name="Ncaron" horiz-adv-x="1400" unicode="Ň"/><glyph d="M455 1167l-201 226q-12 14 -7 25.5t25 11.5h154q23 0 37 -17l117 -137l116 137q14 16 37 17h154q20 0 26.5 -11.5t-6.5 -25.5l-202 -226q-14 -16 -37 -16h-176q-23 0 -37 16zM707 1026q156 0 260 -117.5t104 -314.5v-563q0 -31 -31 -31h-245q-31 0 -31 31v501 q0 111 -50 160t-122 49q-90 0 -142.5 -65.5t-52.5 -118.5v-526q0 -31 -30 -31h-246q-31 0 -31 31v942q0 31 31 31h237q27 0 31 -31l8 -127q109 180 310 180z" glyph-name="ncaron" horiz-adv-x="1161" unicode="ň"/><glyph d="M1260 1434q31 0 30 -31v-1372q0 -10 -8 -23q-31 -219 -164 -325.5t-342 -106.5q-256 0 -385 152q-14 16 0 43l131 182q16 23 45 2q2 -2 15.5 -10t18.5 -11.5t19.5 -11.5t23.5 -11t24.5 -9t30 -9.5t32 -5.5t35.5 -2q137 0 184 119q-12 2 -18 16l-504 904v-893 q0 -31 -31 -31h-256q-31 0 -30 31v1372q0 31 30 31h289q25 0 37 -21l506 -905v895q0 31 31 31h256z" glyph-name="Eng" horiz-adv-x="1400" unicode="Ŋ"/><glyph d="M707 1026q156 0 260 -117.5t104 -314.5v-571q0 -207 -117.5 -318t-314.5 -111q-18 0 -25 17l-77 250q-8 23 14 22q84 0 148.5 51.5t64.5 149.5v448q0 111 -50 160t-122 49q-90 0 -142.5 -65.5t-52.5 -118.5v-526q0 -31 -30 -31h-246q-31 0 -31 31v942q0 31 31 31h237 q27 0 31 -31l8 -127q109 180 310 180z" glyph-name="eng" horiz-adv-x="1161" unicode="ŋ"/><glyph d="M1124 1860q31 0 31 -31v-176q0 -31 -31 -31h-635q-31 0 -30 31v176q0 31 30 31h635zM807 -27q-305 0 -521 215t-216 522.5t216 523.5t521 216q307 0 523 -216t216 -523.5t-216 -522.5t-523 -215zM807 283q176 0 298 123.5t122 304.5q0 182 -122 307t-298 125t-297 -125 t-121 -307q0 -180 121 -304t297 -124z" glyph-name="Omacron" horiz-adv-x="1615" unicode="Ō"/><glyph d="M899 1430q31 0 31 -31v-176q0 -31 -31 -31h-635q-31 0 -31 31v176q0 31 31 31h635zM582 -27q-217 0 -370 153t-153 374t153 373.5t370 152.5q219 0 371.5 -152.5t152.5 -373.5t-152.5 -374t-371.5 -153zM582 258q96 0 161.5 68.5t65.5 173t-65.5 173t-161.5 68.5 q-94 0 -161 -68.5t-67 -173t67 -173t161 -68.5z" glyph-name="omacron" horiz-adv-x="1165" unicode="ō"/><glyph d="M930 1860q41 0 24 -35l-123 -258q-10 -25 -34 -25h-222q-41 0 -24 35l123 258q10 25 35 25h221zM1329 1860q41 0 25 -35l-123 -258q-10 -25 -35 -25h-221q-41 0 -25 35l123 258q10 25 35 25h221zM807 -27q-305 0 -521 215t-216 522.5t216 523.5t521 216q307 0 523 -216 t216 -523.5t-216 -522.5t-523 -215zM807 283q176 0 298 123.5t122 304.5q0 182 -122 307t-298 125t-297 -125t-121 -307q0 -180 121 -304t297 -124z" glyph-name="Ohungarumlaut" horiz-adv-x="1615" unicode="Ő"/><glyph d="M705 1430q41 0 24 -35l-123 -258q-10 -25 -35 -25h-221q-41 0 -24 35l123 258q10 25 34 25h222zM1104 1430q41 0 24 -35l-122 -258q-10 -25 -35 -25h-221q-41 0 -25 35l123 258q10 25 35 25h221zM582 -27q-217 0 -370 153t-153 374t153 373.5t370 152.5 q219 0 371.5 -152.5t152.5 -373.5t-152.5 -374t-371.5 -153zM582 258q96 0 161.5 68.5t65.5 173t-65.5 173t-161.5 68.5q-94 0 -161 -68.5t-67 -173t67 -173t161 -68.5z" glyph-name="ohungarumlaut" horiz-adv-x="1165" unicode="ő"/><glyph d="M2028 281q31 0 30 -31v-219q0 -31 -30 -31h-771q-31 0 -30 31v71q-186 -129 -420 -129q-305 0 -521 215t-216 522.5t216 523.5t521 216q233 0 420 -129v82q0 31 30 31h768q31 0 31 -31v-219q0 -31 -31 -31h-481v-281h453q31 0 31 -30v-219q0 -31 -31 -31h-453v-311h484z M807 283q176 0 298 123.5t122 304.5q0 182 -122 307t-298 125t-297 -125t-121 -307q0 -180 121 -304t297 -124z" glyph-name="OE" horiz-adv-x="2160" unicode="Œ"/><glyph d="M1798 518q0 -68 -14.5 -97.5t-59.5 -29.5h-608q43 -172 258 -172q100 0 195 60q25 16 45 -5l106 -102q18 -23 -4 -45q-154 -154 -373 -154q-236 0 -387 156q-156 -156 -374 -156q-217 0 -370 153t-153 374t153 373.5t370 152.5q219 0 372 -154q150 154 367 154 q213 0 345 -147.5t132 -360.5zM1323 768q-80 0 -137.5 -47t-73.5 -135h414q-14 88 -69.5 135t-133.5 47zM582 258q96 0 161.5 68.5t65.5 173t-65.5 173t-161.5 68.5q-94 0 -161 -68.5t-67 -173t67 -173t161 -68.5z" glyph-name="oe" horiz-adv-x="1857" unicode="œ"/><glyph d="M467 1542q-41 0 -25 35l123 258q10 25 35 25h221q41 0 25 -35l-123 -258q-10 -25 -35 -25h-221zM1139 37q23 -37 -21 -37h-272q-25 0 -37 20l-297 463h-84v-452q0 -31 -31 -31h-256q-31 0 -30 31v1372q0 31 30 31h437q252 0 392 -130t140 -346q0 -156 -74.5 -269.5 t-216.5 -164.5zM428 1153v-389h143q98 0 167 45t69 149.5t-68.5 149.5t-167.5 45h-143z" glyph-name="Racute" horiz-adv-x="1214" unicode="Ŕ"/><glyph d="M272 1112q-41 0 -24 35l123 258q10 25 35 25h221q41 0 24 -35l-123 -258q-10 -25 -34 -25h-222zM793 975q20 -18 10 -45l-68 -176q-10 -33 -51 -23q-55 16 -84 17q-92 0 -147.5 -61.5t-55.5 -156.5v-499q0 -31 -30 -31h-246q-31 0 -31 31v942q0 31 31 31h235q27 0 31 -31 l8 -117q88 170 258 170q85 0 140 -51z" glyph-name="racute" horiz-adv-x="802" unicode="ŕ"/><glyph d="M1139 37q23 -37 -21 -37h-272q-25 0 -37 20l-297 463h-84v-452q0 -31 -31 -31h-256q-31 0 -30 31v1372q0 31 30 31h437q252 0 392 -130t140 -346q0 -156 -74.5 -269.5t-216.5 -164.5zM428 1153v-389h143q98 0 167 45t69 149.5t-68.5 149.5t-167.5 45h-143zM569.5 -78 q69.5 0 117.5 -51t48 -133q0 -178 -137 -338q-12 -10 -27 -10h-28q-27 0 -17 26q43 90 43 176q-70 0 -118 48.5t-48 117.5q0 68 48.5 116t118 48z" glyph-name="Rcommaaccent" horiz-adv-x="1214" unicode="Ŗ"/><glyph d="M793 975q20 -18 10 -45l-68 -176q-10 -33 -51 -23q-55 16 -84 17q-92 0 -147.5 -61.5t-55.5 -156.5v-499q0 -31 -30 -31h-246q-31 0 -31 31v942q0 31 31 31h235q27 0 31 -31l8 -117q88 170 258 170q85 0 140 -51zM241.5 -78q69.5 0 118 -51t48.5 -133q0 -178 -138 -338 q-12 -10 -26 -10h-29q-27 0 -16 26q43 90 43 176q-70 0 -118 48.5t-48 117.5q0 68 48 116t117.5 48z" glyph-name="rcommaaccent" horiz-adv-x="802" unicode="ŗ"/><glyph d="M444 1597l-200 226q-12 14 -7 25.5t25 11.5h154q23 0 37 -17l116 -137l117 137q14 16 37 17h154q20 0 26 -11.5t-6 -25.5l-203 -226q-14 -16 -37 -16h-176q-23 0 -37 16zM1139 37q23 -37 -21 -37h-272q-25 0 -37 20l-297 463h-84v-452q0 -31 -31 -31h-256q-31 0 -30 31 v1372q0 31 30 31h437q252 0 392 -130t140 -346q0 -156 -74.5 -269.5t-216.5 -164.5zM428 1153v-389h143q98 0 167 45t69 149.5t-68.5 149.5t-167.5 45h-143z" glyph-name="Rcaron" horiz-adv-x="1214" unicode="Ř"/><glyph d="M287 1151q-23 0 -37 16l-201 226q-12 14 -7 25.5t26 11.5h153q23 0 37 -17l117 -137l117 137q14 16 36 17h154q20 0 26.5 -11.5t-6.5 -25.5l-202 -226q-14 -16 -37 -16h-176zM793 975q20 -18 10 -45l-68 -176q-10 -33 -51 -23q-55 16 -84 17q-92 0 -147.5 -61.5 t-55.5 -156.5v-499q0 -31 -30 -31h-246q-31 0 -31 31v942q0 31 31 31h235q27 0 31 -31l8 -117q88 170 258 170q85 0 140 -51z" glyph-name="rcaron" horiz-adv-x="802" unicode="ř"/><glyph d="M797 1860q41 0 24 -35l-123 -258q-10 -25 -34 -25h-222q-41 0 -24 35l123 258q10 25 34 25h222zM406 1030q0 -61 68.5 -102t165.5 -73t193.5 -76t165 -138t68.5 -233q0 -203 -152.5 -319t-353.5 -116q-150 0 -283 66.5t-210 159.5q-14 23 0 43l141 157q20 25 47 4 q160 -131 313 -131q78 0 132.5 38t54.5 104q0 59 -69 103t-165 79t-193.5 81t-166 137t-68.5 222q0 188 135.5 301t321.5 113q252 0 446 -190q23 -18 4 -43l-133 -162q-18 -27 -43 -8q-150 104 -264 104q-74 0 -114.5 -35t-40.5 -86z" glyph-name="Sacute" horiz-adv-x="1126" unicode="Ś"/><glyph d="M696 1430q41 0 25 -35l-123 -258q-10 -25 -35 -25h-221q-41 0 -25 35l123 258q10 25 35 25h221zM371 713q0 -33 34.5 -55.5t86 -35t113 -36t112.5 -53t86 -92t35 -150.5q0 -145 -122 -231.5t-274 -86.5q-121 0 -223 49.5t-162 118.5q-16 18 0 41l93 131q12 18 45 0 q135 -84 239.5 -84t104.5 66q0 37 -48.5 61.5t-116 47t-135 53t-115.5 95t-48 159.5q0 145 105.5 230t248.5 85q223 0 352 -152q16 -20 -2 -43l-92 -120q-12 -16 -45 2q-117 70 -182 69q-43 0 -66.5 -20t-23.5 -49z" glyph-name="sacute" horiz-adv-x="886" unicode="ś"/><glyph d="M1067 408q0 -188 -131 -301t-315 -132l-50 -41q76 -6 131.5 -51t55.5 -121q0 -131 -109.5 -182t-263.5 -29q-18 2 -18 23v107q0 20 22 20q168 -18 168 49q0 16 -21.5 27.5t-58.5 13.5t-86 -12q-25 -10 -24 14v111q0 18 10 24l61 58q-227 47 -370 213q-14 23 0 43l141 157 q20 25 47 4q160 -131 313 -131q78 0 132.5 38t54.5 104q0 59 -69 103t-165 79t-193.5 81t-166 137t-68.5 222q0 188 135.5 301t321.5 113q252 0 446 -190q23 -18 4 -43l-133 -162q-18 -27 -43 -8q-150 104 -264 104q-74 0 -114.5 -35t-40.5 -86q0 -61 68.5 -102t165.5 -73 t193.5 -76t165 -138t68.5 -233z" glyph-name="Scedilla" horiz-adv-x="1126" unicode="Ş"/><glyph d="M838 291q0 -123 -91.5 -206t-222.5 -105l-53 -46q76 -6 131 -51t55 -121q0 -131 -109.5 -182t-262.5 -29q-18 2 -19 23v107q0 20 23 20q168 -18 168 49q0 16 -21.5 27.5t-58.5 13.5t-86 -12q-25 -10 -25 14v111q0 18 10 24l62 56q-172 35 -281 157q-16 18 0 41l93 131 q12 18 45 0q135 -84 239.5 -84t104.5 66q0 37 -48.5 61.5t-116 47t-135 53t-115.5 95t-48 159.5q0 145 105.5 230t248.5 85q223 0 352 -152q16 -20 -2 -43l-92 -120q-12 -16 -45 2q-117 70 -182 69q-43 0 -66.5 -20.5t-23.5 -48.5q0 -33 34.5 -55.5t86 -35t113 -36 t112.5 -53t86 -92t35 -150.5z" glyph-name="scedilla" horiz-adv-x="886" unicode="ş"/><glyph d="M633 1581h-176q-23 0 -37 16l-201 226q-12 14 -7 25.5t26 11.5h153q23 0 37 -17l117 -137l117 137q14 16 36 17h154q20 0 26.5 -11.5t-6.5 -25.5l-202 -226q-14 -16 -37 -16zM406 1030q0 -61 68.5 -102t165.5 -73t193.5 -76t165 -138t68.5 -233q0 -203 -152.5 -319 t-353.5 -116q-150 0 -283 66.5t-210 159.5q-14 23 0 43l141 157q20 25 47 4q160 -131 313 -131q78 0 132.5 38t54.5 104q0 59 -69 103t-165 79t-193.5 81t-166 137t-68.5 222q0 188 135.5 301t321.5 113q252 0 446 -190q23 -18 4 -43l-133 -162q-18 -27 -43 -8 q-150 104 -264 104q-74 0 -114.5 -35t-40.5 -86z" glyph-name="Scaron" horiz-adv-x="1126" unicode="Š"/><glyph d="M532 1151h-176q-23 0 -37 16l-200 226q-12 14 -7 25.5t25 11.5h154q23 0 37 -17l116 -137l117 137q14 16 37 17h154q20 0 26 -11.5t-6 -25.5l-203 -226q-14 -16 -37 -16zM371 713q0 -33 34.5 -55.5t86 -35t113 -36t112.5 -53t86 -92t35 -150.5q0 -145 -122 -231.5 t-274 -86.5q-121 0 -223 49.5t-162 118.5q-16 18 0 41l93 131q12 18 45 0q135 -84 239.5 -84t104.5 66q0 37 -48.5 61.5t-116 47t-135 53t-115.5 95t-48 159.5q0 145 105.5 230t248.5 85q223 0 352 -152q16 -20 -2 -43l-92 -120q-12 -16 -45 2q-117 70 -182 69 q-43 0 -66.5 -20t-23.5 -49z" glyph-name="scaron" horiz-adv-x="886" unicode="š"/><glyph d="M1028 1434q31 0 31 -31v-219q0 -31 -31 -31h-305v-1122q0 -31 -31 -31h-24l-76 -66q76 -6 131 -51t55 -121q0 -131 -109.5 -182t-262.5 -29q-18 2 -19 23v107q0 20 23 20q168 -18 168 49q0 16 -21.5 27.5t-58.5 13.5t-86 -12q-25 -10 -25 14v111q0 18 10 24l78 72h-39 q-31 0 -30 31v1122h-306q-31 0 -30 31v219q0 31 30 31h928z" glyph-name="Tcommaaccent" horiz-adv-x="1128" unicode="Ţ"/><glyph d="M674 1004q31 0 31 -31v-187q0 -31 -31 -30h-144v-725q0 -31 -30 -31h-23l-69 -59q76 -6 131 -51.5t55 -120.5q0 -131 -109.5 -182.5t-263.5 -28.5q-18 4 -18 22v107q0 20 22 20q168 -18 168 49q0 16 -21.5 27.5t-58.5 13.5t-86 -12q-25 -10 -24 14v111q0 18 10 24l72 66 h-31q-31 0 -31 31v725h-143q-31 0 -31 30v187q0 31 31 31h143v276q0 31 31 31h246q31 0 30 -31v-276h144z" glyph-name="tcommaaccent" horiz-adv-x="753" unicode="ţ"/><glyph d="M653 1581h-176q-23 0 -37 16l-200 226q-12 14 -7 25.5t25 11.5h154q23 0 37 -17l116 -137l117 137q14 16 37 17h153q20 0 26.5 -11.5t-5.5 -25.5l-203 -226q-14 -16 -37 -16zM1028 1434q31 0 31 -31v-219q0 -31 -31 -31h-305v-1122q0 -31 -31 -31h-256q-31 0 -30 31v1122 h-306q-31 0 -30 31v219q0 31 30 31h928z" glyph-name="Tcaron" horiz-adv-x="1128" unicode="Ť"/><glyph d="M985 1434q41 0 25 -35l-123 -258q-10 -25 -35 -25h-221q-41 0 -25 35l123 258q10 25 35 25h221zM674 1004q31 0 31 -31v-187q0 -31 -31 -30h-144v-725q0 -31 -30 -31h-246q-31 0 -31 31v725h-143q-31 0 -31 30v187q0 31 31 31h143v276q0 31 31 31h246q31 0 30 -31v-276 h144z" glyph-name="tcaron" horiz-adv-x="1024" unicode="ť"/><glyph d="M1028 1434q31 0 31 -31v-219q0 -31 -31 -31h-305v-149h160q31 0 30 -31v-176q0 -31 -30 -31h-160v-735q0 -31 -31 -31h-256q-31 0 -30 31v735h-158q-31 0 -31 31v176q0 31 31 31h158v149h-306q-31 0 -30 31v219q0 31 30 31h928z" glyph-name="Tbar" horiz-adv-x="1128" unicode="Ŧ"/><glyph d="M674 756h-144v-84h144q31 0 31 -31v-188q0 -31 -31 -31h-144v-391q0 -31 -30 -31h-246q-31 0 -31 31v391h-143q-31 0 -31 31v188q0 31 31 31h143v84h-143q-31 0 -31 30v187q0 31 31 31h143v276q0 31 31 31h246q31 0 30 -31v-276h144q31 0 31 -31v-187q0 -30 -31 -30z" glyph-name="tbar" horiz-adv-x="753" unicode="ŧ"/><glyph d="M971 1860q31 0 30 -31v-176q0 -31 -30 -31h-635q-31 0 -31 31v176q0 31 31 31h635zM1174 1434q31 0 30 -31v-846q0 -276 -152.5 -430t-398.5 -154q-248 0 -400.5 154t-152.5 430v846q0 31 31 31h256q31 0 31 -31v-846q0 -270 235 -270q115 0 174.5 69.5t59.5 200.5v846 q0 31 31 31h256z" glyph-name="Umacron" horiz-adv-x="1304" unicode="Ū"/><glyph d="M252 1192q-31 0 -31 31v176q0 31 31 31h635q31 0 31 -31v-176q0 -31 -31 -31h-635zM1030 1004q31 0 31 -31v-942q0 -31 -31 -31h-237q-27 0 -31 31l-8 108q-117 -166 -291 -166q-170 0 -276.5 117t-106.5 316v567q0 31 31 31h245q31 0 31 -31v-506q0 -111 52.5 -159 t123.5 -48q90 0 140.5 56.5t50.5 121.5v535q0 31 30 31h246z" glyph-name="umacron" horiz-adv-x="1150" unicode="ū"/><glyph d="M799 1833q6 29 32 29h123q33 0 29 -31q-10 -115 -99 -190.5t-231 -75.5q-143 0 -230 75.5t-99 190.5q-4 31 28 31h123q27 0 33 -29q10 -39 48 -68.5t97 -29.5q115 0 146 98zM1174 1434q31 0 30 -31v-846q0 -276 -152.5 -430t-398.5 -154q-248 0 -400.5 154t-152.5 430 v846q0 31 31 31h256q31 0 31 -31v-846q0 -270 235 -270q115 0 174.5 69.5t59.5 200.5v846q0 31 31 31h256z" glyph-name="Ubreve" horiz-adv-x="1304" unicode="Ŭ"/><glyph d="M569 1135q-143 0 -230 75.5t-99 190.5q-2 31 28 31h123q27 0 33 -29q10 -39 48 -68.5t97 -29.5q115 0 146 98q6 29 33 29h122q31 0 29 -31q-10 -115 -99.5 -190.5t-230.5 -75.5zM1030 1004q31 0 31 -31v-942q0 -31 -31 -31h-237q-27 0 -31 31l-8 108q-117 -166 -291 -166 q-170 0 -276.5 117t-106.5 316v567q0 31 31 31h245q31 0 31 -31v-506q0 -111 52.5 -159t123.5 -48q90 0 140.5 56.5t50.5 121.5v535q0 31 30 31h246z" glyph-name="ubreve" horiz-adv-x="1150" unicode="ŭ"/><glyph d="M655 1956q86 0 150.5 -64.5t64.5 -152.5t-64.5 -151.5t-150.5 -63.5q-92 0 -157.5 63.5t-65.5 151.5q0 90 64.5 153.5t158.5 63.5zM651 1694q20 0 34.5 14t14.5 33q0 20 -14 33.5t-35 13.5q-18 0 -32.5 -13.5t-14.5 -33.5q0 -18 14.5 -32.5t32.5 -14.5zM1174 1434 q31 0 30 -31v-846q0 -276 -152.5 -430t-398.5 -154q-248 0 -400.5 154t-152.5 430v846q0 31 31 31h256q31 0 31 -31v-846q0 -270 235 -270q115 0 174.5 69.5t59.5 200.5v846q0 31 31 31h256z" glyph-name="Uring" horiz-adv-x="1304" unicode="Ů"/><glyph d="M571 1094q-92 0 -157.5 63.5t-65.5 151.5q0 90 64.5 153.5t158.5 63.5q86 0 150.5 -64.5t64.5 -152.5t-64.5 -151.5t-150.5 -63.5zM567 1358q-18 0 -32.5 -13.5t-14.5 -33.5q0 -18 14.5 -32.5t32.5 -14.5q20 0 34.5 14t14.5 33q0 20 -14.5 33.5t-34.5 13.5zM1030 1004 q31 0 31 -31v-942q0 -31 -31 -31h-237q-27 0 -31 31l-8 108q-117 -166 -291 -166q-170 0 -276.5 117t-106.5 316v567q0 31 31 31h245q31 0 31 -31v-506q0 -111 52.5 -159t123.5 -48q90 0 140.5 56.5t50.5 121.5v535q0 31 30 31h246z" glyph-name="uring" horiz-adv-x="1150" unicode="ů"/><glyph d="M776 1860q41 0 25 -35l-123 -258q-10 -25 -35 -25h-221q-41 0 -25 35l123 258q10 25 35 25h221zM1176 1860q41 0 24 -35l-123 -258q-10 -25 -35 -25h-221q-41 0 -24 35l123 258q10 25 34 25h222zM1174 1434q31 0 30 -31v-846q0 -276 -152.5 -430t-398.5 -154 q-248 0 -400.5 154t-152.5 430v846q0 31 31 31h256q31 0 31 -31v-846q0 -270 235 -270q115 0 174.5 69.5t59.5 200.5v846q0 31 31 31h256z" glyph-name="Uhungarumlaut" horiz-adv-x="1304" unicode="Ű"/><glyph d="M338 1112q-41 0 -25 35l123 258q10 25 35 25h221q41 0 25 -35l-123 -258q-10 -25 -35 -25h-221zM1092 1430q41 0 24 -35l-123 -258q-10 -25 -35 -25h-221q-41 0 -24 35l123 258q10 25 34 25h222zM1030 1004q31 0 31 -31v-942q0 -31 -31 -31h-237q-27 0 -31 31l-8 108 q-117 -166 -291 -166q-170 0 -276.5 117t-106.5 316v567q0 31 31 31h245q31 0 31 -31v-506q0 -111 52.5 -159t123.5 -48q90 0 140.5 56.5t50.5 121.5v535q0 31 30 31h246z" glyph-name="uhungarumlaut" horiz-adv-x="1150" unicode="ű"/><glyph d="M1174 1434q31 0 30 -31v-846q0 -215 -95 -358.5t-261 -196.5q-152 -61 -152 -149q0 -37 30 -60.5t95 -11.5v-187q-47 -20 -109.5 -21t-122 17.5t-100 70.5t-40.5 130q0 109 96 191q-203 33 -324 182t-121 393v846q0 31 31 31h256q31 0 31 -31v-846q0 -270 235 -270 q115 0 174.5 69.5t59.5 200.5v846q0 31 31 31h256z" glyph-name="Uogonek" horiz-adv-x="1304" unicode="Ų"/><glyph d="M1030 1004q31 0 31 -31v-942q0 -25 -23 -31q-80 0 -127 -46t-47 -101q0 -37 30 -60.5t95 -11.5v-187q-47 -20 -109.5 -21t-122 17.5t-100.5 70.5t-41 130q0 139 146 238v2l-8 108q-117 -166 -291 -166q-170 0 -276.5 117t-106.5 316v567q0 31 31 31h245q31 0 31 -31v-506 q0 -111 52.5 -159t123.5 -48q90 0 140.5 56.5t50.5 121.5v535q0 31 30 31h246z" glyph-name="uogonek" horiz-adv-x="1150" unicode="ų"/><glyph d="M819 1581q-20 0 -25.5 11.5t7.5 25.5l200 225q14 16 37 17h176q23 0 37 -17l203 -225q12 -14 6 -25.5t-26 -11.5h-154q-23 0 -37 16l-117 138l-116 -138q-14 -16 -37 -16h-154zM2167 1434q35 0 24 -35l-434 -1374q-8 -25 -39 -25h-250q-29 0 -34 25l-310 931l-311 -931 q-8 -25 -33 -25h-250q-33 0 -38 25l-431 1374q-14 35 25 35h266q27 0 35 -25l272 -987l310 987q2 14 16 21q8 4 16 4h246q10 0 19 -4q8 -6 14 -21l309 -987l275 987q6 25 34 25h269z" glyph-name="Wcircumflex" horiz-adv-x="2252" unicode="Ŵ"/><glyph d="M616 1151q-20 0 -25 11.5t7 25.5l201 225q14 16 37 17h176q23 0 37 -17l202 -225q12 -14 6 -25.5t-26 -11.5h-154q-23 0 -37 16l-116 138l-117 -138q-14 -16 -37 -16h-154zM1778 1004q37 0 24 -35l-348 -944q-8 -25 -37 -25h-237q-29 0 -37 25l-221 581l-222 -581 q-8 -25 -36 -25h-236q-27 0 -37 25l-348 944q-12 35 25 35h241q27 0 37 -25l209 -619l217 619q6 18 21 20q8 4 16 5h227q8 0 17 -5q14 -2 20 -20l219 -619l207 619q8 25 37 25h242z" glyph-name="wcircumflex" horiz-adv-x="1845" unicode="ŵ"/><glyph d="M336 1581q-20 0 -25.5 11.5t6.5 25.5l201 225q14 16 37 17h176q23 0 37 -17l203 -225q12 -14 6 -25.5t-27 -11.5h-153q-23 0 -37 16l-117 138l-117 -138q-14 -16 -37 -16h-153zM1200 1434q41 0 21 -37l-418 -738v-628q0 -31 -31 -31h-258q-31 0 -31 31v635l-417 731 q-20 37 20 37h270q25 0 37 -21l250 -450l250 450q12 20 37 21h270z" glyph-name="Ycircumflex" horiz-adv-x="1286" unicode="Ŷ"/><glyph d="M666 1430q23 0 36 -17l203 -225q12 -14 6 -25.5t-26 -11.5h-154q-23 0 -37 16l-116 138l-117 -138q-14 -16 -37 -16h-154q-20 0 -25 11.5t7 25.5l201 225q14 16 36 17h177zM1092 1004q37 0 24 -35l-530 -1334q-8 -25 -37 -24h-240q-43 0 -24 35l145 352l-387 971 q-12 35 25 35h247q29 0 37 -25l226 -619l225 619q8 25 37 25h252z" glyph-name="ycircumflex" horiz-adv-x="1159" unicode="ŷ"/><glyph d="M409.5 1569q-61.5 0 -106.5 44t-45 109q0 63 45 107.5t106.5 44.5t106.5 -44t45 -108q0 -66 -45 -109.5t-106.5 -43.5zM874.5 1569q-61.5 0 -106.5 44t-45 109q0 63 45 107.5t106.5 44.5t106.5 -44t45 -108q0 -66 -45 -109.5t-106.5 -43.5zM1200 1434q41 0 21 -37 l-418 -738v-628q0 -31 -31 -31h-258q-31 0 -31 31v635l-417 731q-20 37 20 37h270q25 0 37 -21l250 -450l250 450q12 20 37 21h270z" glyph-name="Ydieresis" horiz-adv-x="1286" unicode="Ÿ"/><glyph d="M846 1860q41 0 24 -35l-122 -258q-10 -25 -35 -25h-221q-41 0 -25 35l123 258q10 25 35 25h221zM1075 281q31 0 31 -31v-219q0 -31 -31 -31h-964q-31 0 -31 31v229q0 18 12 37l649 856h-610q-31 0 -31 31v219q0 31 31 31h924q31 0 30 -31v-229q0 -18 -12 -37l-651 -856 h653z" glyph-name="Zacute" horiz-adv-x="1183" unicode="Ź"/><glyph d="M731 1430q41 0 25 -35l-123 -258q-10 -25 -35 -25h-221q-41 0 -25 35l123 258q10 25 35 25h221zM909 973v-195q0 -25 -14 -39l-477 -489h461q31 0 30 -31v-188q0 -31 -30 -31h-799q-31 0 -31 31v196q0 25 14 39l476 490h-459q-31 0 -31 30v187q0 31 31 31h799 q30 0 30 -31z" glyph-name="zacute" horiz-adv-x="958" unicode="ź"/><glyph d="M593.5 1569q-61.5 0 -106.5 44t-45 109q0 63 45 107.5t106.5 44.5t106.5 -44t45 -108q0 -66 -45 -109.5t-106.5 -43.5zM1075 281q31 0 31 -31v-219q0 -31 -31 -31h-964q-31 0 -31 31v229q0 18 12 37l649 856h-610q-31 0 -31 31v219q0 31 31 31h924q31 0 30 -31v-229 q0 -18 -12 -37l-651 -856h653z" glyph-name="Zdotaccent" horiz-adv-x="1183" unicode="Ż"/><glyph d="M479.5 1139q-61.5 0 -106.5 44t-45 109q0 63 45 107.5t106.5 44.5t106.5 -44t45 -108q0 -66 -45 -109.5t-106.5 -43.5zM909 973v-195q0 -25 -14 -39l-477 -489h461q31 0 30 -31v-188q0 -31 -30 -31h-799q-31 0 -31 31v196q0 25 14 39l476 490h-459q-31 0 -31 30v187 q0 31 31 31h799q30 0 30 -31z" glyph-name="zdotaccent" horiz-adv-x="958" unicode="ż"/><glyph d="M682 1581h-176q-23 0 -37 16l-201 226q-12 14 -7 25.5t26 11.5h153q23 0 37 -17l117 -137l117 137q14 16 37 17h153q20 0 26.5 -11.5t-5.5 -25.5l-203 -226q-14 -16 -37 -16zM1075 281q31 0 31 -31v-219q0 -31 -31 -31h-964q-31 0 -31 31v229q0 18 12 37l649 856h-610 q-31 0 -31 31v219q0 31 31 31h924q31 0 30 -31v-229q0 -18 -12 -37l-651 -856h653z" glyph-name="Zcaron" horiz-adv-x="1183" unicode="Ž"/><glyph d="M567 1151h-176q-23 0 -37 16l-200 226q-12 14 -7 25.5t25 11.5h154q23 0 36 -17l117 -137l117 137q14 16 37 17h153q20 0 26.5 -11.5t-5.5 -25.5l-203 -226q-14 -16 -37 -16zM909 973v-195q0 -25 -14 -39l-477 -489h461q31 0 30 -31v-188q0 -31 -30 -31h-799 q-31 0 -31 31v196q0 25 14 39l476 490h-459q-31 0 -31 30v187q0 31 31 31h799q30 0 30 -31z" glyph-name="zcaron" horiz-adv-x="958" unicode="ž"/><glyph d="M770 1432q20 -12 21 -37v-217q0 -18 -11.5 -25.5t-25.5 2.5q-57 35 -121 35q-66 0 -85.5 -28.5t-19.5 -90.5v-67h213q31 0 31 -31v-187q0 -31 -31 -30h-213v-791q0 -176 -99 -265t-271 -89q-115 0 -178 35q-20 12 -21 37v217q0 18 10.5 24t26.5 -2q57 -35 121 -35 q66 0 85 29t19 90v750h-119q-31 0 -30 30v187q0 31 30 31h119v108q0 176 99.5 265t269.5 89q117 1 180 -34z" glyph-name="florin" horiz-adv-x="749" unicode="ƒ"/><glyph d="M580 1597l-201 226q-12 14 -7 25.5t25 11.5h154q23 0 37 -17l117 -137l116 137q14 16 37 17h154q20 0 26 -11.5t-6 -25.5l-203 -226q-14 -16 -36 -16h-177q-22 0 -36 16zM1343 35q14 -35 -24 -35h-266q-27 0 -35 25l-74 227h-502l-73 -227q-8 -25 -35 -25h-266 q-39 0 -25 35l496 1374q10 25 34 25h236q31 0 39 -25zM532 520h324l-162 496z" glyph-name="uni01CD" unicode="Ǎ"/><glyph d="M461 1167l-201 226q-12 14 -7 25.5t26 11.5h153q23 0 37 -17l117 -137l116 137q14 16 37 17h154q20 0 26.5 -11.5t-6.5 -25.5l-202 -226q-14 -16 -37 -16h-176q-23 0 -37 16zM1090 1004q31 0 30 -31v-942q0 -31 -30 -31h-224q-27 0 -30 31l-7 73q-117 -131 -286 -131 q-207 0 -345.5 153t-138.5 374t138.5 373.5t345.5 152.5q166 0 286 -137l7 84q4 31 30 31h224zM582 254q96 0 160.5 72.5t64.5 175.5q0 100 -64.5 173t-160.5 73q-98 0 -163 -71t-65 -175q0 -106 65 -177t163 -71z" glyph-name="uni01CE" horiz-adv-x="1210" unicode="ǎ"/><glyph d="M358 1581h-176q-23 0 -37 16l-200 226q-12 14 -7 25.5t25 11.5h154q23 0 37 -17l116 -137l117 137q14 16 37 17h154q20 0 26 -11.5t-6 -25.5l-203 -226q-14 -16 -37 -16zM111 1403q0 31 30 31h256q31 0 31 -31v-1372q0 -31 -31 -31h-256q-31 0 -30 31v1372z" glyph-name="uni01CF" horiz-adv-x="538" unicode="Ǐ"/><glyph d="M332 1151h-176q-23 0 -37 16l-201 226q-12 14 -7 25.5t26 11.5h153q23 0 37 -17l117 -137l116 137q14 16 37 17h154q20 0 26.5 -11.5t-6.5 -25.5l-202 -226q-14 -16 -37 -16zM90 973q0 31 31 31h246q31 0 30 -31v-942q0 -31 -30 -31h-246q-31 0 -31 31v942z" glyph-name="uni01D0" horiz-adv-x="487" unicode="ǐ"/><glyph d="M895 1581h-176q-23 0 -37 16l-201 226q-12 14 -7 25.5t26 11.5h153q23 0 37 -17l117 -137l117 137q14 16 37 17h153q20 0 26.5 -11.5t-5.5 -25.5l-203 -226q-14 -16 -37 -16zM807 -27q-305 0 -521 215t-216 522.5t216 523.5t521 216q307 0 523 -216t216 -523.5 t-216 -522.5t-523 -215zM807 283q176 0 298 123.5t122 304.5q0 182 -122 307t-298 125t-297 -125t-121 -307q0 -180 121 -304t297 -124z" glyph-name="uni01D1" horiz-adv-x="1615" unicode="Ǒ"/><glyph d="M670 1151h-176q-23 0 -37 16l-201 226q-12 14 -7 25.5t25 11.5h154q23 0 37 -17l117 -137l116 137q14 16 37 17h154q20 0 26.5 -11.5t-6.5 -25.5l-202 -226q-14 -16 -37 -16zM582 -27q-217 0 -370 153t-153 374t153 373.5t370 152.5q219 0 371.5 -152.5t152.5 -373.5 t-152.5 -374t-371.5 -153zM582 258q96 0 161.5 68.5t65.5 173t-65.5 173t-161.5 68.5q-94 0 -161 -68.5t-67 -173t67 -173t161 -68.5z" glyph-name="uni01D2" horiz-adv-x="1165" unicode="ǒ"/><glyph d="M741 1581h-176q-23 0 -37 16l-200 226q-12 14 -7 25.5t25 11.5h154q23 0 37 -17l116 -137l117 137q14 16 37 17h154q20 0 26 -11.5t-6 -25.5l-203 -226q-14 -16 -37 -16zM1174 1434q31 0 30 -31v-846q0 -276 -152.5 -430t-398.5 -154q-248 0 -400.5 154t-152.5 430v846 q0 31 31 31h256q31 0 31 -31v-846q0 -270 235 -270q115 0 174.5 69.5t59.5 200.5v846q0 31 31 31h256z" glyph-name="uni01D3" horiz-adv-x="1304" unicode="Ǔ"/><glyph d="M444 1167l-200 226q-12 14 -7 25.5t25 11.5h154q23 0 37 -17l116 -137l117 137q14 16 37 17h154q20 0 26 -11.5t-6 -25.5l-203 -226q-14 -16 -37 -16h-176q-23 0 -37 16zM1030 1004q31 0 31 -31v-942q0 -31 -31 -31h-237q-27 0 -31 31l-8 108q-117 -166 -291 -166 q-170 0 -276.5 117t-106.5 316v567q0 31 31 31h245q31 0 31 -31v-506q0 -111 52.5 -159t123.5 -48q90 0 140.5 56.5t50.5 121.5v535q0 31 30 31h246z" glyph-name="uni01D4" horiz-adv-x="1150" unicode="ǔ"/><glyph d="M768 -27q-74 -43 -74 -120q0 -37 30 -60.5t95 -11.5v-187q-47 -20 -109.5 -21t-122 17.5t-100.5 70.5t-41 130q0 129 125 221q-221 76 -361 266.5t-140 432.5q0 307 216 523t521 216q307 0 523 -216t216 -523.5t-216 -522.5t-523 -215h-39zM389 711q0 -180 121 -304 t297 -124t298 123.5t122 304.5q0 182 -122 307t-298 125t-297 -125t-121 -307z" glyph-name="uni01EA" horiz-adv-x="1615" unicode="Ǫ"/><glyph d="M659 -20q-98 -51 -98 -127q0 -37 31 -60.5t94 -11.5v-187q-47 -20 -109.5 -21t-122 17.5t-100.5 70.5t-41 130q0 121 113 205q-162 51 -264.5 188.5t-102.5 315.5q0 221 153 373.5t370 152.5q219 0 371.5 -152.5t152.5 -373.5q0 -199 -127 -345t-320 -175zM354 499.5 q0 -104.5 66.5 -173t161.5 -68.5q96 0 161.5 68.5t65.5 173t-65.5 173t-161.5 68.5q-94 0 -161 -68.5t-67 -173z" glyph-name="uni01EB" horiz-adv-x="1165" unicode="ǫ"/><glyph d="M406 1030q0 -61 68.5 -102t165.5 -73t193.5 -76t165 -138t68.5 -233q0 -203 -152.5 -319t-353.5 -116q-150 0 -283 66.5t-210 159.5q-14 23 0 43l141 157q20 25 47 4q160 -131 313 -131q78 0 132.5 38t54.5 104q0 59 -69 103t-165 79t-193.5 81t-166 137t-68.5 222 q0 188 135.5 301t321.5 113q252 0 446 -190q23 -18 4 -43l-133 -162q-18 -27 -43 -8q-150 104 -264 104q-74 0 -114.5 -35t-40.5 -86zM544.5 -78q69.5 0 118 -51t48.5 -133q0 -178 -138 -338q-12 -10 -26 -10h-29q-27 0 -16 26q43 90 43 176q-70 0 -118 48.5t-48 117.5 q0 68 48 116t117.5 48z" glyph-name="Scommaaccent" horiz-adv-x="1126" unicode="Ș"/><glyph d="M371 713q0 -33 34.5 -55.5t86 -35t113 -36t112.5 -53t86 -92t35 -150.5q0 -145 -122 -231.5t-274 -86.5q-121 0 -223 49.5t-162 118.5q-16 18 0 41l93 131q12 18 45 0q135 -84 239.5 -84t104.5 66q0 37 -48.5 61.5t-116 47t-135 53t-115.5 95t-48 159.5q0 145 105.5 230 t248.5 85q223 0 352 -152q16 -20 -2 -43l-92 -120q-12 -16 -45 2q-117 70 -182 69q-43 0 -66.5 -20t-23.5 -49zM444.5 -78q69.5 0 117.5 -51t48 -133q0 -178 -137 -338q-12 -10 -27 -10h-28q-27 0 -17 26q43 90 43 176q-70 0 -117.5 48.5t-47.5 117.5q0 68 48 116t117.5 48z " glyph-name="scommaaccent" horiz-adv-x="886" unicode="ș"/><glyph d="M1028 1434q31 0 31 -31v-219q0 -31 -31 -31h-305v-1122q0 -31 -31 -31h-256q-31 0 -30 31v1122h-306q-31 0 -30 31v219q0 31 30 31h928zM565.5 -78q69.5 0 117.5 -51t48 -133q0 -178 -137 -338q-12 -10 -27 -10h-28q-27 0 -17 26q43 90 43 176q-70 0 -118 48.5t-48 117.5 q0 68 48.5 116t118 48z" glyph-name="uni021A" horiz-adv-x="1128" unicode="Ț"/><glyph d="M674 1004q31 0 31 -31v-187q0 -31 -31 -30h-144v-725q0 -31 -30 -31h-246q-31 0 -31 31v725h-143q-31 0 -31 30v187q0 31 31 31h143v276q0 31 31 31h246q31 0 30 -31v-276h144zM381 -72q70 0 118 -51t48 -133q0 -178 -137 -338q-12 -10 -27 -10h-29q-27 0 -16 26 q43 90 43 177q-70 0 -118 48t-48 117q0 68 48 116t118 48z" glyph-name="uni021B" horiz-adv-x="753" unicode="ț"/><glyph d="M270 1004h246q31 0 31 -31v-950q0 -205 -117 -313.5t-315 -115.5q-20 0 -25 17l-78 250q-8 23 15 22q86 6 149.5 54.5t63.5 146.5v889q-1 31 30 31z" glyph-name="uni0237" horiz-adv-x="628" unicode="ȷ"/><glyph d="M434 1434q23 0 37 -17l203 -225q12 -14 6 -25.5t-27 -11.5h-153q-23 0 -37 16l-117 138l-117 -138q-14 -16 -36 -16h-154q-20 0 -25.5 11.5t6.5 25.5l201 225q14 16 37 17h176z" glyph-name="circumflex" horiz-adv-x="694" unicode="ˆ"/><glyph d="M434 1155h-176q-23 0 -37 16l-201 226q-12 14 -7 25.5t26 11.5h154q23 0 36 -17l117 -137l117 137q14 16 37 17h153q20 0 26.5 -11.5t-5.5 -25.5l-203 -226q-14 -16 -37 -16z" glyph-name="caron" horiz-adv-x="694" unicode="ˇ"/><glyph d="M487 1405q6 29 33 29h123q33 0 29 -31q-10 -115 -99.5 -190.5t-230.5 -75.5q-143 0 -230 75.5t-100 190.5q-4 31 29 31h123q27 0 33 -29q10 -39 48 -68.5t97 -29.5q114 0 145 98z" glyph-name="breve" horiz-adv-x="684" unicode="˘"/><glyph d="M161.5 1139q-61.5 0 -106.5 44t-45 109q0 63 45 107.5t106.5 44.5t106.5 -44t45 -108q0 -66 -45 -109.5t-106.5 -43.5z" glyph-name="dotaccent" horiz-adv-x="323" unicode="˙"/><glyph d="M233 1526q86 0 151 -64.5t65 -152.5t-65 -151.5t-151 -63.5q-92 0 -157.5 63.5t-65.5 151.5q0 90 64.5 153.5t158.5 63.5zM229 1264q20 0 35 14t15 33q0 20 -14.5 33.5t-35.5 13.5q-18 0 -32.5 -13.5t-14.5 -33.5q0 -18 14.5 -32.5t32.5 -14.5z" glyph-name="ring" horiz-adv-x="458" unicode="˚"/><glyph d="M432 0q-82 0 -128 -46t-46 -101q0 -37 29.5 -60.5t95.5 -11.5v-187q-47 -20 -109.5 -21t-122 17.5t-100.5 70.5t-41 130q0 100 80 179t173 113t169 34v-117z" glyph-name="ogonek" horiz-adv-x="442" unicode="˛"/><glyph d="M238 1481q57 0 109 -22.5t85 -50.5t74 -50.5t78 -22.5q72 0 96 56q6 16 22 16h70q20 0 21 -21q-6 -111 -68.5 -168t-163.5 -57q-55 0 -106.5 22.5t-84 50.5t-74.5 50.5t-79 22.5q-70 0 -94 -56q-6 -16 -23 -16h-69q-20 0 -21 29q8 106 70 161.5t158 55.5z" glyph-name="tilde" horiz-adv-x="802" unicode="˜"/><glyph d="M393 1491q41 0 25 -35l-123 -258q-10 -25 -35 -24h-221q-41 0 -25 34l123 258q10 25 35 25h221zM793 1491q41 0 24 -35l-123 -258q-10 -25 -35 -24h-221q-41 0 -24 34l123 258q10 25 34 25h222z" glyph-name="hungarumlaut" horiz-adv-x="878" unicode="˝"/><glyph d="M-176 -78q70 0 118 -51t48 -133q0 -178 -137 -338q-12 -10 -27 -10h-29q-27 0 -16 26q43 90 43 176q-70 0 -118 48.5t-48 117.5q0 68 48 116t118 48z" glyph-name="uni0326" horiz-adv-x="0" unicode="̦"/><glyph d="M1343 35q14 -35 -24 -35h-1251q-39 0 -25 35l496 1374q10 25 34 25h236q31 0 39 -25zM694 1016l-252 -766h502z" glyph-name="Delta" unicode="Δ"/><glyph d="M1546 739q0 -133 -54 -266t-171 -223h225v-250h-561v342q111 53 176.5 156.5t65.5 240.5q0 176 -121 290t-299 114t-298 -114t-120 -290q0 -137 64.5 -240.5t175.5 -156.5v-342h-559v250h225q-117 90 -171 223t-54 266q0 301 215 506t522 205t523 -205t216 -506z" glyph-name="Omega" horiz-adv-x="1615" unicode="Ω"/><glyph d="M1030 1004q31 0 31 -31v-942q0 -31 -31 -31h-237q-27 0 -31 31l-8 108q-117 -166 -291 -166q-39 0 -76 7v-338q0 -31 -31 -31h-245q-31 0 -31 31v1331q0 31 31 31h245q31 0 31 -31v-506q0 -111 52.5 -159t123.5 -48q90 0 140.5 56.5t50.5 121.5v535q0 31 30 31h246z" glyph-name="mu" horiz-adv-x="1150" unicode="μ"/><glyph d="M1370 268q37 6 37 -28v-193q0 -61 -188 -61q-131 0 -218.5 73.5t-87.5 233.5v463h-299v-725q0 -31 -30 -31h-246q-31 0 -31 31v725h-172q-31 0 -31 30v187q0 31 31 31h1192q31 0 31 -31v-187q0 -31 -31 -30h-106v-404q0 -88 79 -88q45 0 70 4z" glyph-name="pi" horiz-adv-x="1454" unicode="π"/><glyph d="M301 1569q-61 0 -106 44t-45 109q0 63 45 107.5t106 44.5t106.5 -44t45.5 -108q0 -66 -45.5 -109.5t-106.5 -43.5zM766 1569q-61 0 -106.5 44t-45.5 109q0 63 45.5 107.5t106.5 44.5t106.5 -44t45.5 -108q0 -66 -45.5 -109.5t-106.5 -43.5zM911 281q31 0 31 -31v-219 q0 -31 -31 -31h-770q-31 0 -30 31v1372q0 31 30 31h768q31 0 31 -31v-219q0 -31 -31 -31h-481v-281h453q31 0 30 -30v-219q0 -31 -30 -31h-453v-311h483z" glyph-name="afii10023" horiz-adv-x="1044" unicode="Ё"/><glyph d="M403 1542q-41 0 -24 35l123 258q10 25 35 25h221q41 0 24 -35l-123 -258q-10 -25 -34 -25h-222zM920 1434q31 0 30 -31v-219q0 -31 -30 -31h-492v-1122q0 -31 -31 -31h-256q-31 0 -30 31v1372q0 31 30 31h779z" glyph-name="afii10052" horiz-adv-x="997" unicode="Ѓ"/><glyph d="M1159 397l158 -170q20 -23 0 -43q-201 -211 -506 -211q-309 0 -525 214t-216 523.5t216 524.5t525 215q303 0 506 -209q18 -20 0 -43l-158 -172q-18 -23 -43 -2q-135 115 -307 115q-135 0 -240.5 -78t-146.5 -203h440q31 0 31 -31v-219q0 -31 -31 -30h-446 q41 -131 147.5 -212t245.5 -81q172 0 307 114q25 21 43 -2z" glyph-name="afii10053" unicode="Є"/><glyph d="M111 1403q0 31 30 31h256q31 0 31 -31v-1372q0 -31 -31 -31h-256q-31 0 -30 31v1372z" glyph-name="afii10055" horiz-adv-x="538" unicode="І"/><glyph d="M36.5 1569q-61.5 0 -106.5 44t-45 109q0 63 45 107.5t106.5 44.5t106.5 -44t45 -108q0 -66 -45 -109.5t-106.5 -43.5zM501.5 1569q-61.5 0 -106.5 44t-45 109q0 63 45 107.5t106.5 44.5t106.5 -44t45 -108q0 -66 -45 -109.5t-106.5 -43.5zM111 1403q0 31 30 31h256 q31 0 31 -31v-1372q0 -31 -31 -31h-256q-31 0 -30 31v1372z" glyph-name="afii10056" horiz-adv-x="538" unicode="Ї"/><glyph d="M1343 35q14 -35 -24 -35h-266q-27 0 -35 25l-74 227h-502l-73 -227q-8 -25 -35 -25h-266q-39 0 -25 35l496 1374q10 25 34 25h236q31 0 39 -25zM532 520h324l-162 496z" glyph-name="afii10017" unicode="А"/><glyph d="M578 950q252 0 392 -130t140 -345t-140.5 -345t-391.5 -130h-437q-31 0 -30 31v1372q0 31 30 31h779q31 0 30 -31v-219q0 -31 -30 -31h-492v-203h150zM571 281q98 0 167 45t69 149.5t-68.5 149.5t-167.5 45h-143v-389h143z" glyph-name="afii10018" horiz-adv-x="1159" unicode="Б"/><glyph d="M899 766q115 -31 198 -125t83 -227q0 -414 -535 -414h-504q-31 0 -30 31v1372q0 31 30 31h502q203 0 316.5 -105.5t113.5 -265.5q0 -106 -50 -186t-124 -111zM776 1022q0 131 -162 131h-186v-274h186q162 0 162 143zM657 281q94 0 149.5 43t55.5 129q0 164 -205 163h-229 v-335h229z" glyph-name="afii10019" horiz-adv-x="1228" unicode="В"/><glyph d="M920 1434q31 0 30 -31v-219q0 -31 -30 -31h-492v-1122q0 -31 -31 -31h-256q-31 0 -30 31v1372q0 31 30 31h779z" glyph-name="afii10020" horiz-adv-x="997" unicode="Г"/><glyph d="M1593 281q31 0 31 -31v-361q0 -31 -31 -30h-258q-31 0 -30 30v111h-924v-111q0 -31 -31 -30h-258q-31 0 -31 30v361q0 10 2 14q4 14 17 15q4 2 12 2h21q74 10 127 60t53 138v924q0 31 31 31h1073q31 0 30 -31v-1122h166zM612 418q0 -72 -16 -137h514v872h-498v-735z" glyph-name="afii10021" horiz-adv-x="1685" unicode="Д"/><glyph d="M911 281q31 0 31 -31v-219q0 -31 -31 -31h-770q-31 0 -30 31v1372q0 31 30 31h768q31 0 31 -31v-219q0 -31 -31 -31h-481v-281h453q31 0 30 -30v-219q0 -31 -30 -31h-453v-311h483z" glyph-name="afii10022" horiz-adv-x="1044" unicode="Е"/><glyph d="M2103 37q10 -16 5 -26.5t-23 -10.5h-303q-25 0 -37 18l-397 555l-109 -124v-418q0 -31 -31 -31h-256q-31 0 -30 31v418l-109 124l-397 -555q-12 -18 -37 -18h-303q-18 0 -23.5 10t4.5 27l545 780l-502 580q-12 14 -7 25.5t24 11.5h319q23 0 37 -17l449 -547v533 q0 31 30 31h256q31 0 31 -31v-533l449 547q14 16 36 17h320q18 0 23.5 -11.5t-7.5 -25.5l-501 -580z" glyph-name="afii10024" horiz-adv-x="2148" unicode="Ж"/><glyph d="M797 760q100 -43 169.5 -131t69.5 -205q0 -186 -145.5 -313t-374.5 -127q-135 0 -249.5 48t-186.5 130q-18 23 2 43l162 153q20 20 45 0q94 -74 213 -73q102 0 155.5 45t53.5 119q0 63 -61.5 113t-215.5 52q-31 0 -31 31v186q0 31 33 31q80 2 132.5 15.5t76 37t30.5 45 t7 50.5q0 66 -52 102.5t-110 36.5q-106 0 -188 -68q-25 -20 -45 0l-156 150q-20 20 -2 43q68 80 175.5 128t227.5 48q186 0 323.5 -109.5t137.5 -281.5q0 -100 -57 -181t-139 -118z" glyph-name="afii10025" horiz-adv-x="1107" unicode="З"/><glyph d="M1260 1434q31 0 30 -31v-1372q0 -31 -30 -31h-256q-31 0 -31 31v893l-504 -904q-12 -20 -37 -20h-291q-31 0 -30 31v1372q0 31 30 31h256q31 0 31 -31v-895l506 905q12 20 37 21h289z" glyph-name="afii10026" horiz-adv-x="1400" unicode="И"/><glyph d="M700 1565q-143 0 -230 75.5t-99 190.5q-2 31 28 31h123q27 0 33 -29q10 -39 48 -68.5t97 -29.5q115 0 146 98q6 29 33 29h122q31 0 29 -31q-10 -115 -99.5 -190.5t-230.5 -75.5zM1260 1434q31 0 30 -31v-1372q0 -31 -30 -31h-256q-31 0 -31 31v893l-504 -904 q-12 -20 -37 -20h-291q-31 0 -30 31v1372q0 31 30 31h256q31 0 31 -31v-895l506 905q12 20 37 21h289z" glyph-name="afii10027" horiz-adv-x="1400" unicode="Й"/><glyph d="M1292 37q10 -16 5 -26.5t-23 -10.5h-303q-25 0 -37 18l-397 555l-109 -124v-418q0 -31 -31 -31h-256q-31 0 -30 31v1372q0 31 30 31h256q31 0 31 -31v-533l449 547q14 16 36 17h320q18 0 23.5 -11.5t-7.5 -25.5l-501 -580z" glyph-name="afii10028" horiz-adv-x="1339" unicode="К"/><glyph d="M1354 1434q31 0 30 -31v-1372q0 -31 -30 -31h-256q-31 0 -31 31v1122h-498v-735q0 -205 -122.5 -316.5t-321.5 -111.5q-18 0 -25 16l-77 250q-8 23 14 23q84 0 148.5 51t64.5 149v924q0 31 31 31h1073z" glyph-name="afii10029" horiz-adv-x="1495" unicode="Л"/><glyph d="M1593 1434q31 0 31 -31v-1372q0 -31 -31 -31h-256q-31 0 -30 31v717l-287 -723q-8 -25 -37 -25h-231q-27 0 -37 25l-287 723v-717q0 -31 -31 -31h-256q-31 0 -30 31v1372q0 31 30 31h289q29 0 37 -21l401 -1044l400 1044q8 20 37 21h288z" glyph-name="afii10030" horiz-adv-x="1734" unicode="М"/><glyph d="M1214 1434q31 0 31 -31v-1372q0 -31 -31 -31h-256q-31 0 -30 31v532h-500v-532q0 -31 -31 -31h-256q-31 0 -30 31v1372q0 31 30 31h256q31 0 31 -31v-559h500v559q0 31 30 31h256z" glyph-name="afii10031" horiz-adv-x="1355" unicode="Н"/><glyph d="M807 -27q-305 0 -521 215t-216 522.5t216 523.5t521 216q307 0 523 -216t216 -523.5t-216 -522.5t-523 -215zM807 283q176 0 298 123.5t122 304.5q0 182 -122 307t-298 125t-297 -125t-121 -307q0 -180 121 -304t297 -124z" glyph-name="afii10032" horiz-adv-x="1615" unicode="О"/><glyph d="M1214 1434q31 0 31 -31v-1372q0 -31 -31 -31h-256q-31 0 -30 31v1122h-500v-1122q0 -31 -31 -31h-256q-31 0 -30 31v1372q0 31 30 31h1073z" glyph-name="afii10033" horiz-adv-x="1355" unicode="П"/><glyph d="M578 1434q252 0 392 -130t140 -345.5t-140.5 -345.5t-391.5 -130h-150v-452q0 -31 -31 -31h-256q-31 0 -30 31v1372q0 31 30 31h437zM571 764q98 0 167 45t69 149.5t-68.5 149.5t-167.5 45h-143v-389h143z" glyph-name="afii10034" horiz-adv-x="1159" unicode="Р"/><glyph d="M1159 397l158 -170q20 -23 0 -43q-201 -211 -506 -211q-309 0 -525 214t-216 523.5t216 524.5t525 215q303 0 506 -209q18 -20 0 -43l-158 -172q-18 -23 -43 -2q-135 115 -307 115q-174 0 -293 -123t-119 -305q0 -180 119 -303t293 -123q172 0 307 114q25 21 43 -2z" glyph-name="afii10035" unicode="С"/><glyph d="M1028 1434q31 0 31 -31v-219q0 -31 -31 -31h-305v-1122q0 -31 -31 -31h-256q-31 0 -30 31v1122h-306q-31 0 -30 31v219q0 31 30 31h928z" glyph-name="afii10036" horiz-adv-x="1128" unicode="Т"/><glyph d="M1354 1434q18 0 24 -10.5t-4 -26.5l-831 -1377q-12 -20 -37 -20h-273q-41 0 -20 37l336 557l-483 803q-10 16 -4 26.5t24 10.5h270q25 0 37 -21l326 -539l325 539q12 20 37 21h273z" glyph-name="afii10037" horiz-adv-x="1437" unicode="У"/><glyph d="M1147 1311q303 0 484 -179.5t181 -415t-181 -414.5t-484 -179h-53v-92q0 -31 -31 -31h-256q-31 0 -31 31v92h-51q-303 0 -484.5 179t-181.5 414.5t181.5 415t484.5 179.5h51v92q0 31 31 31h256q31 0 31 -31v-92h53zM725 403h51v627h-51q-160 0 -251 -88t-91 -225 t91 -225.5t251 -88.5zM1147 403q160 0 251 88.5t91 225.5t-91 225t-251 88h-53v-627h53z" glyph-name="afii10038" horiz-adv-x="1871" unicode="Ф"/><glyph d="M1237 37q20 -37 -20 -37h-271q-25 0 -37 20l-258 433l-258 -433q-12 -20 -37 -20h-270q-41 0 -20 37l417 696l-397 664q-20 37 20 37h271q25 0 37 -21l237 -397l238 397q12 20 37 21h270q41 0 21 -37l-398 -664z" glyph-name="afii10039" horiz-adv-x="1302" unicode="Х"/><glyph d="M1415 281q31 0 31 -31v-361q0 -31 -31 -30h-256q-31 0 -31 30v111h-987q-31 0 -30 31v1372q0 31 30 31h256q31 0 31 -31v-1122h500v1122q0 31 30 31h256q31 0 31 -31v-1122h170z" glyph-name="afii10040" horiz-adv-x="1507" unicode="Ц"/><glyph d="M1169 1434q31 0 31 -31v-1372q0 -31 -31 -31h-256q-31 0 -30 31v573q-145 -190 -404 -190q-170 0 -294 130t-124 326v533q0 31 31 31h258q31 0 31 -31v-471q0 -111 63.5 -158t141.5 -47q119 0 208 60.5t89 105.5v510q0 31 30 31h256z" glyph-name="afii10041" horiz-adv-x="1310" unicode="Ч"/><glyph d="M2032 1434q31 0 30 -31v-1372q0 -31 -30 -31h-1891q-31 0 -30 31v1372q0 31 30 31h256q31 0 31 -31v-1122h500v1122q0 31 30 31h256q31 0 31 -31v-1122h500v1122q0 31 31 31h256z" glyph-name="afii10042" horiz-adv-x="2172" unicode="Ш"/><glyph d="M2232 281q31 0 31 -31v-361q0 -31 -31 -30h-258q-31 0 -30 30v111h-1803q-31 0 -30 31v1372q0 31 30 31h256q31 0 31 -31v-1122h500v1122q0 31 30 31h256q31 0 31 -31v-1122h500v1122q0 31 31 31h256q31 0 30 -31v-1122h170z" glyph-name="afii10043" horiz-adv-x="2324" unicode="Щ"/><glyph d="M745 950q252 0 392.5 -130t140.5 -345t-140.5 -345t-392.5 -130h-436q-31 0 -30 31v1122h-218q-31 0 -30 31v219q0 31 30 31h504q31 0 31 -31v-453h149zM739 281q98 0 167 45t69 149.5t-68.5 149.5t-167.5 45h-143v-389h143z" glyph-name="afii10044" horiz-adv-x="1327" unicode="Ъ"/><glyph d="M578 0h-437q-31 0 -30 31v1372q0 31 30 31h256q31 0 31 -31v-453h150q252 0 392 -130t140 -345t-140 -345t-392 -130zM1356 1403q0 31 30 31h256q31 0 31 -31v-1372q0 -31 -31 -31h-256q-31 0 -30 31v1372zM571 670h-143v-389h143q98 0 167 45t69 149.5t-69 149.5 t-167 45z" glyph-name="afii10045" horiz-adv-x="1783" unicode="Ы"/><glyph d="M578 0h-437q-31 0 -30 31v1372q0 31 30 31h256q31 0 31 -31v-453h150q252 0 392 -130t140 -345t-140 -345t-392 -130zM571 670h-143v-389h143q98 0 167 45t69 149.5t-69 149.5t-167 45z" glyph-name="afii10046" horiz-adv-x="1159" unicode="Ь"/><glyph d="M586 1450q309 0 525 -215t216 -524.5t-216 -523.5t-525 -214q-305 0 -506 211q-20 20 0 43l158 170q18 23 43 2q135 -115 307 -114q139 0 245.5 80.5t147.5 212.5h-446q-31 0 -31 30v219q0 31 31 31h440q-41 125 -146.5 203t-240.5 78q-172 0 -307 -115q-25 -20 -43 2 l-158 172q-18 23 0 43q203 209 506 209z" glyph-name="afii10047" unicode="Э"/><glyph d="M1266 1450q307 0 523 -216t216 -523.5t-216 -522.5t-523 -215q-268 0 -473 172t-252 433h-113v-547q0 -31 -31 -31h-256q-31 0 -30 31v1372q0 31 30 31h256q31 0 31 -31v-545h115q51 256 254 424t469 168zM1266 283q176 0 298 123.5t122 304.5q0 182 -122 307t-298 125 t-297 -125t-121 -307q0 -180 121 -304t297 -124z" glyph-name="afii10048" horiz-adv-x="2072" unicode="Ю"/><glyph d="M1073 1434q31 0 31 -31v-1372q0 -31 -31 -31h-256q-31 0 -31 31v452h-84l-296 -463q-12 -20 -37 -20h-273q-43 0 -20 37l319 487q-141 51 -216 165t-75 269q0 215 140.5 345.5t392.5 130.5h436zM643 1153q-98 0 -166.5 -45t-68.5 -149.5t68.5 -149.5t166.5 -45h143v389 h-143z" glyph-name="afii10049" horiz-adv-x="1214" unicode="Я"/><glyph d="M1090 1004q31 0 30 -31v-942q0 -31 -30 -31h-224q-27 0 -30 31l-7 73q-117 -131 -286 -131q-207 0 -345.5 153t-138.5 374t138.5 373.5t345.5 152.5q166 0 286 -137l7 84q4 31 30 31h224zM582 254q96 0 160.5 72.5t64.5 175.5q0 100 -64.5 173t-160.5 73q-98 0 -163 -71 t-65 -175q0 -106 65 -177t163 -71z" glyph-name="afii10065" horiz-adv-x="1210" unicode="а"/><glyph d="M668 1026q207 0 345 -152.5t138 -373.5t-138.5 -374t-344.5 -153q-168 0 -289 131l-6 -73q-4 -31 -31 -31h-221q-31 0 -31 31v1026q0 377 334 377h242q109 0 153 41h234q-2 -311 -387 -312h-162q-66 0 -89.5 -30.5t-23.5 -94.5l2 -135q117 123 275 123zM629 254 q98 0 161.5 70.5t63.5 177.5q0 104 -63.5 175t-161.5 71q-96 0 -161 -72t-65 -174.5t65 -175t161 -72.5z" glyph-name="afii10066" horiz-adv-x="1210" unicode="б"/><glyph d="M911 524q96 -23 153.5 -87t57.5 -148q0 -150 -126 -219.5t-341 -69.5h-534q-31 0 -31 31v942q0 31 31 31h534q172 0 282 -75t109.5 -212.5t-135.5 -192.5zM770 686q0 70 -127 70h-246v-144h250q55 0 85 14.5t34 27t4 32.5zM643 250q113 0 148.5 19.5t35.5 60.5 q0 37 -34.5 55t-145.5 18h-250v-153h246z" glyph-name="afii10067" horiz-adv-x="1169" unicode="в"/><glyph d="M791 1004q31 0 30 -31v-187q0 -31 -30 -30h-394v-725q0 -31 -30 -31h-246q-31 0 -31 31v942q0 31 31 31h670z" glyph-name="afii10068" horiz-adv-x="870" unicode="г"/><glyph d="M1438 250q31 0 30 -31v-305q0 -31 -30 -31h-246q-31 0 -31 31v86h-792v-86q0 -31 -31 -31h-246q-31 0 -31 31v346q0 8 2 12q6 6 15 7q84 0 148.5 51t64.5 149v494q0 31 31 31h899q31 0 30 -31v-723h187zM598 756v-338q0 -94 -25 -168h371v506h-346z" glyph-name="afii10069" horiz-adv-x="1529" unicode="д"/><glyph d="M1047 518q0 -68 -14.5 -97.5t-59.5 -29.5h-608q43 -172 258 -172q100 0 194 60q25 16 45 -5l107 -102q18 -23 -4 -45q-154 -154 -373 -154q-233 0 -383 151.5t-150 375t145.5 375t364.5 151.5q213 0 345.5 -147.5t132.5 -360.5zM571 768q-80 0 -137 -47t-74 -135h414 q-14 88 -69.5 135t-133.5 47z" glyph-name="afii10070" horiz-adv-x="1105" unicode="е"/><glyph d="M1894 37q12 -16 7 -26.5t-25 -10.5h-295q-23 0 -37 16l-309 353l-109 -113v-225q0 -31 -30 -31h-248q-31 0 -31 31v225l-108 113l-310 -353q-14 -16 -37 -16h-294q-20 0 -25.5 10t6.5 27l467 530l-389 400q-14 16 -9 26.5t25 10.5h293q25 0 39 -17l342 -354v340 q0 31 31 31h248q31 0 30 -31v-340l342 354q14 16 39 17h293q20 0 25.5 -10.5t-8.5 -26.5l-390 -400z" glyph-name="afii10072" horiz-adv-x="1941" unicode="ж"/><glyph d="M655 537q154 -80 154 -244q0 -143 -110.5 -226t-258.5 -83q-252 0 -356 129q-27 33 4 63l111 113q20 20 55 -2q61 -49 152 -49q49 0 91 21.5t42 72.5q0 39 -42 66.5t-139 27.5q-23 0 -36 12.5t-13 32.5v104q0 47 49 48q143 0 144 75q0 68 -107 68q-43 0 -116 -31 q-47 -31 -76 0l-88 96q-29 29 -2 60q111 125 327 125q133 0 236.5 -73t103.5 -195q0 -125 -125 -211z" glyph-name="afii10073" horiz-adv-x="880" unicode="з"/><glyph d="M1071 1004q31 0 31 -31v-942q0 -31 -31 -31h-246q-31 0 -30 31v561l-385 -572q-14 -20 -39 -20h-252q-29 0 -29 31v942q0 31 31 31h246q31 0 30 -31v-559l383 569q14 20 39 21h252z" glyph-name="afii10074" horiz-adv-x="1189" unicode="и"/><glyph d="M627 1135q-143 0 -230.5 75.5t-99.5 190.5q-2 31 29 31h123q27 0 32 -29q10 -39 48 -68.5t98 -29.5q115 0 145 98q6 29 33 29h123q31 0 28 -31q-10 -115 -99 -190.5t-230 -75.5zM1071 1004q31 0 31 -31v-942q0 -31 -31 -31h-246q-31 0 -30 31v561l-385 -572 q-14 -20 -39 -20h-252q-29 0 -29 31v942q0 31 31 31h246q31 0 30 -31v-559l383 569q14 20 39 21h252z" glyph-name="afii10075" horiz-adv-x="1189" unicode="й"/><glyph d="M1165 37q12 -16 7 -26.5t-25 -10.5h-295q-23 0 -37 16l-309 353l-109 -113v-225q0 -31 -30 -31h-246q-31 0 -31 31v942q0 31 31 31h246q31 0 30 -31v-340l342 354q14 16 39 17h293q20 0 25.5 -10.5t-9.5 -26.5l-389 -400z" glyph-name="afii10076" horiz-adv-x="1214" unicode="к"/><glyph d="M1169 1004q31 0 31 -31v-942q0 -31 -31 -31h-245q-31 0 -31 31v725h-346v-338q0 -207 -118 -317.5t-314 -110.5q-18 0 -25 16l-78 250q-8 23 15 23q84 0 148.5 51t64.5 149v494q0 31 30 31h899z" glyph-name="afii10077" horiz-adv-x="1290" unicode="л"/><glyph d="M1419 1004q31 0 31 -31v-942q0 -31 -31 -31h-245q-31 0 -31 31v436l-207 -444q-10 -23 -35 -23h-262q-25 0 -35 23l-207 442v-434q0 -31 -30 -31h-246q-31 0 -31 31v942q0 31 31 31h293q23 0 35 -23l323 -662l320 662q12 23 34 23h293z" glyph-name="afii10078" horiz-adv-x="1540" unicode="м"/><glyph d="M1085 1004q31 0 31 -31v-942q0 -31 -31 -31h-245q-31 0 -31 31v346h-412v-346q0 -31 -30 -31h-246q-31 0 -31 31v942q0 31 31 31h246q31 0 30 -31v-346h412v346q0 31 31 31h245z" glyph-name="afii10079" horiz-adv-x="1206" unicode="н"/><glyph d="M582 -27q-217 0 -370 153t-153 374t153 373.5t370 152.5q219 0 371.5 -152.5t152.5 -373.5t-152.5 -374t-371.5 -153zM582 258q96 0 161.5 68.5t65.5 173t-65.5 173t-161.5 68.5q-94 0 -161 -68.5t-67 -173t67 -173t161 -68.5z" glyph-name="afii10080" horiz-adv-x="1165" unicode="о"/><glyph d="M1085 1004q31 0 31 -31v-942q0 -31 -31 -31h-245q-31 0 -31 31v725h-412v-725q0 -31 -30 -31h-246q-31 0 -31 31v942q0 31 31 31h964z" glyph-name="afii10081" horiz-adv-x="1206" unicode="п"/><glyph d="M668 1026q207 0 345 -152.5t138 -373.5t-138.5 -374t-344.5 -153q-158 0 -271 113v-444q0 -31 -30 -31h-246q-31 0 -31 31v1331q0 31 31 31h223q27 0 31 -31l6 -84q121 137 287 137zM629 254q98 0 162.5 70.5t64.5 177.5q0 104 -64.5 175t-162.5 71q-96 0 -161 -73 t-65 -173q0 -102 65 -175t161 -73z" glyph-name="afii10082" horiz-adv-x="1210" unicode="р"/><glyph d="M582 258q100 0 190 78q25 20 45 0l148 -141q20 -20 2 -43q-156 -178 -394 -179q-217 0 -365.5 153t-148.5 374t148.5 373.5t365.5 152.5q231 0 388 -178q18 -23 -3 -43l-147 -143q-20 -20 -45 2q-88 78 -184 77q-98 0 -163 -68.5t-65 -173t65 -173t163 -68.5z" glyph-name="afii10083" horiz-adv-x="1024" unicode="с"/><glyph d="M844 1004q31 0 30 -31v-187q0 -31 -30 -30h-223v-725q0 -31 -31 -31h-246q-31 0 -31 31v725h-223q-31 0 -31 30v187q0 31 31 31h754z" glyph-name="afii10084" horiz-adv-x="933" unicode="т"/><glyph d="M1092 1004q37 0 24 -35l-530 -1334q-8 -25 -37 -24h-240q-43 0 -24 35l145 352l-387 971q-12 35 25 35h247q29 0 37 -25l226 -619l225 619q8 25 37 25h252z" glyph-name="afii10085" horiz-adv-x="1159" unicode="у"/><glyph d="M1399 1026q207 0 345 -152.5t138 -373.5t-138 -374t-345 -153q-158 0 -271 113v-444q0 -31 -30 -31h-246q-31 0 -31 31v464q-121 -127 -278 -126q-207 0 -345.5 152.5t-138.5 373.5t138.5 373.5t345.5 152.5q158 0 270 -112v444q0 31 31 31h246q31 0 30 -31v-465 q121 127 279 127zM582 258q96 0 160.5 72.5t64.5 173.5q0 102 -64.5 175t-160.5 73q-98 0 -163 -71t-65 -177q0 -104 65 -175t163 -71zM1360 254q98 0 162.5 70.5t64.5 177.5q0 104 -64.5 175t-162.5 71q-96 0 -160.5 -73t-64.5 -173q0 -102 64.5 -175t160.5 -73z" glyph-name="afii10086" horiz-adv-x="1939" unicode="ф"/><glyph d="M1083 37q10 -16 4 -26.5t-24 -10.5h-279q-23 0 -36 20l-170 265l-172 -265q-14 -20 -37 -20h-279q-18 0 -24.5 10t4.5 27l329 477l-313 453q-10 16 -4 26.5t24 10.5h279q23 0 37 -21l156 -238l153 238q14 20 37 21h279q18 0 24 -10.5t-4 -26.5l-313 -453z" glyph-name="afii10087" horiz-adv-x="1153" unicode="х"/><glyph d="M1237 250q31 0 31 -31v-305q0 -31 -31 -31h-246q-31 0 -30 31v86h-840q-31 0 -31 31v942q0 31 31 31h246q31 0 30 -31v-725h389v2h23v723q0 31 31 31h245q31 0 31 -31v-723h121z" glyph-name="afii10088" horiz-adv-x="1329" unicode="ц"/><glyph d="M1081 1004q31 0 31 -31v-942q0 -31 -31 -31h-245q-31 0 -31 31v340q-119 -133 -309 -133q-195 0 -316 111.5t-121 332.5v291q0 31 31 31h246q31 0 31 -31v-295q0 -96 46 -161.5t146 -65.5q137 0 246 153v369q0 31 31 31h245z" glyph-name="afii10089" horiz-adv-x="1200" unicode="ч"/><glyph d="M1473 1004q31 0 30 -31v-942q0 -31 -30 -31h-1352q-31 0 -31 31v942q0 31 31 31h246q31 0 30 -31v-723h246v723q0 31 31 31h246q31 0 30 -31v-723h246v723q0 31 31 31h246z" glyph-name="afii10090" horiz-adv-x="1593" unicode="ш"/><glyph d="M1647 250q31 0 30 -31v-305q0 -31 -30 -31h-246q-31 0 -31 31v86h-1249q-31 0 -31 31v942q0 31 31 31h246q31 0 30 -31v-723h246v723q0 31 31 31h246q31 0 30 -31v-723h246v723q0 31 31 31h246q31 0 30 -31v-723h144z" glyph-name="afii10091" horiz-adv-x="1738" unicode="щ"/><glyph d="M702 668q442 0 442.5 -334t-442.5 -334h-501q-31 0 -31 31v725h-98q-31 0 -31 30v187q0 31 31 31h374q31 0 31 -31v-305h225zM707 223q74 0 108.5 24.5t34.5 86t-35 86t-108 24.5h-230v-221h230z" glyph-name="afii10092" horiz-adv-x="1193" unicode="ъ"/><glyph d="M623 668q442 0 442 -334t-442 -334h-502q-31 0 -31 31v942q0 31 31 31h246q31 0 30 -31v-305h226zM1501 1004q31 0 31 -31v-942q0 -31 -31 -31h-246q-31 0 -30 31v942q0 31 30 31h246zM627 223q74 0 108.5 24.5t34.5 86t-35 86t-108 24.5h-230v-221h230z" glyph-name="afii10093" horiz-adv-x="1619" unicode="ы"/><glyph d="M623 668q442 0 442 -334t-442 -334h-502q-31 0 -31 31v942q0 31 31 31h246q31 0 30 -31v-305h226zM627 223q74 0 108.5 24.5t34.5 86t-35 86t-108 24.5h-230v-221h230z" glyph-name="afii10094" horiz-adv-x="1114" unicode="ь"/><glyph d="M461 1026q217 0 365.5 -152.5t148.5 -373.5t-148.5 -374t-365.5 -153q-238 0 -393 179q-18 23 2 43l147 141q20 20 45 0q90 -78 191 -78q143 0 204 131h-264q-31 0 -31 31v160q0 31 31 30h264q-61 131 -204 131q-96 0 -185 -77q-25 -23 -45 -2l-147 143q-20 20 -2 43 q156 178 387 178z" glyph-name="afii10095" horiz-adv-x="1024" unicode="э"/><glyph d="M1053 1026q219 0 371.5 -152.5t152.5 -373.5t-152.5 -374t-371.5 -153q-184 0 -325.5 113t-182.5 289h-148v-346q0 -31 -30 -31h-246q-31 0 -31 31v942q0 31 31 30h246q31 0 30 -30v-346h148q41 176 182.5 288.5t325.5 112.5zM1053 258q96 0 161.5 68.5t65.5 173 t-65.5 173t-161.5 68.5q-94 0 -161 -68.5t-67 -173t67 -173t161 -68.5z" glyph-name="afii10096" horiz-adv-x="1636" unicode="ю"/><glyph d="M1049 1004q31 0 30 -31v-942q0 -31 -30 -31h-246q-31 0 -31 31v305h-104l-287 -320q-14 -16 -37 -16h-252q-20 0 -25.5 11.5t9.5 25.5l284 309q-301 47 -301 324q0 334 443 334h547zM498 780q-143 0 -143.5 -110.5t143.5 -110.5h274v221h-274z" glyph-name="afii10097" horiz-adv-x="1169" unicode="я"/><glyph d="M376.5 1200q-61.5 0 -106.5 44t-45 110q0 63 45 107t106.5 44t106.5 -44t45 -107q0 -66 -45 -110t-106.5 -44zM841.5 1200q-61.5 0 -106.5 44t-45 110q0 63 45 107t106.5 44t106.5 -44t45 -107q0 -66 -45 -110t-106.5 -44zM1047 518q0 -68 -14.5 -97.5t-59.5 -29.5h-608 q43 -172 258 -172q100 0 194 60q25 16 45 -5l107 -102q18 -23 -4 -45q-154 -154 -373 -154q-233 0 -383 151.5t-150 375t145.5 375t364.5 151.5q213 0 345.5 -147.5t132.5 -360.5zM571 768q-80 0 -137 -47t-74 -135h414q-14 88 -69.5 135t-133.5 47z" glyph-name="afii10071" horiz-adv-x="1105" unicode="ё"/><glyph d="M330 1112q-41 0 -25 35l123 258q10 25 35 25h221q41 0 25 -35l-123 -258q-10 -25 -35 -25h-221zM791 1004q31 0 30 -31v-187q0 -31 -30 -30h-394v-725q0 -31 -30 -31h-246q-31 0 -31 31v942q0 31 31 31h670z" glyph-name="afii10100" horiz-adv-x="870" unicode="ѓ"/><glyph d="M965 195q20 -20 2 -43q-156 -178 -394 -179q-217 0 -365.5 153t-148.5 374t148.5 373.5t365.5 152.5q231 0 388 -178q18 -23 -3 -43l-147 -143q-20 -20 -45 2q-88 78 -184 77q-143 0 -205 -131h264q31 0 31 -30v-160q0 -31 -31 -31h-264q61 -131 205 -131q100 0 190 78 q25 20 45 0z" glyph-name="afii10101" horiz-adv-x="1024" unicode="є"/><glyph d="M10.5 1139q-61.5 0 -106.5 44t-45 109q0 63 45 107.5t106.5 44.5t106.5 -44t45 -108q0 -66 -45 -109.5t-106.5 -43.5zM475.5 1139q-61.5 0 -106.5 44t-45 109q0 63 45 107.5t106.5 44.5t106.5 -44t45 -108q0 -66 -45 -109.5t-106.5 -43.5zM90 973q0 31 31 31h246 q31 0 30 -31v-942q0 -31 -30 -31h-246q-31 0 -31 31v942z" glyph-name="afii10104" horiz-adv-x="487" unicode="ї"/><glyph d="M920 1538q31 0 30 -31v-323q0 -31 -30 -31h-492v-1122q0 -31 -31 -31h-256q-31 0 -30 31v1372q0 31 30 31h529v73q0 31 30 31h220z" glyph-name="afii10050" horiz-adv-x="997" unicode="Ґ"/><glyph d="M791 1130q31 0 30 -30v-314q0 -31 -30 -30h-394v-725q0 -31 -30 -31h-246q-31 0 -31 31v942q0 31 31 31h393v96q0 31 31 30h246z" glyph-name="afii10098" horiz-adv-x="870" unicode="ґ"/><glyph d="M954 1567l-123 258q-16 35 25 35h221q25 0 35 -25l123 -258q16 -35 -25 -35h-221q-25 0 -35 25zM2167 1434q35 0 24 -35l-434 -1374q-8 -25 -39 -25h-250q-29 0 -34 25l-310 931l-311 -931q-8 -25 -33 -25h-250q-33 0 -38 25l-431 1374q-14 35 25 35h266q27 0 35 -25 l272 -987l310 987q2 14 16 21q8 4 16 4h246q10 0 19 -4q8 -6 14 -21l309 -987l275 987q6 25 34 25h269z" glyph-name="Wgrave" horiz-adv-x="2252" unicode="Ẁ"/><glyph d="M752 1137l-123 258q-16 35 24 35h221q25 0 35 -25l123 -258q16 -35 -24 -35h-222q-24 0 -34 25zM1778 1004q37 0 24 -35l-348 -944q-8 -25 -37 -25h-237q-29 0 -37 25l-221 581l-222 -581q-8 -25 -36 -25h-236q-27 0 -37 25l-348 944q-12 35 25 35h241q27 0 37 -25 l209 -619l217 619q6 18 21 20q8 4 16 5h227q8 0 17 -5q14 -2 20 -20l219 -619l207 619q8 25 37 25h242z" glyph-name="wgrave" horiz-adv-x="1845" unicode="ẁ"/><glyph d="M1024 1542q-41 0 -25 35l123 258q10 25 35 25h221q41 0 25 -35l-123 -258q-10 -25 -35 -25h-221zM2167 1434q35 0 24 -35l-434 -1374q-8 -25 -39 -25h-250q-29 0 -34 25l-310 931l-311 -931q-8 -25 -33 -25h-250q-33 0 -38 25l-431 1374q-14 35 25 35h266q27 0 35 -25 l272 -987l310 987q2 14 16 21q8 4 16 4h246q10 0 19 -4q8 -6 14 -21l309 -987l275 987q6 25 34 25h269z" glyph-name="Wacute" horiz-adv-x="2252" unicode="Ẃ"/><glyph d="M821 1112q-41 0 -24 35l123 258q10 25 34 25h222q41 0 24 -35l-123 -258q-10 -25 -35 -25h-221zM1778 1004q37 0 24 -35l-348 -944q-8 -25 -37 -25h-237q-29 0 -37 25l-221 581l-222 -581q-8 -25 -36 -25h-236q-27 0 -37 25l-348 944q-12 35 25 35h241q27 0 37 -25 l209 -619l217 619q6 18 21 20q8 4 16 5h227q8 0 17 -5q14 -2 20 -20l219 -619l207 619q8 25 37 25h242z" glyph-name="wacute" horiz-adv-x="1845" unicode="ẃ"/><glyph d="M892.5 1569q-61.5 0 -106.5 44t-45 109q0 63 45 107.5t106.5 44.5t106.5 -44t45 -108q0 -66 -45 -109.5t-106.5 -43.5zM1357.5 1569q-61.5 0 -106.5 44t-45 109q0 63 45 107.5t106.5 44.5t106.5 -44t45 -108q0 -66 -45 -109.5t-106.5 -43.5zM2167 1434q35 0 24 -35 l-434 -1374q-8 -25 -39 -25h-250q-29 0 -34 25l-310 931l-311 -931q-8 -25 -33 -25h-250q-33 0 -38 25l-431 1374q-14 35 25 35h266q27 0 35 -25l272 -987l310 987q2 14 16 21q8 4 16 4h246q10 0 19 -4q8 -6 14 -21l309 -987l275 987q6 25 34 25h269z" glyph-name="Wdieresis" horiz-adv-x="2252" unicode="Ẅ"/><glyph d="M690.5 1139q-61.5 0 -106.5 44t-45 109q0 63 45 107.5t106.5 44.5t106.5 -44t45 -108q0 -66 -45 -109.5t-106.5 -43.5zM1155.5 1139q-61.5 0 -106.5 44t-45 109q0 63 45 107.5t106.5 44.5t106.5 -44t45 -108q0 -66 -45 -109.5t-106.5 -43.5zM1778 1004q37 0 24 -35 l-348 -944q-8 -25 -37 -25h-237q-29 0 -37 25l-221 581l-222 -581q-8 -25 -36 -25h-236q-27 0 -37 25l-348 944q-12 35 25 35h241q27 0 37 -25l209 -619l217 619q6 18 21 20q8 4 16 5h227q8 0 17 -5q14 -2 20 -20l219 -619l207 619q8 25 37 25h242z" glyph-name="wdieresis" horiz-adv-x="1845" unicode="ẅ"/><glyph d="M471 1567l-123 258q-16 35 25 35h221q25 0 35 -25l123 -258q16 -35 -25 -35h-221q-25 0 -35 25zM1200 1434q41 0 21 -37l-418 -738v-628q0 -31 -31 -31h-258q-31 0 -31 31v635l-417 731q-20 37 20 37h270q25 0 37 -21l250 -450l250 450q12 20 37 21h270z" glyph-name="Ygrave" horiz-adv-x="1286" unicode="Ỳ"/><glyph d="M307 1430h221q25 0 35 -25l123 -258q16 -35 -24 -35h-222q-25 0 -34 25l-123 258q-17 35 24 35zM1092 1004q37 0 24 -35l-530 -1334q-8 -25 -37 -24h-240q-43 0 -24 35l145 352l-387 971q-12 35 25 35h247q29 0 37 -25l226 -619l225 619q8 25 37 25h252z" glyph-name="ygrave" horiz-adv-x="1159" unicode="ỳ"/><glyph d="M1116 688q31 0 31 -31v-186q0 -31 -31 -31h-983q-31 0 -31 31v186q0 31 31 31h983z" glyph-name="endash" horiz-adv-x="1249" unicode="–"/><glyph d="M1239 688q31 0 31 -31v-186q0 -31 -31 -31h-1106q-31 0 -31 31v186q0 31 31 31h1106z" glyph-name="emdash" horiz-adv-x="1372" unicode="—"/><glyph d="M227.5 928q-69.5 0 -118 51t-48.5 133q0 178 138 338q12 10 26 10h29q27 0 16 -26q-43 -90 -43 -177q70 0 118 -48t48 -117q0 -68 -48 -116t-117.5 -48z" glyph-name="quoteleft" horiz-adv-x="454" unicode="‘"/><glyph d="M227.5 1427q69.5 0 117.5 -51t48 -133q0 -178 -137 -338q-12 -10 -27 -10h-28q-27 0 -17 27q43 90 43 176q-70 0 -118 48t-48 118q0 68 48.5 115.5t118 47.5z" glyph-name="quoteright" horiz-adv-x="454" unicode="’"/><glyph d="M227.5 303q69.5 0 117.5 -51t48 -133q0 -178 -137 -338q-12 -10 -27 -10h-28q-27 0 -17 26q43 90 43 176q-70 0 -118 48.5t-48 117.5q0 68 48.5 116t118 48z" glyph-name="quotesinglbase" horiz-adv-x="454" unicode="‚"/><glyph d="M227.5 928q-69.5 0 -118 51t-48.5 133q0 178 138 338q12 10 26 10h29q27 0 16 -26q-43 -90 -43 -177q70 0 118 -48t48 -117q0 -68 -48 -116t-117.5 -48zM624.5 928q-69.5 0 -117.5 51t-48 133q0 178 137 338q12 10 27 10h28q27 0 17 -26q-43 -90 -43 -177q70 0 118 -48 t48 -117q0 -68 -48.5 -116t-118 -48z" glyph-name="quotedblleft" horiz-adv-x="851" unicode="“"/><glyph d="M227.5 1427q69.5 0 117.5 -51t48 -133q0 -178 -137 -338q-12 -10 -27 -10h-28q-27 0 -17 27q43 90 43 176q-70 0 -118 48t-48 118q0 68 48.5 115.5t118 47.5zM624.5 1427q69.5 0 118 -51t48.5 -133q0 -178 -138 -338q-12 -10 -26 -10h-29q-27 0 -16 27q43 90 43 176 q-70 0 -118 48t-48 118q0 68 48 115.5t117.5 47.5z" glyph-name="quotedblright" horiz-adv-x="851" unicode="”"/><glyph d="M227.5 303q69.5 0 117.5 -51t48 -133q0 -178 -137 -338q-12 -10 -27 -10h-28q-27 0 -17 26q43 90 43 176q-70 0 -118 48.5t-48 117.5q0 68 48.5 116t118 48zM647.5 303q69.5 0 117.5 -51t48 -133q0 -178 -137 -338q-12 -10 -27 -10h-28q-27 0 -17 26q43 90 43 176 q-70 0 -118 48.5t-48 117.5q0 68 48.5 116t118 48z" glyph-name="quotedblbase" horiz-adv-x="874" unicode="„"/><glyph d="M827 1174q31 0 31 -31v-162q0 -31 -31 -31h-229v-231q0 -31 -31 -31h-161q-31 0 -31 31v231h-232q-31 0 -30 31v162q0 31 30 31h232v231q0 31 31 31h161q31 0 31 -31v-231h229z" glyph-name="dagger" horiz-adv-x="970" unicode="†"/><glyph d="M827 1174q31 0 31 -31v-162q0 -31 -31 -31h-229v-231q0 -31 -31 -31h-161q-31 0 -31 31v231h-232q-31 0 -30 31v162q0 31 30 31h232v231q0 31 31 31h161q31 0 31 -31v-231h229zM827 307q31 0 31 -31v-161q0 -31 -31 -31h-229v-231q0 -31 -31 -31h-161q-31 0 -31 31v231 h-232q-31 0 -30 31v161q0 31 30 31h232v232q0 31 31 30h161q31 0 31 -30v-232h229z" glyph-name="daggerdbl" horiz-adv-x="970" unicode="‡"/><glyph d="M334 342q-90 0 -155.5 65.5t-65.5 155.5t65.5 155.5t155.5 65.5t155.5 -65.5t65.5 -155.5t-65.5 -155.5t-155.5 -65.5z" glyph-name="bullet" horiz-adv-x="667" unicode="•"/><glyph d="M238 -27q-70 0 -118 48.5t-48 117.5q0 68 48 116t118 48q68 0 115.5 -48t47.5 -116q0 -70 -47.5 -118t-115.5 -48zM743 -27q-70 0 -117.5 48.5t-47.5 117.5q0 68 48 116t117 48q68 0 116 -48t48 -116q0 -70 -48 -118t-116 -48zM1249 -27q-70 0 -118 48.5t-48 117.5 q0 68 48.5 116t117.5 48q68 0 116 -48t48 -116q0 -70 -48 -118t-116 -48z" glyph-name="ellipsis" horiz-adv-x="1484" unicode="…"/><glyph d="M360.5 1444q116.5 0 198.5 -80t82 -196.5t-82 -197.5t-198.5 -81t-197.5 81t-81 197.5t81 196.5t197.5 80zM1079 1423l170 -106l-878 -1307l-170 107zM360 1249q-33 0 -56 -23.5t-23 -58t23.5 -59.5t55.5 -25q35 0 59.5 25t24.5 59.5t-24.5 58t-59.5 23.5zM1090 545 q119 0 198.5 -81t79.5 -197.5t-80 -196.5t-198 -80q-117 0 -199 80t-82 196.5t82 197.5t199 81zM1812 545q117 0 198 -81t81 -197.5t-81 -196.5t-198 -80q-119 0 -199.5 80t-80.5 196.5t80.5 197.5t199.5 81zM1090 350q-35 0 -58.5 -24.5t-23.5 -59.5t23.5 -58.5t58.5 -23.5 q33 0 57 23.5t24 58.5t-24 59.5t-57 24.5zM1812 350q-35 0 -59 -24.5t-24 -59.5t24.5 -58.5t58.5 -23.5q33 0 56.5 23.5t23.5 58.5t-23.5 59.5t-56.5 24.5z" glyph-name="perthousand" horiz-adv-x="2172" unicode="‰"/><glyph d="M72 645q0 23 16 37l225 203q14 12 25.5 6t11.5 -27v-153q0 -23 -16 -37l-137 -117l137 -117q16 -14 16 -37v-153q0 -20 -11 -25.5t-26 6.5l-225 201q-16 14 -16 37v176z" glyph-name="guilsinglleft" horiz-adv-x="421" unicode="‹"/><glyph d="M350 750v-177q0 -23 -16 -36l-225 -201q-14 -12 -25.5 -7t-11.5 25v154q0 23 16 37l137 117l-137 116q-16 14 -16 37v154q0 20 11 26t26 -6l225 -203q16 -13 16 -36z" glyph-name="guilsinglright" horiz-adv-x="421" unicode="›"/><glyph d="M621 1434l-881 -1434h-98l893 1434h86z" glyph-name="fraction" horiz-adv-x="262" unicode="⁄"/><glyph d="M1231 397l158 -170q20 -23 0 -43q-201 -211 -506 -211q-233 0 -421 128t-269 337h-101q-31 0 -31 31v162q0 31 31 31h51q-2 16 -2 49v34h-49q-31 0 -31 31v162q0 31 31 31h94q80 215 269.5 348t427.5 133q303 0 506 -209q18 -20 0 -43l-158 -172q-18 -23 -43 -2 q-135 115 -307 115q-211 0 -332 -170h186q31 0 31 -31v-162q0 -31 -31 -31h-264q-2 -12 -2 -34q0 -33 2 -49h264q31 0 31 -31v-162q0 -31 -31 -31h-174q121 -154 320 -153q172 0 307 114q25 21 43 -2z" glyph-name="Euro" horiz-adv-x="1458" unicode="€"/><glyph d="M1174 745h-173q-55 -47 -133 -83h306q35 0 30 -31v-162q4 -31 -30 -31h-699q-2 -8 -2 -24q0 -66 54.5 -104t131.5 -38q154 0 314 131q27 20 47 -4l141 -157q14 -20 0 -43q-78 -92 -211 -159t-282 -67q-201 0 -353.5 116t-152.5 319v30h-72q-31 0 -31 31v162q0 31 31 31 h156q39 49 94 83h-250q-31 0 -31 31v162q0 31 31 31h713q20 31 20 61q0 51 -41 86t-114 35q-115 0 -265 -104q-25 -18 -43 8l-133 162q-18 25 4 43q195 190 447 190q186 0 321.5 -112.5t135.5 -301.5q0 -27 -5 -67h44q35 0 30 -31v-162q5 -31 -30 -31z" glyph-name="uni20B4" horiz-adv-x="1263" unicode="₴"/><glyph d="M459 1434q10 0 10 -11v-65q0 -10 -10 -10h-117v-273q0 -10 -10 -10h-82q-10 0 -10 10v273h-117q-10 0 -10 10v65q0 10 10 11h336zM1024 1434q10 0 10 -11v-348q0 -10 -10 -10h-78q-10 0 -10 10v187l-111 -191q-2 -6 -12 -6h-53q-10 0 -12 6l-109 191v-187q0 -10 -10 -10 h-78q-10 0 -10 10v348q0 10 10 11h84q8 0 12 -7l139 -233l140 233q4 6 12 7h86z" glyph-name="trademark" horiz-adv-x="1146" unicode="™"/><glyph d="M199 1436v-535h-76v461h-55v74h131zM1061 1434l-881 -1434h-98l893 1434h86zM909 539q74 0 118 -41t44 -97q0 -70 -61 -108q88 -43 88 -135q0 -70 -55.5 -116t-133.5 -46q-76 0 -131 46t-55 116q0 92 88 135q-61 39 -61 108q0 53 43.5 95.5t115.5 42.5zM909 475 q-41 0 -62.5 -21.5t-21.5 -52t26 -55t58 -24.5q37 0 60.5 23.5t23.5 55.5q0 74 -84 74zM909 258q-45 0 -77.5 -28.5t-32.5 -71.5q0 -41 32.5 -70t77.5 -29q49 0 80 27t31 72t-31 72.5t-80 27.5z" glyph-name="oneeighth" horiz-adv-x="1159" unicode="⅛"/><glyph d="M248 1440q66 0 115 -42t49 -98q0 -66 -62 -108q86 -37 86 -135q0 -70 -56 -117t-132 -47q-84 0 -138.5 55.5t-48.5 130.5h78q-10 -47 24 -84t85 -37q45 0 77.5 28t32.5 71q0 57 -41 79.5t-110 10.5v65q129 6 129 88q0 31 -25.5 53.5t-62.5 22.5q-45 0 -71.5 -31.5 t-22.5 -84.5h-78q-8 76 43 128t129 52zM1102 1434l-881 -1434h-98l893 1434h86zM946 539q74 0 118 -41t44 -97q0 -70 -61 -108q88 -43 88 -135q0 -70 -55.5 -116t-133.5 -46q-76 0 -131 46t-55 116q0 92 88 135q-61 39 -62 108q0 53 44 95.5t116 42.5zM946 475 q-41 0 -62.5 -21.5t-21.5 -52t25.5 -55t58.5 -24.5q37 0 60.5 23.5t23.5 55.5q0 74 -84 74zM946 258q-45 0 -77.5 -28.5t-32.5 -71.5q0 -41 32.5 -70t77.5 -29q49 0 80 27t31 72t-31 72.5t-80 27.5z" glyph-name="threeeighths" horiz-adv-x="1196" unicode="⅜"/><glyph d="M391 1436v-66h-213l-16 -119q45 20 92 21q72 0 129 -54.5t57 -134t-57 -135t-137 -55.5q-68 0 -120 38t-65 89l68 39q4 -41 36 -71t81 -30q47 0 81.5 36t34.5 89q0 51 -33.5 87t-74.5 36q-72 0 -117 -59l-65 16l37 273h282zM1102 1434l-881 -1434h-98l893 1434h86z M950 539q74 0 118 -41t44 -97q0 -70 -61 -108q88 -43 88 -135q0 -70 -55.5 -116t-133.5 -46q-76 0 -131 46t-55 116q0 92 88 135q-61 39 -61 108q0 53 43.5 95.5t115.5 42.5zM950 475q-41 0 -62.5 -21.5t-21.5 -52t26 -55t58 -24.5q37 0 60.5 23.5t23.5 55.5q0 74 -84 74z M950 258q-45 0 -77.5 -28.5t-32.5 -71.5q0 -41 32.5 -70t77.5 -29q49 0 80 27t31 72t-31 72.5t-80 27.5z" glyph-name="fiveeighths" horiz-adv-x="1200" unicode="⅝"/><glyph d="M420 1436l-209 -535h-80l182 469h-247v66h354zM1061 1434l-881 -1434h-98l893 1434h86zM909 539q74 0 118 -41t44 -97q0 -70 -61 -108q88 -43 88 -135q0 -70 -55.5 -116t-133.5 -46q-76 0 -131 46t-55 116q0 92 88 135q-61 39 -61 108q0 53 43.5 95.5t115.5 42.5z M909 475q-41 0 -62.5 -21.5t-21.5 -52t26 -55t58 -24.5q37 0 60.5 23.5t23.5 55.5q0 74 -84 74zM909 258q-45 0 -77.5 -28.5t-32.5 -71.5q0 -41 32.5 -70t77.5 -29q49 0 80 27t31 72t-31 72.5t-80 27.5z" glyph-name="seveneighths" horiz-adv-x="1159" unicode="⅞"/><glyph d="M866 788q135 -184 135 -346q0 -195 -139 -332t-336 -137q-199 0 -338 137.5t-139 331.5q0 174 116 302t292 153l-303 401q-18 25 6 43l168 121q29 20 43 -6zM526.5 258q75.5 0 128 53.5t52.5 130.5q0 80 -52.5 132.5t-128.5 52.5q-78 0 -129 -52.5t-51 -132.5 q0 -78 52.5 -131t128 -53z" glyph-name="partialdiff" horiz-adv-x="1062" unicode="∂"/><glyph d="M102 1608q0 31 31 30h1235q31 0 31 -30v-1966q0 -31 -31 -31h-219q-31 0 -31 31v1716h-735v-1716q0 -31 -31 -31h-219q-31 0 -31 31v1966z" glyph-name="product" horiz-adv-x="1501" unicode="∏"/><glyph d="M1292 1638q31 0 31 -30v-222q0 -31 -31 -30h-829l549 -709q16 -23 0 -45l-549 -708h829q31 0 31 -31v-221q0 -31 -31 -31h-1159q-31 0 -31 31v231q0 18 13 37l551 715l-551 714q-12 18 -13 37v232q0 31 31 30h1159z" glyph-name="summation" horiz-adv-x="1425" unicode="∑"/><glyph d="M868 696q31 0 31 -30v-162q0 -31 -31 -31h-725q-31 0 -30 31v162q0 31 30 30h725z" glyph-name="minus" horiz-adv-x="1011" unicode="−"/><glyph d="M1456 1638q37 0 27 -34l-541 -1966q-6 -27 -33 -27h-258q-29 0 -35 24l-270 865h-213q-31 0 -31 30v222q0 31 31 30h373q29 0 35 -26l235 -811l455 1667q6 27 33 26h192z" glyph-name="radical" horiz-adv-x="1587" unicode="√"/><glyph d="M1223 879q156 0 265 -95.5t109 -246.5q0 -156 -109.5 -252.5t-264.5 -96.5q-207 0 -389 187q-182 -186 -388 -187q-158 0 -267 96.5t-109 252.5q0 152 110.5 247t265.5 95q203 0 388 -185q184 185 389 185zM459 389q74 0 127 31t116 115q-63 82 -117.5 113.5t-125.5 31.5 q-70 0 -114 -44t-44 -101q0 -59 44 -102.5t114 -43.5zM1208 389q70 0 114 43t44 103q0 57 -44 101t-114 44q-72 0 -126 -32t-119 -113q63 -84 117 -115t128 -31z" glyph-name="infinity" horiz-adv-x="1667" unicode="∞"/><glyph d="M858 1604q20 -12 21 -37v-217q0 -18 -11.5 -24.5t-25.5 1.5q-55 35 -119 35q-66 0 -85.5 -28.5t-19.5 -90.5v-1278q0 -176 -99 -265t-271 -89q-115 0 -178 35q-20 12 -21 37v217q0 18 10.5 24t26.5 -2q55 -35 120.5 -35t85 29t19.5 90v1278q0 176 99.5 265t269.5 89 q117 1 178 -34z" glyph-name="integral" horiz-adv-x="837" unicode="∫"/><glyph d="M352 897q78 0 147.5 -40t127 -80t108.5 -40q37 0 64.5 18.5t38.5 43.5q12 18 24 18h76q23 0 23 -22q4 -121 -68 -183.5t-182 -62.5q-78 0 -146.5 40t-126 80t-106.5 40q-37 0 -66.5 -18.5t-40.5 -43.5q-6 -18 -24 -18h-76q-27 0 -23 28q14 119 81 179.5t169 60.5z M352 569q78 0 147.5 -40t127 -79.5t108.5 -39.5q37 0 64.5 18t38.5 43q12 18 24 18h76q23 0 23 -22q4 -121 -68 -183.5t-182 -62.5q-78 0 -146.5 40t-126 80t-106.5 40q-37 0 -66.5 -18.5t-40.5 -43.5q-6 -18 -24 -18h-76q-27 0 -23 29q14 119 81 179t169 60z" glyph-name="approxequal" horiz-adv-x="1062" unicode="≈"/><glyph d="M868 645h-204l-48 -121h252q31 0 31 -30v-162q0 -31 -31 -31h-338l-106 -276q-10 -25 -37 -25h-192q-37 0 -25 35l102 266h-129q-31 0 -30 31v162q0 31 30 30h217l46 121h-263q-31 0 -30 31v162q0 31 30 30h351l98 256q10 25 37 25h192q37 0 25 -35l-94 -246h116 q31 0 31 -30v-162q0 -31 -31 -31z" glyph-name="notequal" horiz-adv-x="1011" unicode="≠"/><glyph d="M819 1214q14 8 24.5 2t10.5 -22v-178q0 -20 -20 -31l-474 -201l474 -200q20 -10 20 -33v-178q0 -14 -10 -20.5t-25 -0.5l-698 336q-20 10 -21 29v133q0 16 21 31zM858 240q31 0 31 -31v-162q0 -31 -31 -31h-725q-31 0 -31 31v162q0 31 31 31h725z" glyph-name="lessequal" horiz-adv-x="962" unicode="≤"/><glyph d="M180 1214l699 -333q20 -14 20 -31v-133q0 -18 -20 -29l-699 -336q-14 -6 -24.5 0t-10.5 21v178q0 23 21 33l473 200l-473 201q-20 10 -21 31v178q0 16 10.5 22t24.5 -2zM141 240h725q31 0 31 -31v-162q0 -31 -31 -31h-725q-31 0 -30 31v162q-1 31 30 31z" glyph-name="greaterequal" horiz-adv-x="1013" unicode="≥"/><glyph d="M784 1434q27 0 35 -23l299 -674q8 -20 0 -41l-299 -673q-8 -23 -35 -23h-340q-27 0 -34 23l-299 673q-8 20 0 41l299 674q8 23 34 23h340zM614 184l236 533l-236 534l-235 -534z" glyph-name="lozenge" horiz-adv-x="1228" unicode="◊"/><glyph d="M243.5 1139q-61.5 0 -106.5 44t-45 109q0 63 45 107.5t106.5 44.5t106.5 -44t45 -108q0 -66 -45 -109.5t-106.5 -43.5zM90 973q0 31 31 31h246q31 0 30 -31v-942q0 -31 -30 -31h-246q-31 0 -31 31v942z" glyph-name="i.aalt" horiz-adv-x="487"/><glyph d="M748 1473q20 -12 20 -37v-217q0 -18 -11.5 -24.5t-25.5 3.5q-55 33 -120.5 33t-85 -28.5t-19.5 -90.5v-108h213q31 0 31 -31v-187q0 -31 -31 -30h-213v-725q0 -31 -31 -31h-246q-31 0 -30 31v725h-119q-31 0 -31 30v187q0 31 31 31h119v149q0 176 99 265t269 89 q120 1 181 -34z" glyph-name="f.aalt" horiz-adv-x="819"/><glyph d="M668 268q37 6 37 -28v-193q0 -61 -189 -61q-131 0 -218 73.5t-87 233.5v463h-131q-31 0 -31 30v187q0 31 31 31h131v194q0 31 31 31h245q31 0 31 -31v-194h154q31 0 30 -31v-187q0 -31 -30 -30h-154v-404q0 -88 80 -88q45 0 70 4z" glyph-name="t.aalt" horiz-adv-x="761"/><glyph d="M727 1450q242 0 415 -193.5t173 -546t-172 -545t-416 -192.5q-242 0 -415 192.5t-173 545t173 546t415 193.5zM727 1165q-143 0 -218 -132t-75 -322.5t75 -321.5t218 -131t217 131t74 321.5t-74 322.5t-217 132z" glyph-name="zero.tnum" horiz-adv-x="1454"/><glyph d="M973 1434q31 0 31 -31v-1372q0 -31 -31 -31h-246q-31 0 -31 31v1155h-198q-31 0 -31 31v186q0 31 31 31h475z" glyph-name="one.tnum" horiz-adv-x="1454"/><glyph d="M1145 248q31 0 31 -31v-186q0 -31 -31 -31h-854q-31 0 -31 31v217l209 213l107.5 107.5l94 94t73.5 75.5t60.5 70t39 58.5t28 60t7.5 58.5q0 80 -57.5 130t-137.5 50q-119 0 -217 -90q-25 -23 -45 -2l-150 144q-20 20 -2 43q166 190 422 190q199 0 341.5 -131t142.5 -322 q0 -45 -9.5 -87t-35 -89t-45 -78.5t-69.5 -88t-78 -86t-99.5 -102.5t-104.5 -108l-102 -110h512z" glyph-name="two.tnum" horiz-adv-x="1454"/><glyph d="M983 754q217 -117 217 -342q0 -188 -135 -313.5t-363 -125.5q-135 0 -249.5 48.5t-186.5 130.5q-18 23 2 43l150 141q20 20 45 0q98 -82 219 -82q102 0 158.5 53t56.5 129q0 70 -57.5 123t-194.5 57q-31 0 -31 31v170q0 31 33 31q233 6 234 176q0 66 -54.5 105.5 t-117.5 39.5q-119 0 -199 -79q-23 -23 -45 0l-148 141q-20 20 -2 43q68 82 175.5 129t230.5 47q176 0 303 -111.5t127 -287.5t-168 -297z" glyph-name="three.tnum" horiz-adv-x="1454"/><glyph d="M1206 539q31 0 31 -31v-186q0 -31 -31 -31h-123v-260q0 -31 -30 -31h-246q-31 0 -31 31v260h-526q-31 0 -31 31v196q0 20 10 39l535 856q12 20 37 21h252q31 0 30 -31v-864h123zM776 539v417l-248 -417h248z" glyph-name="four.tnum" horiz-adv-x="1454"/><glyph d="M711 973q203 0 339 -142.5t136 -341.5q0 -236 -145.5 -375t-376.5 -139q-145 0 -257 65.5t-163 158.5q-16 23 8 37l178 122q25 18 45 -2q72 -100 189 -100q98 0 160.5 69.5t62.5 163.5q0 88 -63.5 156t-157.5 68q-100 0 -166 -70q-18 -20 -41 -12l-193 59q-27 8 -20 37 l180 680q6 27 33 27h618q31 0 31 -31v-186q0 -31 -31 -31h-436l-61 -236q2 0 18 5.5t48 11.5t65 6z" glyph-name="five.tnum" horiz-adv-x="1454"/><glyph d="M786 897q176 -25 292 -153t116 -302q0 -195 -139.5 -332t-337.5 -137q-197 0 -336 137.5t-139 331.5q0 162 135 346l495 668q16 27 43 6l168 -121q25 -18 7 -43zM717 258q76 0 128 53.5t52 130.5q0 80 -51 132.5t-129 52.5q-76 0 -128 -52.5t-52 -132.5q0 -78 52 -131 t128 -53z" glyph-name="six.tnum" horiz-adv-x="1454"/><glyph d="M1161 1434q14 0 21.5 -8.5t3.5 -22.5l-492 -1372q-10 -31 -35 -31h-241q-14 0 -22.5 8t-4.5 23l420 1155h-500q-31 0 -30 31v186q0 31 30 31h850z" glyph-name="seven.tnum" horiz-adv-x="1454"/><glyph d="M999 815q104 -51 168 -148.5t64 -226.5q0 -207 -153.5 -337t-348 -130t-349.5 130t-155 337q0 129 63.5 226.5t168.5 148.5q-137 109 -137.5 264.5t113.5 263t296 107.5t296 -107.5t114 -263.5q-1 -158 -140 -264zM590 1067q0 -59 39 -100t100.5 -41t99 41t39.5 100 q0 55 -40 96t-99 41t-100 -41t-39 -96zM729 258q76 0 131 54.5t55 138.5t-56 135t-130 51t-131 -51t-57 -135q0 -86 55 -139.5t133 -53.5z" glyph-name="eight.tnum" horiz-adv-x="1454"/><glyph d="M743 1450q197 0 336.5 -137t139.5 -332q0 -162 -136 -346l-495 -668q-14 -27 -43 -6l-168 121q-25 18 -6 43l303 401q-176 25 -292 153t-116 302q0 195 139 332t338 137zM743 797q76 0 128.5 52t52.5 132q0 78 -52.5 131t-128 53t-128 -53t-52.5 -131q0 -80 51 -132 t129 -52z" glyph-name="nine.tnum" horiz-adv-x="1454"/><glyph d="M276 539q96 0 156 -72t60 -186v-27q0 -115 -59.5 -186.5t-156.5 -71.5q-92 0 -153.5 71.5t-61.5 186.5v27q0 115 61.5 186.5t153.5 71.5zM276 475q-59 0 -99 -52t-40 -142v-27q0 -90 40 -142.5t99 -52.5q63 0 101.5 51.5t38.5 143.5v27q0 92 -38.5 143t-101.5 51z" glyph-name="zero.dnom" horiz-adv-x="552"/><glyph d="M193 535v-535h-76v461h-56v74h132z" glyph-name="one.dnom" horiz-adv-x="253"/><glyph d="M233 541q70 0 121.5 -46t51.5 -108q0 -53 -30 -96t-110 -125l-96 -100h242v-66h-344v66l139 141q57 59 74.5 78.5t32 46t14.5 55.5q0 37 -29 63.5t-66 26.5q-39 0 -67.5 -26.5t-28.5 -75.5v-29h-76v29q0 72 50 119t122 47z" glyph-name="two.dnom" horiz-adv-x="473"/><glyph d="M248 539q66 0 115 -42t49 -98q0 -66 -62 -108q86 -37 86 -135q0 -70 -56 -117t-132 -47q-84 0 -138.5 55t-48.5 131h78q-10 -47 24 -84t85 -37q45 0 77.5 28t32.5 71q0 57 -41 79.5t-110 10.5v65q129 6 129 88q0 31 -25.5 53.5t-62.5 22.5q-45 0 -71.5 -31.5t-22.5 -85.5 h-78q-8 76 43 128.5t129 52.5z" glyph-name="three.dnom" horiz-adv-x="497"/><glyph d="M408 535v-316h55v-63h-55v-156h-76v156h-271l271 379h76zM332 424l-144 -205h144v205z" glyph-name="four.dnom" horiz-adv-x="524"/><glyph d="M391 535v-66h-213l-16 -119q45 20 92 21q72 0 129 -54.5t57 -134.5t-57 -135t-137 -55q-68 0 -120 38t-65 89l68 39q4 -41 36 -71t81 -30q47 0 81.5 36t34.5 89q0 51 -33.5 87t-74.5 36q-72 0 -117 -59l-65 16l37 273h282z" glyph-name="five.dnom" horiz-adv-x="501"/><glyph d="M367 535l-140 -197h13q70 0 123 -51t53 -121q0 -72 -53.5 -123t-123 -51t-124 51t-54.5 123q0 33 11.5 64.5t20.5 47t37 51.5t34 44l117 162h86zM240 272q-45 0 -74 -28.5t-29 -77.5q0 -47 32 -78t71 -31q37 0 68.5 31t31.5 78t-30.5 76.5t-69.5 29.5z" glyph-name="six.dnom" horiz-adv-x="477"/><glyph d="M416 535l-209 -535h-80l182 469h-248v66h355z" glyph-name="seven.dnom" horiz-adv-x="477"/><glyph d="M248 539q74 0 118 -41t44 -97q0 -70 -62 -108q88 -43 88 -135q0 -70 -55 -116t-133 -46q-76 0 -131.5 46t-55.5 116q0 92 89 135q-61 39 -62 108q0 53 44 95.5t116 42.5zM248 475q-41 0 -62.5 -21.5t-21.5 -52t25.5 -55t58.5 -24.5q35 0 59.5 23.5t24.5 55.5q0 74 -84 74 zM248 258q-45 0 -78 -28.5t-33 -71.5q0 -41 33 -70t78 -29q49 0 79.5 27t30.5 72t-30.5 72.5t-79.5 27.5z" glyph-name="eight.dnom" horiz-adv-x="497"/><glyph d="M239.5 541q69.5 0 124 -50.5t54.5 -121.5q0 -27 -5 -49.5t-18.5 -46t-21.5 -37t-29.5 -40t-30.5 -36.5l-114 -160h-88l139 195h-10q-72 0 -125.5 52t-53.5 122q0 72 54.5 122t124 50zM240 475q-39 0 -71 -30.5t-32 -75.5q0 -47 32 -78t71 -31q45 0 72.5 29.5t27.5 79.5 q0 45 -31.5 75.5t-68.5 30.5z" glyph-name="nine.dnom" horiz-adv-x="479"/><glyph d="M276 1440q96 0 156 -72t60 -186v-27q0 -115 -59.5 -186.5t-156.5 -71.5q-92 0 -153.5 71.5t-61.5 186.5v27q0 115 61.5 186.5t153.5 71.5zM276 1376q-59 0 -99 -52t-40 -142v-27q0 -90 40 -142t99 -52q63 0 101.5 51t38.5 143v27q0 92 -38.5 143t-101.5 51z" glyph-name="zero.numr" horiz-adv-x="552"/><glyph d="M193 1436v-535h-76v461h-56v74h132z" glyph-name="one.numr" horiz-adv-x="253"/><glyph d="M233 1442q70 0 121.5 -46t51.5 -108q0 -53 -30 -96t-110 -125l-96 -100h242v-66h-344v66l139 141q57 59 74.5 78.5t32 46.5t14.5 55q0 37 -29 63.5t-66 26.5q-39 0 -67.5 -26.5t-28.5 -75.5v-29h-76v29q0 72 50 119t122 47z" glyph-name="two.numr" horiz-adv-x="473"/><glyph d="M248 1440q66 0 115 -42t49 -98q0 -66 -62 -108q86 -37 86 -135q0 -70 -56 -117t-132 -47q-84 0 -138.5 55.5t-48.5 130.5h78q-10 -47 24 -84t85 -37q45 0 77.5 28t32.5 71q0 57 -41 79.5t-110 10.5v65q129 6 129 88q0 31 -25.5 53.5t-62.5 22.5q-45 0 -71.5 -31.5 t-22.5 -84.5h-78q-8 76 43 128t129 52z" glyph-name="three.numr" horiz-adv-x="497"/><glyph d="M408 1436v-316h55v-63h-55v-156h-76v156h-271l271 379h76zM332 1325l-144 -205h144v205z" glyph-name="four.numr" horiz-adv-x="524"/><glyph d="M391 1436v-66h-213l-16 -119q45 20 92 21q72 0 129 -54.5t57 -134t-57 -135t-137 -55.5q-68 0 -120 38t-65 89l68 39q4 -41 36 -71t81 -30q47 0 81.5 36t34.5 89q0 51 -33.5 87t-74.5 36q-72 0 -117 -59l-65 16l37 273h282z" glyph-name="five.numr" horiz-adv-x="501"/><glyph d="M367 1436l-140 -197h13q70 0 123 -51t53 -121q0 -72 -53.5 -123t-123 -51t-124 51t-54.5 123q0 33 11.5 64.5t20.5 47t37 51.5t34 44l117 162h86zM240 1174q-45 0 -74 -29t-29 -78q0 -47 32 -78t71 -31q37 0 68.5 31t31.5 78t-30.5 77t-69.5 30z" glyph-name="six.numr" horiz-adv-x="477"/><glyph d="M416 1436l-209 -535h-80l182 469h-248v66h355z" glyph-name="seven.numr" horiz-adv-x="477"/><glyph d="M248 1440q74 0 118 -41t44 -96q0 -70 -62 -109q88 -43 88 -135q0 -70 -55 -116t-133 -46q-76 0 -131.5 46t-55.5 116q0 92 89 135q-61 39 -62 109q0 53 44 95t116 42zM248 1376q-41 0 -62.5 -21.5t-21.5 -52t25.5 -55t58.5 -24.5q35 0 59.5 23.5t24.5 56.5q0 73 -84 73z M248 1159q-45 0 -78 -28.5t-33 -71.5q0 -41 33 -69.5t78 -28.5q49 0 79.5 26.5t30.5 71.5t-30.5 72.5t-79.5 27.5z" glyph-name="eight.numr" horiz-adv-x="497"/><glyph d="M239.5 1442q69.5 0 124 -50.5t54.5 -121.5q0 -27 -5 -49.5t-18.5 -46t-21.5 -37t-29.5 -40t-30.5 -36.5l-114 -160h-88l139 195h-10q-72 0 -125.5 52t-53.5 122q0 72 54.5 122t124 50zM240 1376q-39 0 -71 -30.5t-32 -75.5q0 -47 32 -78t71 -31q45 0 72.5 30t27.5 79 q0 45 -31.5 75.5t-68.5 30.5z" glyph-name="nine.numr" horiz-adv-x="479"/></font>
</defs>
</svg>
