<?xml version="1.0" encoding="UTF-8"?>
<svg width="90px" height="90px" viewBox="0 0 90 90" version="1.1" xmlns="http://www.w3.org/2000/svg" xmlns:xlink="http://www.w3.org/1999/xlink">
    <!-- Generator: Sketch 50.2 (55047) - http://www.bohemiancoding.com/sketch -->
    <title>Arrow-right-circle - simple-line-icons</title>
    <desc>Created with Sketch.</desc>
    <defs></defs>
    <g id="Page-1" stroke="none" stroke-width="1" fill="none" fill-rule="evenodd">
        <g id="Artboard" transform="translate(-156.000000, -178.000000)" fill="#29BFA1">
            <path d="M223.400146,184.047607 C230.295038,188.020935 235.743673,193.454962 239.746216,200.349854 C243.748759,207.244745 245.75,214.753052 245.75,222.875 C245.75,230.996948 243.748759,238.505255 239.746216,245.400146 C235.743673,252.295038 230.295038,257.743673 223.400146,261.746216 C216.505255,265.748759 208.996948,267.75 200.875,267.75 C192.753052,267.75 185.244745,265.748759 178.349854,261.746216 C171.454962,257.743673 166.006327,252.295038 162.003784,245.400146 C158.001241,238.505255 156,230.996948 156,222.875 C156,214.753052 158.001241,207.244745 162.003784,200.349854 C166.006327,193.454962 171.454962,188.006327 178.349854,184.003784 C185.244745,180.001241 192.753052,178 200.875,178 C208.996948,178 216.505255,180.015849 223.400146,184.047607 Z M200.875,262.228271 C206.192247,262.228271 211.275692,261.191132 216.125488,259.116821 C220.975285,257.042511 225.153059,254.237851 228.658936,250.702759 C232.164812,247.167666 234.954864,242.975285 237.029175,238.125488 C239.103485,233.275692 240.140625,228.192247 240.140625,222.875 C240.140625,217.557753 239.103485,212.474308 237.029175,207.624512 C234.954864,202.774715 232.164812,198.596941 228.658936,195.091064 C225.153059,191.585188 220.975285,188.795136 216.125488,186.720825 C211.275692,184.646515 206.192247,183.609375 200.875,183.609375 C195.557753,183.609375 190.474308,184.646515 185.624512,186.720825 C180.774715,188.795136 176.596941,191.585188 173.091064,195.091064 C169.585188,198.596941 166.795136,202.774715 164.720825,207.624512 C162.646515,212.474308 161.609375,217.557753 161.609375,222.875 C161.609375,227.140484 162.266717,231.274435 163.581421,235.276978 C164.896125,239.27952 166.765898,242.887598 169.190796,246.101318 C171.615694,249.315039 174.434961,252.148914 177.648682,254.603027 C180.862402,257.057141 184.47048,258.941522 188.473022,260.256226 C192.475565,261.570929 196.609516,262.228271 200.875,262.228271 Z M204.206299,205 C204.965905,205 205.637855,205.292152 206.222168,205.876465 L222.787354,222.879883 L206.222168,239.883301 C205.637855,240.409182 204.965905,240.672119 204.206299,240.672119 C203.855711,240.672119 203.505129,240.599081 203.154541,240.453003 C202.803953,240.306925 202.497194,240.102418 202.234253,239.839478 C201.971312,239.576537 201.766806,239.269777 201.620728,238.919189 C201.474649,238.568602 201.401611,238.218019 201.401611,237.867432 C201.401611,237.516844 201.474649,237.166262 201.620728,236.815674 C201.766806,236.465086 201.956705,236.143719 202.19043,235.851562 L212.532715,225.596924 L180.804688,225.596924 C179.98665,225.596924 179.3147,225.319379 178.788818,224.764282 C178.262937,224.209185 178,223.537235 178,222.748413 C178,221.959591 178.262937,221.302249 178.788818,220.776367 C179.3147,220.250486 179.98665,219.987549 180.804688,219.987549 L212.357422,219.987549 L202.19043,209.820557 C201.664548,209.294675 201.401611,208.637333 201.401611,207.848511 C201.401611,207.059688 201.679156,206.387739 202.234253,205.832642 C202.78935,205.277544 203.446692,205 204.206299,205 Z" id="Arrow-right-circle---simple-line-icons"></path>
        </g>
    </g>
</svg>