<?xml version="1.0" encoding="UTF-8"?>
<svg width="130px" height="17px" viewBox="0 0 130 17" version="1.1" xmlns="http://www.w3.org/2000/svg" xmlns:xlink="http://www.w3.org/1999/xlink">
    <!-- Generator: Sketch 50.2 (55047) - http://www.bohemiancoding.com/sketch -->
    <title>Group</title>
    <desc>Created with Sketch.</desc>
    <defs></defs>
    <g id="Page-1" stroke="none" stroke-width="1" fill="none" fill-rule="evenodd">
        <g id="Group" transform="translate(1.000000, 0.000000)">
            <path d="M10.28,11.84 C10.38,11.7 10.56,11.7 10.72,11.82 C11.16,12.1 11.76,12.54 12.76,12.54 C14.1,12.54 14.96,11.7 14.96,9.66 L14.96,1.3 C14.96,1.12 15.08,1 15.26,1 L17.4,1 C17.58,1 17.7,1.12 17.7,1.3 L17.7,9.76 C17.7,13.58 15.72,15.18 12.84,15.18 C11.14,15.18 9.88,14.54 9.2,13.74 C9.08,13.6 9.1,13.46 9.2,13.32 L10.28,11.84 Z M29,9.9 C29,10.68 28.9,11.08 28.3,11.08 L22.02,11.08 C22.28,12.38 23.28,13.12 24.82,13.12 C25.6,13.12 26.22,12.92 26.9,12.44 C27.08,12.32 27.2,12.32 27.34,12.46 L28.22,13.32 C28.36,13.46 28.36,13.6 28.2,13.76 C27.26,14.7 25.98,15.26 24.56,15.26 C21.5,15.26 19.4,13 19.4,10.12 C19.4,7.24 21.5,4.98 24.34,4.98 C27.18,4.98 29,7.24 29,9.9 Z M24.36,7.22 C23.16,7.22 22.2,7.98 21.98,9.36 L26.66,9.36 C26.48,7.98 25.54,7.22 24.36,7.22 Z M36.24,4.98 C38.24,4.98 39.78,6.5 39.78,9.12 L39.78,14.7 C39.78,14.88 39.66,15 39.48,15 L37.44,15 C37.26,15 37.14,14.88 37.14,14.7 L37.14,9.6 C37.14,7.98 36.26,7.42 35.3,7.42 C33.82,7.42 33.14,8.88 33.14,9.34 L33.14,14.7 C33.14,14.88 33.02,15 32.84,15 L30.8,15 C30.62,15 30.5,14.88 30.5,14.7 L30.5,5.5 C30.5,5.32 30.62,5.2 30.8,5.2 L32.76,5.2 C32.94,5.2 33.04,5.32 33.06,5.5 L33.14,6.78 L33.14,6.8 C33.78,5.76 34.82,4.98 36.24,4.98 Z M55.68,1 C55.86,1 55.98,1.12 55.98,1.3 L55.98,3.12 C55.98,3.3 55.86,3.42 55.68,3.42 L52.66,3.42 L52.66,14.7 C52.66,14.88 52.54,15 52.36,15 L50.22,15 C50.04,15 49.92,14.88 49.92,14.7 L49.92,3.42 L46.88,3.42 C46.7,3.42 46.58,3.3 46.58,3.12 L46.58,1.3 C46.58,1.12 46.7,1 46.88,1 L55.68,1 Z M63.1,4.98 C65.1,4.98 66.64,6.5 66.64,9.12 L66.64,14.7 C66.64,14.88 66.52,15 66.34,15 L64.3,15 C64.12,15 64,14.88 64,14.7 L64,9.6 C64,7.98 63.12,7.42 62.16,7.42 C60.68,7.42 60,8.88 60,9.34 L60,14.7 C60,14.88 59.88,15 59.7,15 L57.66,15 C57.48,15 57.36,14.88 57.36,14.7 L57.36,0.7 C57.36,0.52 57.48,0.4 57.66,0.4 L59.7,0.4 C59.88,0.4 60,0.52 60,0.7 L60,6.8 C60.64,5.76 61.68,4.98 63.1,4.98 Z M73.22,15.26 C70.4,15.26 68.14,13 68.14,10.12 C68.14,7.24 70.4,4.98 73.22,4.98 C76.04,4.98 78.3,7.24 78.3,10.12 C78.3,13 76.04,15.26 73.22,15.26 Z M73.22,12.82 C74.62,12.82 75.76,11.7 75.76,10.12 C75.76,8.54 74.62,7.42 73.22,7.42 C71.8,7.42 70.68,8.54 70.68,10.12 C70.68,11.7 71.8,12.82 73.22,12.82 Z M86.24,5.44 C86.4,5.56 86.4,5.7 86.34,5.84 L85.74,7.32 C85.66,7.54 85.5,7.58 85.3,7.52 C85.1,7.46 84.86,7.38 84.48,7.38 C83.24,7.38 82.44,8.3 82.44,9.5 L82.44,14.7 C82.44,14.88 82.32,15 82.14,15 L80.1,15 C79.92,15 79.8,14.88 79.8,14.7 L79.8,5.5 C79.8,5.32 79.92,5.2 80.1,5.2 L82.04,5.2 C82.22,5.2 82.32,5.32 82.34,5.5 L82.42,6.58 C82.94,5.64 83.74,4.98 84.92,4.98 C85.48,4.98 85.96,5.2 86.24,5.44 Z M93,4.98 C95,4.98 96.54,6.5 96.54,9.12 L96.54,14.7 C96.54,14.88 96.42,15 96.24,15 L94.2,15 C94.02,15 93.9,14.88 93.9,14.7 L93.9,9.6 C93.9,7.98 93.02,7.42 92.06,7.42 C90.58,7.42 89.9,8.88 89.9,9.34 L89.9,14.7 C89.9,14.88 89.78,15 89.6,15 L87.56,15 C87.38,15 87.26,14.88 87.26,14.7 L87.26,5.5 C87.26,5.32 87.38,5.2 87.56,5.2 L89.52,5.2 C89.7,5.2 89.8,5.32 89.82,5.5 L89.9,6.78 L89.9,6.8 C90.54,5.76 91.58,4.98 93,4.98 Z" id="Jen-Thorn" fill="#222222"></path>
            <g id="rose" transform="translate(110.000000, 1.000000)" fill="#29BFA1" fill-rule="nonzero">
                <path d="M2.765865,-2.18194814 L2.765865,1.70078103 C2.765865,5.68088519 5.81275491,8.94651019 9.6328225,9.15748936 L9.6328225,5.27080186 C9.6328225,1.29109353 6.58631764,-1.97096897 2.765865,-2.18194814 Z" id="Shape" transform="translate(6.199344, 3.487771) rotate(90.000000) translate(-6.199344, -3.487771) "></path>
                <path d="M9.6328225,10.1271855 L9.6328225,6.24445637 C5.81275491,6.45543553 2.765865,9.7171022 2.765865,13.6972064 L2.765865,17.5838939 C6.58593259,17.3729147 9.6328225,14.1072897 9.6328225,10.1271855 Z" id="Shape" transform="translate(6.199344, 11.914175) rotate(90.000000) translate(-6.199344, -11.914175) "></path>
                <path d="M17.439276,8.37844161 C16.9972402,4.89352495 14.3253876,2.79996245 13.5756979,2.27667078 C12.8217727,2.79996245 10.1503052,4.89352495 9.71211983,8.37844161 C11.5314747,9.38069161 12.9284311,11.0803999 13.5756979,13.1252749 C14.2229647,11.0803999 15.6199212,9.38069161 17.439276,8.37844161 Z" id="Shape" transform="translate(13.575698, 7.700973) rotate(90.000000) translate(-13.575698, -7.700973) "></path>
            </g>
            <path d="M101,9 L106,9" id="Line" stroke="#29BFA1" stroke-linecap="round"></path>
            <path d="M0,9 L5,9" id="Line-Copy" stroke="#29BFA1" stroke-linecap="round"></path>
        </g>
    </g>
</svg>